<svg xmlns="http://www.w3.org/2000/svg" viewBox="0 0 144 72"><defs><style>.cls-1,.cls-6,.cls-7{fill:#ce0e2d;}.cls-2{fill:#e6e7e8;}.cls-3,.cls-4,.cls-5{fill:#fff;}.cls-3{stroke:#d1d3d4;stroke-linecap:round;stroke-linejoin:round;stroke-width:2px;}.cls-4,.cls-7{font-size:9.65px;font-family:Poppins-Medium, Poppins;}.cls-6{stroke:#e6e7e8;}</style></defs><title>btn-ver-video_2</title><g id="Layer_2" data-name="Layer 2"><path class="cls-1" d="M7.25,71.5a7.28,7.28,0,0,1-4.87-1.62A6.83,6.83,0,0,1,.5,65V7.47a7.74,7.74,0,0,1,1.65-4.9A6.38,6.38,0,0,1,6,.66,14.39,14.39,0,0,1,8.31.5H63.48a10.55,10.55,0,0,1,4.76.8A5.35,5.35,0,0,1,71,4.52a10.82,10.82,0,0,1,.49,3.92V65a6.81,6.81,0,0,1-1.85,4.87,7.27,7.27,0,0,1-4.79,1.6H7.25Z"/><path class="cls-2" d="M63.47,1A10.18,10.18,0,0,1,68,1.76a4.94,4.94,0,0,1,2.49,2.93A10.13,10.13,0,0,1,71,8.47q0,18.85,0,37.71V65a6.31,6.31,0,0,1-1.69,4.53A6.72,6.72,0,0,1,64.85,71H7.28a6.82,6.82,0,0,1-4.56-1.49A6.51,6.51,0,0,1,1,65V7.5A7.29,7.29,0,0,1,2.53,2.9,5.89,5.89,0,0,1,6.11,1.15,14.67,14.67,0,0,1,8.32,1H63.47m0-1H8.32A15.34,15.34,0,0,0,6,.17,6.89,6.89,0,0,0,1.78,2.23,8.13,8.13,0,0,0,0,7.47V65a7.35,7.35,0,0,0,2,5.21A8,8,0,0,0,7.25,72h57.6A7.86,7.86,0,0,0,70,70.27,7.26,7.26,0,0,0,72,65q0-28.28,0-56.56a10.92,10.92,0,0,0-.51-4.1,5.83,5.83,0,0,0-3-3.51,10.89,10.89,0,0,0-5-.86Z"/><polygon class="cls-3" points="28.95 14.84 47.5 28.58 28.95 42.32 28.95 14.84"/><text class="cls-4" transform="translate(11.89 59.44)">VER VIDEO</text><path class="cls-5" d="M79.25,71.5a7.28,7.28,0,0,1-4.87-1.62A6.83,6.83,0,0,1,72.5,65V7.47a7.74,7.74,0,0,1,1.65-4.9A6.38,6.38,0,0,1,78,.66,14.39,14.39,0,0,1,80.31.5h55.17a10.55,10.55,0,0,1,4.76.8A5.35,5.35,0,0,1,143,4.52a10.82,10.82,0,0,1,.49,3.92V65a6.81,6.81,0,0,1-1.85,4.87,7.27,7.27,0,0,1-4.79,1.6H79.25Z"/><path class="cls-2" d="M135.47,1a10.18,10.18,0,0,1,4.57.76,4.94,4.94,0,0,1,2.49,2.93A10.13,10.13,0,0,1,143,8.47q0,18.85,0,37.71V65a6.31,6.31,0,0,1-1.69,4.53A6.72,6.72,0,0,1,136.85,71H79.28a6.82,6.82,0,0,1-4.56-1.49A6.51,6.51,0,0,1,73,65V7.5a7.29,7.29,0,0,1,1.53-4.6,5.89,5.89,0,0,1,3.58-1.75A14.67,14.67,0,0,1,80.32,1h55.15m0-1H80.32A15.34,15.34,0,0,0,78,.17a6.89,6.89,0,0,0-4.18,2.06A8.13,8.13,0,0,0,72,7.47V65a7.35,7.35,0,0,0,2,5.21A8,8,0,0,0,79.25,72h57.6A7.86,7.86,0,0,0,142,70.27,7.26,7.26,0,0,0,144,65q0-28.28,0-56.56a10.92,10.92,0,0,0-.51-4.1,5.83,5.83,0,0,0-3-3.51,10.89,10.89,0,0,0-5-.86Z"/><polygon class="cls-6" points="100.95 14.84 119.5 28.58 100.95 42.32 100.95 14.84"/><text class="cls-7" transform="translate(83.89 59.44)">VER VIDEO</text></g></svg>