<svg xmlns="http://www.w3.org/2000/svg" viewBox="0 0 110 124"><defs><style>.cls-1{fill:#ce0e2d;}.cls-2,.cls-3{fill:#fff;}.cls-3,.cls-5{font-size:9px;font-family:OpenSans, Open Sans;letter-spacing:0.01em;}.cls-4{font-size:11px;font-family:OpenSans-Bold, Open Sans;font-weight:700;letter-spacing:0.01em;}.cls-5{fill:#cf152d;}</style></defs><title>Asset 4</title><g id="Layer_2" data-name="Layer 2"><g id="Layer_1-2" data-name="Layer 1"><path class="cls-1" d="M110,60V11.76A11.75,11.75,0,0,0,98.24,0H11.76A11.75,11.75,0,0,0,0,11.76V60Z"/><polygon class="cls-1" points="0 62 0 58 110 58.01 110 62 0 62"/><path class="cls-1" d="M66.89,3.55a2.06,2.06,0,0,0-1-1.21,5,5,0,0,0-2.3-.3H45.07a5.74,5.74,0,0,0-.93.06,2.41,2.41,0,0,0-1.46.71,2.86,2.86,0,0,0-.61,1.82v20a2.52,2.52,0,0,0,.71,1.81,2.72,2.72,0,0,0,1.81.61h20a2.69,2.69,0,0,0,1.77-.6,2.54,2.54,0,0,0,.7-1.82V5A3.85,3.85,0,0,0,66.89,3.55Z"/><path class="cls-2" d="M62.15,16.76H60.86C60.69,8.21,58.49,6.08,54.6,6.08s-6.15,2.13-6.32,10.68H47a.92.92,0,0,0-.92.92v4.48a.92.92,0,0,0,.92.92H62.15a.92.92,0,0,0,.92-.92V17.68A.92.92,0,0,0,62.15,16.76ZM54.6,7.09c3.48,0,5.38,2.09,5.58,9.67H49C49.15,9.18,51.06,7.09,54.6,7.09Zm-6,12.42a1.11,1.11,0,0,1-1.11-1.11,1.09,1.09,0,0,1,.79-1c0,.17,0,.33,0,.51v.43h.68v-.18c0-.27,0-.5,0-.75a1.1,1.1,0,0,1-.36,2.15Zm11.93,0a1.1,1.1,0,0,1-.33-2.16c0,.26,0,.49,0,.76v.18h.68v-.43c0-.18,0-.33,0-.5a1.09,1.09,0,0,1,.77,1A1.12,1.12,0,0,1,60.52,19.51Z"/><text class="cls-3" transform="translate(37.76 36.18)">BOLSAS<tspan class="cls-4"><tspan x="-10.64" y="13.2">IMPRESAS</tspan></tspan></text><path class="cls-2" d="M110,122V73.76A11.75,11.75,0,0,0,98.24,62H11.76A11.75,11.75,0,0,0,0,73.76V122Z"/><polygon class="cls-1" points="0 124 0 116 110 116.01 110 124 0 124"/><text class="cls-5" transform="translate(37.76 98.18)">BOLSAS<tspan class="cls-4"><tspan x="-10.64" y="13.2">IMPRESAS</tspan></tspan></text><path class="cls-2" d="M66.89,65.55a2.06,2.06,0,0,0-1-1.21,5,5,0,0,0-2.3-.3H45.07a5.74,5.74,0,0,0-.93.06,2.41,2.41,0,0,0-1.46.71,2.86,2.86,0,0,0-.61,1.82v20a2.52,2.52,0,0,0,.71,1.81,2.72,2.72,0,0,0,1.81.61h20a2.69,2.69,0,0,0,1.77-.6,2.54,2.54,0,0,0,.7-1.82V67A3.85,3.85,0,0,0,66.89,65.55Z"/><path class="cls-1" d="M62.15,78.76H60.86c-.17-8.55-2.37-10.68-6.26-10.68s-6.15,2.13-6.32,10.68H47a.92.92,0,0,0-.92.92v4.48a.92.92,0,0,0,.92.92H62.15a.92.92,0,0,0,.92-.92V79.68A.92.92,0,0,0,62.15,78.76ZM54.6,69.09c3.48,0,5.38,2.09,5.58,9.67H49C49.15,71.18,51.06,69.09,54.6,69.09Zm-6,12.42a1.11,1.11,0,0,1-1.11-1.11,1.09,1.09,0,0,1,.79-1.05c0,.17,0,.33,0,.51v.43h.68v-.18c0-.27,0-.5,0-.75a1.1,1.1,0,0,1-.36,2.15Zm11.93,0a1.1,1.1,0,0,1-.33-2.16c0,.25,0,.49,0,.76v.18h.68v-.43c0-.18,0-.33,0-.51a1.11,1.11,0,0,1-.35,2.16Z"/></g></g></svg>