<svg xmlns="http://www.w3.org/2000/svg" viewBox="0 0 110 124"><defs><style>.cls-1,.cls-7{fill:#ce0e2d;}.cls-2,.cls-6{font-size:9px;font-family:OpenSans, Open Sans;letter-spacing:0.01em;}.cls-2,.cls-4,.cls-5{fill:#fff;}.cls-3{font-size:11px;font-family:OpenSans-Bold, Open Sans;font-weight:700;letter-spacing:0.01em;}.cls-4,.cls-7{fill-rule:evenodd;}.cls-6{fill:#cf152d;}</style></defs><title>btn-bg-bolsas-para-comercios</title><g id="Layer_2" data-name="Layer 2"><g id="Layer_1-2" data-name="Layer 1"><path class="cls-1" d="M110,60V11.76A11.75,11.75,0,0,0,98.24,0H11.76A11.75,11.75,0,0,0,0,11.76V60Z"/><polygon class="cls-1" points="0 62 0 58 110 58.01 110 62 0 62"/><text class="cls-2" transform="translate(25.17 36.18)">BOLSAS PARA<tspan class="cls-3"><tspan x="-3.6" y="13.2">COMERCIOS</tspan></tspan></text><path class="cls-1" d="M66.88,3.56a2,2,0,0,0-1-1.22,5,5,0,0,0-2.3-.3H45.07a5.74,5.74,0,0,0-.93.06,2.37,2.37,0,0,0-1.46.72,2.81,2.81,0,0,0-.61,1.81v20a2.52,2.52,0,0,0,.71,1.81,2.72,2.72,0,0,0,1.81.61h20a2.69,2.69,0,0,0,1.77-.6,2.54,2.54,0,0,0,.7-1.82V5A3.78,3.78,0,0,0,66.88,3.56Z"/><path class="cls-4" d="M61.68,12.92v9.35H52V14.36H49v7.91H47.48V12.91Zm-8.09,7.87H60.2V14.37H53.59Z"/><path class="cls-4" d="M56.62,10.88c-.78.76-1.38.76-2,0a1.18,1.18,0,0,1-2,0,1.18,1.18,0,0,1-2,0,1.29,1.29,0,0,1-1,.58,1.22,1.22,0,0,1-1-.58,1.24,1.24,0,0,1-1.17.57,1.59,1.59,0,0,1-1.19-1.57.65.65,0,0,1,0-.31c.4-.86.81-1.71,1.21-2.57.08-.18.19-.17.31-.17h13.8c.16,0,.25.05.33.24.38.81.77,1.61,1.14,2.43A1,1,0,0,1,63,10c-.2,1.35-1.36,1.9-2.19,1l-.14-.16a1.21,1.21,0,0,1-2,0,1.26,1.26,0,0,1-1,.57A1.23,1.23,0,0,1,56.62,10.88Z"/><path class="cls-5" d="M110,122V73.76A11.75,11.75,0,0,0,98.24,62H11.76A11.75,11.75,0,0,0,0,73.76V122Z"/><polygon class="cls-1" points="0 124 0 116 110 116.01 110 124 0 124"/><text class="cls-6" transform="translate(25.17 98.18)">BOLSAS PARA<tspan class="cls-3"><tspan x="-3.6" y="13.2">COMERCIOS</tspan></tspan></text><path class="cls-5" d="M66.88,65.56a2,2,0,0,0-1-1.22,5,5,0,0,0-2.3-.3H45.07a5.74,5.74,0,0,0-.93.06,2.37,2.37,0,0,0-1.46.72,2.81,2.81,0,0,0-.61,1.81v20a2.52,2.52,0,0,0,.71,1.81,2.72,2.72,0,0,0,1.81.61h20a2.69,2.69,0,0,0,1.77-.6,2.54,2.54,0,0,0,.7-1.82V67A3.78,3.78,0,0,0,66.88,65.56Z"/><path class="cls-7" d="M61.68,74.92v9.35H52V76.36H49v7.91H47.48V74.91Zm-8.09,7.87H60.2V76.37H53.59Z"/><path class="cls-7" d="M56.62,72.88c-.78.76-1.38.76-2,0a1.18,1.18,0,0,1-2,0,1.18,1.18,0,0,1-2,0,1.29,1.29,0,0,1-1,.58,1.22,1.22,0,0,1-1-.58,1.24,1.24,0,0,1-1.17.57,1.59,1.59,0,0,1-1.19-1.57.65.65,0,0,1,0-.31c.4-.86.81-1.71,1.21-2.57.08-.18.19-.17.31-.17h13.8c.16,0,.25,0,.33.24.38.81.77,1.61,1.14,2.43A1,1,0,0,1,63,72c-.2,1.35-1.36,1.9-2.19,1.05l-.14-.16a1.21,1.21,0,0,1-2,0,1.26,1.26,0,0,1-1,.57A1.23,1.23,0,0,1,56.62,72.88Z"/></g></g></svg>