<svg xmlns="http://www.w3.org/2000/svg" viewBox="0 0 110 124"><defs><style>.cls-1{fill:#ce0e2d;}.cls-2,.cls-5{font-size:9px;font-family:OpenSans, Open Sans;letter-spacing:0.01em;}.cls-2,.cls-4{fill:#fff;}.cls-3{font-size:11px;font-family:OpenSans-Bold, Open Sans;font-weight:700;letter-spacing:0.01em;}.cls-5{fill:#cf152d;}</style></defs><title>Asset 7</title><g id="Layer_2" data-name="Layer 2"><g id="Layer_1-2" data-name="Layer 1"><path class="cls-1" d="M110,60V11.76A11.75,11.75,0,0,0,98.24,0H11.76A11.75,11.75,0,0,0,0,11.76V60Z"/><polygon class="cls-1" points="0 62 0 58 110 58.01 110 62 0 62"/><text class="cls-2" transform="translate(20.22 36.18)">PRODUCTOS DE<tspan class="cls-3"><tspan x="6.84" y="13.2">EMPAQUE</tspan></tspan></text><path class="cls-1" d="M66.88,3.56a2,2,0,0,0-1-1.22,5,5,0,0,0-2.3-.3H45.07a5.74,5.74,0,0,0-.93.06,2.37,2.37,0,0,0-1.46.72,2.81,2.81,0,0,0-.61,1.81v20a2.52,2.52,0,0,0,.71,1.81,2.72,2.72,0,0,0,1.81.61h20a2.69,2.69,0,0,0,1.77-.6,2.54,2.54,0,0,0,.7-1.82V5A3.78,3.78,0,0,0,66.88,3.56Z"/><rect class="cls-4" x="48.07" y="16.41" width="6" height="5.63"/><rect class="cls-4" x="55.07" y="16.41" width="6" height="5.63"/><path class="cls-4" d="M62.07,15.48h-7V11.73h-1v3.75h-7V11.73h7s-5,0-5-2.35A2.61,2.61,0,0,1,51.57,7c1.25,0,2.5,1.17,2.5,4.69v-.94h1v.94c0-3.52,1.25-4.69,2.5-4.69a2.61,2.61,0,0,1,2.5,2.34c0,2.35-5,2.35-5,2.35h7Z"/><ellipse class="cls-1" cx="51.73" cy="9.68" rx="1.16" ry="1.66" transform="translate(24.14 54.5) rotate(-68.98)"/><ellipse class="cls-1" cx="57.42" cy="9.68" rx="1.66" ry="1.16" transform="translate(0.35 21.24) rotate(-21.02)"/><path class="cls-4" d="M110,122V73.76A11.75,11.75,0,0,0,98.24,62H11.76A11.75,11.75,0,0,0,0,73.76V122Z"/><polygon class="cls-1" points="0 124 0 116 110 116.01 110 124 0 124"/><text class="cls-5" transform="translate(20.22 98.18)">PRODUCTOS DE<tspan class="cls-3"><tspan x="6.84" y="13.2">EMPAQUE</tspan></tspan></text><path class="cls-4" d="M66.88,65.56a2,2,0,0,0-1-1.22,5,5,0,0,0-2.3-.3H45.07a5.74,5.74,0,0,0-.93.06,2.37,2.37,0,0,0-1.46.72,2.81,2.81,0,0,0-.61,1.81v20a2.52,2.52,0,0,0,.71,1.81,2.72,2.72,0,0,0,1.81.61h20a2.69,2.69,0,0,0,1.77-.6,2.54,2.54,0,0,0,.7-1.82V67A3.78,3.78,0,0,0,66.88,65.56Z"/><rect class="cls-1" x="48.07" y="78.41" width="6" height="5.63"/><rect class="cls-1" x="55.07" y="78.41" width="6" height="5.63"/><path class="cls-1" d="M62.07,77.48h-7V73.73h-1v3.75h-7V73.73h7s-5,0-5-2.35A2.61,2.61,0,0,1,51.57,69c1.25,0,2.5,1.17,2.5,4.69v-.94h1v.94c0-3.52,1.25-4.69,2.5-4.69a2.61,2.61,0,0,1,2.5,2.34c0,2.35-5,2.35-5,2.35h7Z"/><ellipse class="cls-4" cx="51.73" cy="71.68" rx="1.16" ry="1.66" transform="translate(-33.74 94.26) rotate(-68.98)"/><ellipse class="cls-4" cx="57.42" cy="71.68" rx="1.66" ry="1.16" transform="translate(-21.89 25.37) rotate(-21.02)"/></g></g></svg>