<svg xmlns="http://www.w3.org/2000/svg" viewBox="0 0 110 124"><defs><style>.cls-1{fill:#ce0e2d;}.cls-2,.cls-5{font-size:9px;font-family:OpenSans, Open Sans;letter-spacing:0.01em;}.cls-2,.cls-4{fill:#fff;}.cls-3{font-size:11px;font-family:OpenSans-Bold, Open Sans;font-weight:700;letter-spacing:0.01em;}.cls-5,.cls-6{fill:#cf152d;}</style></defs><title>Asset 2</title><g id="Layer_2" data-name="Layer 2"><g id="Layer_1-2" data-name="Layer 1"><path class="cls-1" d="M110,60V11.76A11.75,11.75,0,0,0,98.24,0H11.76A11.75,11.75,0,0,0,0,11.76V60Z"/><polygon class="cls-1" points="0 62 0 58 110 58.01 110 62 0 62"/><text class="cls-2" transform="translate(30.55 36.18)">ACERCA DE<tspan class="cls-3"><tspan x="5.94" y="13.2">BÖRSE</tspan></tspan></text><path id="lion" class="cls-4" d="M61.31,23a2.26,2.26,0,0,1-.68-.92.78.78,0,0,0,.73,0c-.94-.24-1.07-1.57-1.07-1.57v0a9.69,9.69,0,0,1,.07-2.16,2.11,2.11,0,0,1,.82.77,3.5,3.5,0,0,0-1-2.75,2.48,2.48,0,0,1,1.2,1c-.2-3.51-1.31-5.49-2.19-6.52L59,10.72a1,1,0,0,1,.67.09,1.53,1.53,0,0,0-1.31-.87,1.53,1.53,0,0,0-.21-1.22.71.71,0,0,0-.55-.24c-.78,0-.74,1.26-.74,1.26a1.75,1.75,0,0,1,0-1.31h.26l1-2.14-2,.5-.07.29.36.12-.06.27-1,0-.07-.35L55.71,7l0-.21L54.3,5.87l-1.5.82V6.9l.39.1-.1.35-1,0,0-.28L52.45,7l-.05-.3L50.53,6l.64,2.26a6.78,6.78,0,0,1,1.42-.07,6,6,0,0,0-1.49.42,2.49,2.49,0,0,0-.22.23,4.37,4.37,0,0,0-.24.61A12.62,12.62,0,0,0,48,12.05a1,1,0,0,0-.1.31,3.49,3.49,0,0,0,.49.58,1,1,0,0,1,.55-.5,1.12,1.12,0,0,0-.33.74h0s0,1.09,1,1.14a1.22,1.22,0,0,0,.5-.05.79.79,0,0,0,.93.29.81.81,0,0,1-.4-.62,4.39,4.39,0,0,0,.37-.46c.32-.32,1.26-1.43,2.39-.71a1.52,1.52,0,0,1,.36.43,1.73,1.73,0,0,0-2,.85c-1,1.48-1.59,1.58-2.06,1.56a1.09,1.09,0,0,1-.94-1.23,1.35,1.35,0,0,0-.14,1.74c.74.89,2.41.31,3.21-1.13s1.51-1.61,2.12-1.33v0a1.62,1.62,0,0,1-.32,1.42c-.44.47-.84.44-1.15.62a1,1,0,0,1-.36-.68,1,1,0,0,0-.12,1,.76.76,0,0,0-.16.55A.81.81,0,0,0,52,17h0a1,1,0,0,1,.26,1.06,1.13,1.13,0,0,0,.62-.84s.11.15,0,.46a.81.81,0,0,0,.49-.66,2.46,2.46,0,0,0,1.06-1,2.15,2.15,0,0,1-.17.69,2.85,2.85,0,0,1-1.4,1.4,3.13,3.13,0,0,1-2.77,0,2.27,2.27,0,0,0,1.14,1.37,4.17,4.17,0,0,1-2.56.1,1.21,1.21,0,0,0,.88.57,9.41,9.41,0,0,1-3.37-.22,3.8,3.8,0,0,0,4.59,2.56,3.32,3.32,0,0,1-1.63,1.23,5.82,5.82,0,0,0,5.66-1.89,6.1,6.1,0,0,1-1.63,2.68c3.37.5,5-2.68,5-2.68.86,2.73,3.57,1.48,3.57,1.48A4,4,0,0,1,61.31,23ZM52.86,10.44a.3.3,0,0,1-.17.08,3.8,3.8,0,0,1-.82.08,3.91,3.91,0,0,1-.79-.07l-.17,0L53,9.77l0,.06v0h0S53.11,10.29,52.86,10.44Z"/><path class="cls-4" d="M59.32,4.64a3.79,3.79,0,0,0,1.23,1.41c3,.29,2.36,3.56,2.36,3.56a3.24,3.24,0,0,0-1.21-1.4,3.56,3.56,0,0,1-.57,4.07c.24-.9-.09-1.87-1.13-3.36a2.87,2.87,0,0,1-.35-2.84,3.49,3.49,0,0,1-1-1.55Z"/><path class="cls-4" d="M110,122V73.76A11.75,11.75,0,0,0,98.24,62H11.76A11.75,11.75,0,0,0,0,73.76V122Z"/><polygon class="cls-1" points="0 124 0 116 110 116.01 110 124 0 124"/><text class="cls-5" transform="translate(30.55 98.18)">ACERCA DE<tspan class="cls-3"><tspan x="5.94" y="13.2">BÖRSE</tspan></tspan></text><path id="lion-2" data-name="lion" class="cls-6" d="M61.31,85a2.26,2.26,0,0,1-.68-.92.78.78,0,0,0,.73,0c-.94-.24-1.07-1.57-1.07-1.57v0a9.69,9.69,0,0,1,.07-2.16,2.11,2.11,0,0,1,.82.77,3.5,3.5,0,0,0-1-2.75,2.48,2.48,0,0,1,1.2,1c-.2-3.51-1.31-5.49-2.19-6.52L59,72.72a1,1,0,0,1,.67.09,1.53,1.53,0,0,0-1.31-.87,1.53,1.53,0,0,0-.21-1.22.71.71,0,0,0-.55-.24c-.78,0-.74,1.26-.74,1.26a1.75,1.75,0,0,1,0-1.31h.26l1-2.14-2,.5-.07.29.36.12-.06.27-1,0-.07-.35.39-.07,0-.21-1.44-.94-1.5.82v.21l.39.1-.1.35-1,0,0-.28.37-.08-.05-.3L50.53,68l.64,2.26a6.78,6.78,0,0,1,1.42-.07,6,6,0,0,0-1.49.42,2.49,2.49,0,0,0-.22.23,4.37,4.37,0,0,0-.24.61A12.62,12.62,0,0,0,48,74.05a1,1,0,0,0-.1.31,3.49,3.49,0,0,0,.49.58,1,1,0,0,1,.55-.5,1.12,1.12,0,0,0-.33.74h0s0,1.09,1,1.14a1.22,1.22,0,0,0,.5,0,.79.79,0,0,0,.93.29.81.81,0,0,1-.4-.62,4.39,4.39,0,0,0,.37-.46c.32-.32,1.26-1.43,2.39-.71a1.52,1.52,0,0,1,.36.43,1.73,1.73,0,0,0-2,.85c-1,1.48-1.59,1.58-2.06,1.56a1.09,1.09,0,0,1-.94-1.23,1.35,1.35,0,0,0-.14,1.74c.74.89,2.41.31,3.21-1.13s1.51-1.61,2.12-1.33c0,0,0,0,0,0a1.62,1.62,0,0,1-.32,1.42c-.44.47-.84.44-1.15.62a1,1,0,0,1-.36-.68,1,1,0,0,0-.12,1,.76.76,0,0,0-.16.55A.81.81,0,0,0,52,79h0a1,1,0,0,1,.26,1.06,1.13,1.13,0,0,0,.62-.84s.11.15,0,.46a.81.81,0,0,0,.49-.66,2.46,2.46,0,0,0,1.06-1,2.15,2.15,0,0,1-.17.69,2.85,2.85,0,0,1-1.4,1.4,3.13,3.13,0,0,1-2.77,0,2.27,2.27,0,0,0,1.14,1.37,4.17,4.17,0,0,1-2.56.1,1.21,1.21,0,0,0,.88.57,9.41,9.41,0,0,1-3.37-.22,3.8,3.8,0,0,0,4.59,2.56,3.32,3.32,0,0,1-1.63,1.23,5.82,5.82,0,0,0,5.66-1.89,6.1,6.1,0,0,1-1.63,2.68c3.37.5,5-2.68,5-2.68.86,2.73,3.57,1.48,3.57,1.48A4,4,0,0,1,61.31,85ZM52.86,72.44a.3.3,0,0,1-.17.08,3.8,3.8,0,0,1-.82.08,3.91,3.91,0,0,1-.79-.07l-.17,0L53,71.77l0,.06v0h0S53.11,72.29,52.86,72.44Z"/><path class="cls-6" d="M59.32,66.64a3.79,3.79,0,0,0,1.23,1.41c3,.29,2.36,3.56,2.36,3.56a3.24,3.24,0,0,0-1.21-1.4,3.56,3.56,0,0,1-.57,4.07c.24-.9-.09-1.87-1.13-3.36a2.87,2.87,0,0,1-.35-2.84,3.49,3.49,0,0,1-1-1.55Z"/></g></g></svg>