<svg xmlns="http://www.w3.org/2000/svg" viewBox="0 0 325 210"><defs><style type="text/css">@import url('https://fonts.googleapis.com/css?family=Sintony:400,700');.cls-1{fill:#ce0e2d;}.cls-2{font-size:25.64px;font-family:Sintony-Bold, Sintony;font-weight:700;}.cls-2,.cls-4{fill:#fff;}.cls-3{fill:none;stroke:#fff;stroke-miterlimit:10;stroke-width:3px;}.cls-4{fill-rule:evenodd;}</style></defs><title>Asset 21</title><g id="Layer_2" data-name="Layer 2"><g id="Layer_1-2" data-name="Layer 1"><rect class="cls-1" width="325" height="210"/><text class="cls-2" transform="translate(89.4 151.6)">COMERCIOS</text><path class="cls-3" d="M189.45,60.82a4.43,4.43,0,0,0-2.29-2.67c-1.56-.78-3.35-.64-5-.64h-40.4a11.53,11.53,0,0,0-2,.12,5.25,5.25,0,0,0-3.18,1.57,6.14,6.14,0,0,0-1.35,4v43.74a5.59,5.59,0,0,0,1.55,4,6,6,0,0,0,4,1.33h43.76a6,6,0,0,0,3.89-1.32,5.49,5.49,0,0,0,1.53-4v-43A8.4,8.4,0,0,0,189.45,60.82Z"/><path class="cls-4" d="M178.07,81.3v20.47H157V84.45h-6.68v17.32H147V81.3ZM160.36,98.53h14.47V84.47H160.36Z"/><path class="cls-4" d="M167,76.84c-1.72,1.66-3,1.66-4.49,0a2.74,2.74,0,0,1-2.22,1.27,2.68,2.68,0,0,1-2.22-1.28,2.77,2.77,0,0,1-2.21,1.28,2.7,2.7,0,0,1-2.24-1.27,2.8,2.8,0,0,1-2.24,1.27,2.74,2.74,0,0,1-2.22-1.28,2.67,2.67,0,0,1-2.56,1.25c-1.34-.16-2.51-1.67-2.61-3.43a1.46,1.46,0,0,1,.12-.69c.87-1.87,1.77-3.73,2.63-5.61.19-.41.42-.38.7-.38h30.18a.71.71,0,0,1,.73.52c.82,1.79,1.68,3.54,2.49,5.34a2.24,2.24,0,0,1,.16,1.12c-.44,2.94-3,4.14-4.8,2.29l-.31-.35c-1.22,1.49-3,1.79-4.47,0a2.8,2.8,0,0,1-2.22,1.26A2.67,2.67,0,0,1,167,76.84Z"/></g></g></svg>