<svg xmlns="http://www.w3.org/2000/svg" viewBox="0 0 58.51 100"><defs><style>.cls-1{fill:#fff;}</style></defs><title>Asset 47</title><g id="Layer_2" data-name="Layer 2"><g id="Layer_1-2" data-name="Layer 1"><path class="cls-1" d="M8.31,6.05q7.24-6,20.81-6T50.6,8.18a26.83,26.83,0,0,1,7.91,19.28q0,11.1-7.38,18.35T32.05,56.52L30.58,71.14H19.42L18.22,50.4q12.09-3.72,17.29-9a16.81,16.81,0,0,0,5.18-12.16q0-6.92-3.12-11.37c-2.09-3-5.25-4.46-9.51-4.46q-11.7,0-12.77,11.7L0,23Q1.07,12.11,8.31,6.05ZM33.44,96.54a5.45,5.45,0,0,1-2.92,2.6,15.59,15.59,0,0,1-5.79.86,9.3,9.3,0,0,1-5.91-1.73,6.82,6.82,0,0,1-2.66-3.66A19.67,19.67,0,0,1,15.69,90,25.3,25.3,0,0,1,16,85.84,13,13,0,0,1,17,82.58c1.24-2.3,3.95-3.46,8.11-3.46,4.35,0,7.14,1.16,8.38,3.46a13.84,13.84,0,0,1,1.33,6,30.52,30.52,0,0,1-.26,4.72A12,12,0,0,1,33.44,96.54Z"/></g></g></svg>