<svg xmlns="http://www.w3.org/2000/svg" viewBox="0 0 240 240"><defs><style>.cls-1{fill:#cf152d;}</style></defs><title>gfx-aim</title><g id="Layer_2" data-name="Layer 2"><g id="Layer_1-2" data-name="Layer 1"><path class="cls-1" d="M240,112H223.61A103.89,103.89,0,0,0,128,16.4V0H112V16.4A103.89,103.89,0,0,0,16.39,112H0v16H16.39A103.87,103.87,0,0,0,112,223.59V240h16V223.59A103.87,103.87,0,0,0,223.61,128H240ZM128,207.6V160H112v47.6A88.07,88.07,0,0,1,32.41,128H80V112H32.41A88.06,88.06,0,0,1,112,32.41V80h16V32.41A88.1,88.1,0,0,1,207.61,112H160v16h47.62A88.12,88.12,0,0,1,128,207.6Z"/></g></g></svg>