<svg xmlns="http://www.w3.org/2000/svg" viewBox="0 0 236 236"><defs><style>.cls-1{fill:#ce0e2d;}</style></defs><title>gfx-info</title><g id="Layer_2" data-name="Layer 2"><g id="Layer_1-2" data-name="Layer 1"><path class="cls-1" d="M118,236A118,118,0,1,1,236,118,118.13,118.13,0,0,1,118,236Zm0-220A102,102,0,1,0,220,118,102.12,102.12,0,0,0,118,16Z"/><path class="cls-1" d="M118,72.53a14.8,14.8,0,0,1-14.8-14.77,14.69,14.69,0,0,1,29.37,0A14.69,14.69,0,0,1,118,72.53Z"/><polygon class="cls-1" points="90.71 192.84 90.71 178.95 107.5 178.95 107.5 106.54 90.5 106.54 90.5 92.66 128.69 92.66 128.69 178.95 145.5 178.95 145.5 192.84 90.71 192.84"/></g></g></svg>