<svg xmlns="http://www.w3.org/2000/svg" viewBox="0 0 25 25" style="enable-background:new 0 0 25 25"><g id="_x3C_Layer_x3E__24_"><path d="m24.8 1.5c-.2-.5-.5-1-1-1.2-.7-.4-1.6-.3-2.3-.3-6.2 0-12.3 0-18.5 0-.3 0-.6 0-.9.1-.6 0-1.1.3-1.5.7-.4.5-.6 1.1-.6 1.8 0 6.7 0 13.3 0 20 0 .7.2 1.3.7 1.8.5.4 1.2.6 1.8.6 6.7 0 13.3 0 20 0 .6 0 1.3-.2 1.8-.6.5-.5.7-1.2.7-1.8 0-6.5 0-13.1 0-19.6 0-.5 0-1-.2-1.5m-12.2 1.7c1 0 1.8.8 1.8 1.8 0 1-.8 1.8-1.8 1.8-1 0-1.8-.8-1.8-1.8 0-1 .8-1.8 1.8-1.8m3.3 16.8c0 .1 0 .2 0 .2 0 0 0 0-.2 0h-6.1c-.1 0-.2 0-.2 0 0 0 0 0 0-.2v-1.6c0-.1 0-.2 0-.2 0 0 0 0 .2 0h1.7v-7.6h-1.7c-.1 0-.2 0-.2 0 0 0 0 0 0-.2v-1.5c0-.1 0-.2 0-.2 0 0 0 0 .2 0h4.2c.1 0 .2 0 .2 0 0 0 0 0 0 .2v9.4h1.7c.1 0 .2 0 .2 0 0 0 0 0 0 .2v1.5" style="fill:#cf0a2c"/></g></svg>