<svg xmlns="http://www.w3.org/2000/svg" viewBox="0 0 25 25" style="enable-background:new 0 0 25 25"><path d="m24.8 1.5c-.2-.5-.5-1-1-1.2-.8-.4-1.6-.3-2.4-.3-6.1 0-12.2 0-18.4 0-.3 0-.6 0-.9.1-.5 0-1.1.3-1.5.7-.4.5-.5 1.1-.6 1.8 0 6.7 0 13.3 0 20 0 .7.2 1.3.7 1.8.5.4 1.2.6 1.8.6 6.6 0 13.3 0 19.9 0 .6 0 1.3-.2 1.8-.6.5-.5.7-1.2.7-1.8 0-6.5 0-13.1 0-19.6.1-.5 0-1-.1-1.5m-4.8 21.5h-15v-12.7h1.4v-2c0-3.5 2.7-6.3 6.1-6.3s6.1 2.8 6.1 6.3v2h1.4v12.7" style="fill:#cf0a2c"/><path d="m14.4 15.5c0-.8-.7-1.5-1.5-1.5-.8 0-1.5.7-1.5 1.5 0 .6.3 1 .8 1.3l-.8 4.2h3l-.8-4.2c.5-.3.8-.8.8-1.3" style="fill:#cf0a2c"/><path d="M12.5,4C10.6,4,9,5.8,9,7.9V10h7V7.9C16,5.8,14.4,4,12.5,4z" style="fill:#cf0a2c"/></svg>