<svg xmlns="http://www.w3.org/2000/svg" viewBox="0 0 25 25"><defs><style>.cls-1{fill:#ce0e2d;}</style></defs><title>ico-check-mark</title><g id="Layer_2" data-name="Layer 2"><g id="Layer_1-2" data-name="Layer 1"><path id="checkmark" class="cls-1" d="M24.82,1.52A2,2,0,0,0,23.77.3a5.12,5.12,0,0,0-2.3-.3H3a5.81,5.81,0,0,0-.93.06A2.37,2.37,0,0,0,.62.78,2.82,2.82,0,0,0,0,2.59v20a2.52,2.52,0,0,0,.71,1.81A2.76,2.76,0,0,0,2.52,25h20a2.68,2.68,0,0,0,1.77-.6,2.49,2.49,0,0,0,.7-1.82q0-9.81,0-19.64A3.77,3.77,0,0,0,24.82,1.52ZM9,22.17c-.34-.34-5.76-7.89-5.76-7.89l.22-1.73,4.68,4.52S18.54,3.92,21.78,3.83C19.11,5.17,9.93,20.45,9,22.17Z"/></g></g></svg>