<svg xmlns="http://www.w3.org/2000/svg" viewBox="0 0 297.46 180"><defs><style type="text/css">@import url('https://fonts.googleapis.com/css?family=Sintony:400,700');.cls-1{fill:#fff;}.cls-2{fill:#ce0e2d;}.cls-3{font-size:14px;}.cls-3,.cls-6,.cls-7{fill:#6d6e71;}.cls-3,.cls-4,.cls-7{font-family:Sintony, Sintony;}.cls-4{font-size:22.45px;fill:#58595b;letter-spacing:0.01em;}.cls-5{letter-spacing:0.03em;}.cls-6{font-size:32px;font-family:Sintony-Bold, Sintony;font-weight:700;}.cls-7{font-size:12.63px;}</style></defs><title>info-volumen-cajas-almohada</title><g id="Layer_2" data-name="Layer 2"><g id="Layer_1-2" data-name="Layer 1"><rect class="cls-1" width="297.46" height="180"/><g id="ico-papel-reciclado"><path class="cls-2" d="M102.68,42.49a4.58,4.58,0,0,0-2.35-2.73c-1.59-.8-3.42-.66-5.15-.66H53.81a11.23,11.23,0,0,0-2.09.12,5.37,5.37,0,0,0-3.25,1.61,6.31,6.31,0,0,0-1.38,4.07V89.67a5.67,5.67,0,0,0,1.58,4,6.18,6.18,0,0,0,4.06,1.37h44.8a6.15,6.15,0,0,0,4-1.35,5.63,5.63,0,0,0,1.56-4.07q0-22,0-44A8.59,8.59,0,0,0,102.68,42.49Z"/></g><path class="cls-1" d="M59.83,82.22c.41-1.23,1.45-5.36-.13-12.46-1.38-6.26-4.24-8.25-5.5-8.84l33-8.74C86.6,60.57,94.52,69.77,96,71.35Z"/><text class="cls-3" transform="translate(177.52 142.97)">UNIDADES</text><text class="cls-4" transform="translate(185.33 58.71)">Cajas<tspan class="cls-5"><tspan x="-55.32" y="26.94">Almohada</tspan></tspan></text><text class="cls-6" transform="translate(155.57 121.49)">2,000</text><text class="cls-7" transform="translate(52.57 114.2)">PEDIDO<tspan x="-1.6" y="15.71">MÍNIMO</tspan></text></g></g></svg>