<svg xmlns="http://www.w3.org/2000/svg" viewBox="0 0 297.46 180"><defs><style type="text/css">@import url('https://fonts.googleapis.com/css?family=Sintony:400,700');.cls-1{fill:#fff;}.cls-2{fill:#ce0e2d;}.cls-3{font-size:12.63px;}.cls-3,.cls-4,.cls-7{fill:#6d6e71;}.cls-3,.cls-4,.cls-5{font-family:Sintony, Sintony;}.cls-4{font-size:14px;}.cls-5{font-size:22.45px;fill:#58595b;letter-spacing:0.01em;}.cls-6{letter-spacing:0.03em;}.cls-7{font-size:32px;font-family:Sintony-Bold, Sintony;font-weight:700;}</style></defs><title>info-volumen-plastico</title><g id="Layer_2" data-name="Layer 2"><g id="Layer_1-2" data-name="Layer 1"><rect class="cls-1" width="297.46" height="180"/><path class="cls-2" d="M74.53,72.17a6,6,0,0,1-2.48-4.58s1.23,0,1.85,0c-1.43-1.44-2.89-2.8-4.34-4.19-1.44,1.44-2.91,2.75-4.34,4.2.61,0,1.22,0,1.84,0,0,1.41,1.54,6.45,5.47,7.41s8.53-2.35,8.53-2.35S77,73.85,74.53,72.17Z"/><path class="cls-2" d="M77.65,59.13c-3.93-1-8.53,2.35-8.53,2.35s4.06-1.15,6.53.53a6,6,0,0,1,2.49,4.57s-1.24,0-1.85,0c1.42,1.42,2.89,2.78,4.33,4.17C82.06,69.29,83.54,68,85,66.53c-.62,0-1.23,0-1.85,0C83.15,65.13,81.59,60.09,77.65,59.13Z"/><path class="cls-2" d="M102.68,42.49a4.53,4.53,0,0,0-2.34-2.73c-1.6-.8-3.43-.66-5.16-.66H53.81a11.23,11.23,0,0,0-2.09.12,5.37,5.37,0,0,0-3.25,1.61,6.31,6.31,0,0,0-1.38,4.07V89.67a5.7,5.7,0,0,0,1.59,4,6.16,6.16,0,0,0,4,1.37h44.8a6.13,6.13,0,0,0,4-1.35,5.68,5.68,0,0,0,1.57-4.07v-44A8.6,8.6,0,0,0,102.68,42.49Z"/><path class="cls-1" d="M59.27,52.62V74.27a6.82,6.82,0,0,0,6.81,6.81c3.38,0,6.42-1.11,9.36-2.18a28.48,28.48,0,0,1,7.62-2V87.32a1,1,0,0,0,1,1.05,6.82,6.82,0,0,0,6.81-6.81V59.91A6.82,6.82,0,0,0,84.1,53.1c-3.39,0-6.43,1.11-9.37,2.18-1,.36-2,.71-2.94,1a6.74,6.74,0,0,0,1.09-3.68,6.81,6.81,0,1,0-13.61,0ZM88.82,81.56a4.74,4.74,0,0,1-3.67,4.6V66.63a6.74,6.74,0,0,0,3.67-1.82ZM84.1,55.19a4.72,4.72,0,1,1,0,9.43,1,1,0,0,0-1,1v9.12a30.1,30.1,0,0,0-8.33,2.14C71.83,78,69.1,79,66.08,79a4.72,4.72,0,0,1-4.72-4.72V57.52a6.79,6.79,0,0,0,4.72,1.9c3.38,0,6.42-1.1,9.36-2.17S81.07,55.19,84.1,55.19ZM70.79,52.62a4.72,4.72,0,1,1-4.71-4.72A4.71,4.71,0,0,1,70.79,52.62Zm-7,0a2.24,2.24,0,1,0,2.24-2.24A2.23,2.23,0,0,0,63.84,52.62Z"/><text class="cls-3" transform="translate(52.57 114.2)">PEDIDO<tspan x="-1.6" y="15.71">MÍNIMO</tspan></text><text class="cls-4" transform="translate(176.57 146.54)">UNIDADES</text><text class="cls-5" transform="translate(139.08 58.15)">Bolsas de <tspan class="cls-6"><tspan x="17.13" y="26.94">Plástico</tspan></tspan></text><text class="cls-7" transform="translate(155.57 120.93)">5,000</text></g></g></svg>