<svg xmlns="http://www.w3.org/2000/svg" viewBox="0 0 297.46 180"><defs><style type="text/css">@import url('https://fonts.googleapis.com/css?family=Sintony:400,700');.cls-1{fill:#fff;}.cls-2{fill:#ce0e2d;}.cls-3{fill:none;stroke:#fff;stroke-miterlimit:10;fill-rule:evenodd;}.cls-4{font-size:14px;}.cls-4,.cls-8,.cls-9{fill:#6d6e71;}.cls-4,.cls-5,.cls-9{font-family:Sintony, Sintony;}.cls-5{font-size:22.45px;fill:#58595b;letter-spacing:0.01em;}.cls-6{letter-spacing:-0.03em;}.cls-7{letter-spacing:0.02em;}.cls-8{font-size:32px;font-family:Sintony-Bold, Sintony;font-weight:700;}.cls-9{font-size:12.63px;}</style></defs><title>info-volumen-tela</title><g id="Layer_2" data-name="Layer 2"><g id="Layer_1-2" data-name="Layer 1"><rect class="cls-1" width="297.46" height="180"/><g id="ico-tela"><path class="cls-2" d="M102.68,42.49a4.53,4.53,0,0,0-2.34-2.73c-1.6-.8-3.43-.66-5.16-.66H53.81a12.16,12.16,0,0,0-2.09.12,5.37,5.37,0,0,0-3.25,1.61,6.31,6.31,0,0,0-1.38,4.07V89.68a5.67,5.67,0,0,0,1.59,4,6.1,6.1,0,0,0,4,1.37h44.8a6.08,6.08,0,0,0,4-1.35,5.68,5.68,0,0,0,1.57-4.07v-44A8.6,8.6,0,0,0,102.68,42.49Z"/></g><path class="cls-3" d="M55.38,76.1V73.32c.07-.37.12-.75.21-1.13a7.69,7.69,0,0,1,1.58-3.12c1-1.26,9.78-11.58,13.22-15.43a5.08,5.08,0,0,1,1-.83,6.8,6.8,0,0,1,3.84-1.05H88.94a2.83,2.83,0,0,1,2.72,2.57,21.3,21.3,0,0,1,0,3.83,5.19,5.19,0,0,1-1.53,3L76.9,76a3.33,3.33,0,0,1-2.5,1.25c-3.8,0-7.59,0-11.39,0a1.69,1.69,0,0,1,0-3.36c.26,0,7.65,0,11.09,0a.93.93,0,0,0,1-.84,5.35,5.35,0,0,0,0-1.2,1.53,1.53,0,0,0-1-1.35c-.33-.1-12.68,0-13,0a3.29,3.29,0,0,0-2.64,3c0,.58-.06,1.82,0,2.41.1,2.77,1.31,3.75,3.32,3.74,5.13,0,10.27,0,15.4,0a.79.79,0,0,0,.67-.32c4.72-5.32,14.47-16.92,14.64-17.05a1.3,1.3,0,0,1,1.42-.19,1.84,1.84,0,0,1,1,1.4v.35c-.15.64-10.54,12.33-15.33,17.74a2.16,2.16,0,0,1-1.71.81c-5,0-16.23,0-16.78,0-2.73-.15-4.76-2.09-5.37-5.09C55.53,76.91,55.45,76.5,55.38,76.1Z"/><text class="cls-4" transform="translate(176.68 142.56)">UNIDADES</text><text class="cls-5" transform="translate(139.08 58.72)">Bolsas de <tspan class="cls-6"><tspan x="62.16" y="26.94">T</tspan><tspan class="cls-7" x="72.47" y="26.94">ela</tspan></tspan></text><text class="cls-8" transform="translate(155.57 121.49)">2,000</text><text class="cls-9" transform="translate(52.57 114.2)">PEDIDO<tspan x="-1.6" y="15.71">MÍNIMO</tspan></text></g></g></svg>