<svg xmlns="http://www.w3.org/2000/svg" viewBox="0 0 325 210"><defs><style type="text/css">@import url('https://fonts.googleapis.com/css?family=Sintony:400,700');.cls-1{fill:#ce0e2d;}.cls-2{font-size:25.64px;font-family:Sintony-Bold, Sintony;font-weight:700;}.cls-2,.cls-5{fill:#fff;}.cls-3{letter-spacing:-0.06em;}.cls-4{fill:none;stroke:#fff;stroke-miterlimit:10;stroke-width:3px;}</style></defs><title>Asset 19</title><g id="Layer_2" data-name="Layer 2"><g id="Layer_1-2" data-name="Layer 1"><rect class="cls-1" width="325" height="210"/><text class="cls-2" transform="translate(126.42 151.6)"><tspan class="cls-3">P</tspan><tspan x="13.64" y="0">APEL</tspan></text><g id="ico-papel-reciclado"><path class="cls-4" d="M189.46,60.82a4.51,4.51,0,0,0-2.3-2.67c-1.56-.78-3.34-.64-5-.64h-40.4a11.53,11.53,0,0,0-2,.12,5.2,5.2,0,0,0-3.18,1.57,6.14,6.14,0,0,0-1.35,4v43.74a5.55,5.55,0,0,0,1.55,4,6,6,0,0,0,4,1.34h43.77a6,6,0,0,0,3.88-1.32,5.53,5.53,0,0,0,1.53-4v-43A8.61,8.61,0,0,0,189.46,60.82Z"/></g><path class="cls-5" d="M178,75.29l-9.77-9.77a1.22,1.22,0,0,0-.86-.36H147.87a1.22,1.22,0,0,0-1.22,1.23v36.93a1.22,1.22,0,0,0,1.22,1.22h29.26a1.22,1.22,0,0,0,1.22-1.22V76.16A1.19,1.19,0,0,0,178,75.29Zm-2.09,26.8H149.1V67.61h17v8.55a1.23,1.23,0,0,0,1.23,1.22h8.54Z"/></g></g></svg>