<?xml version="1.0" encoding="UTF-8" standalone="no"?>
<!DOCTYPE svg PUBLIC "-//W3C//DTD SVG 1.1//EN"
"http://www.w3.org/Graphics/SVG/1.1/DTD/svg11.dtd">
<svg viewBox="0 0 1130 1086" version="1.1" xmlns="http://www.w3.org/2000/svg" xmlns:xlink="http://www.w3.org/1999/xlink">
<defs>
<clipPath id="c0_2"><path d="M0,1086.3V0H1130.6V1086.3Z" /></clipPath>
<style type="text/css"><![CDATA[
.g0_2{
fill: none;
stroke: #CF102D;
stroke-width: 1.492639;
stroke-linecap: butt;
stroke-linejoin: miter;
}
.g1_2{
fill: #4D4D4D;
}
.g2_2{
fill: #333333;
}
.g3_2{
fill: #CF102D;
}
.g4_2{
fill: #FFFFFF;
}
.g5_2{
fill: #231F20;
}
]]></style>
</defs>
<path d="M61.1,229.2H1069.4" class="g0_2" />
<image preserveAspectRatio="none" x="581" y="102" width="493" height="94" style="mix-blend-mode: multiply;" xlink:href="img/1.png" />
<path d="M206.7,165.7V161h-4.4v4.7h-1.6V154.9h1.6v4.6h4.4v-4.6h1.6v10.8Z" class="g1_2" />
<path d="M221.6,161l-1.4,-4.1l-1.4,4.1Zm1.7,4.7l-1.2,-3.2h-3.8l-1.2,3.2h-1.7l4.1,-10.8h1.4l4.1,10.8Z" class="g1_2" />
<path d="M239,165.7l-5.3,-8.4v8.4h-1.6V154.9h1.7l5.3,8.2v-8.2h1.6v10.8Z" class="g1_2" />
<path d="M250.1,164.2H252c1.9,0,4,-.9,4,-3.9c0,-1.6,-1,-4,-4,-4h-1.9Zm-1.6,-9.3H252c2.3,0,3.6,.8,4.4,2c.8,1,1.1,2.3,1.1,3.4c0,1.5,-.5,3,-1.3,3.8c-1.2,1.2,-2.7,1.6,-4.2,1.6h-3.5Z" class="g1_2" />
<path d="M266.8,164.2h1.7c1.6,0,1.9,-1.1,1.9,-1.7c0,-.4,-.1,-.7,-.4,-1c-.4,-.7,-1.2,-.7,-1.7,-.7h-1.5Zm0,-4.8H268c1.5,0,1.8,-.9,1.8,-1.5c0,-1.6,-1.5,-1.6,-1.8,-1.6h-1.2Zm-1.6,-4.5H268c3,0,3.4,2.2,3.4,3c0,1.2,-.6,1.7,-1,2c.4,.3,1.6,1,1.6,2.6c0,1.1,-.6,3.2,-3.6,3.2h-3.2Z" class="g1_2" />
<path d="M280.9,160.4H282c.6,0,3,0,3,-2.1c0,-.9,-.7,-2,-2.4,-2h-1.7Zm3.6,5.3l-3.6,-5v5h-1.6V154.9h3.4c1.5,0,2.3,.3,2.8,.9c.7,.6,1,1.6,1,2.5c0,2.9,-2.4,3.3,-3.1,3.3l3.1,4.1Z" class="g1_2" />
<path d="M299.2,161l-1.3,-4.1l-1.4,4.1Zm1.8,4.7l-1.2,-3.2h-3.9l-1.2,3.2h-1.6l4.1,-10.8h1.4l4.1,10.8Z" class="g1_2" />
<path d="M316.7,165.7l-5.3,-8.4h-.1v8.4h-1.5V154.9h1.7l5.2,8.2h.1v-8.2h1.5v10.8Z" class="g1_2" />
<path d="M327.8,164.2h1.9c1.8,0,3.9,-.9,3.9,-3.9c0,-1.6,-1,-4,-3.9,-4h-1.9Zm-1.6,-9.3h3.5c2.2,0,3.6,.8,4.4,2c.8,1,1.1,2.3,1.1,3.4c0,1.5,-.5,3,-1.4,3.8c-1.2,1.2,-2.6,1.6,-4.2,1.6h-3.4Z" class="g1_2" />
<path d="M342.8,154.9h1.6v10.8h-1.6V154.9Z" class="g1_2" />
<path d="M359.4,165.7L354,157.3v8.4h-1.6V154.9h1.7l5.3,8.2v-8.2H361v10.8Z" class="g1_2" />
<path d="M377,157.6c-.5,-.5,-1.4,-1.5,-3,-1.5c-2.2,0,-4,1.9,-4,4.2c0,2.4,2,4.1,4.1,4.1c.3,0,2.6,0,3.7,-2.7h-5.1v-1.4h6.9c-.1,3.6,-3,5.6,-5.6,5.6c-3.2,0,-5.5,-2.6,-5.5,-5.6c0,-3.1,2.4,-5.6,5.5,-5.6c1.8,0,3.8,1,4.8,2.9Z" class="g1_2" />
<path d="M244.8,75.8h5.4c.3,0,.6,-.1,.8,-.3c.2,-.2,.4,-.5,.4,-.8V70.8c0,-.3,-.2,-.6,-.4,-.8c-.2,-.2,-.5,-.4,-.8,-.4h-5.4c-.3,0,-.6,.2,-.8,.4c-.2,.2,-.4,.5,-.4,.8v3.9c0,.3,.2,.6,.4,.8c.2,.2,.5,.3,.8,.3m13.3,0h5.4c.3,0,.6,-.1,.8,-.3c.2,-.2,.4,-.5,.4,-.8V70.8c0,-.3,-.2,-.6,-.4,-.8c-.2,-.2,-.5,-.4,-.8,-.4h-5.4c-.3,0,-.6,.2,-.8,.4c-.2,.2,-.4,.5,-.4,.8v3.9c0,.3,.2,.6,.4,.8c.2,.2,.5,.3,.8,.3m40.2,30.4c-1.4,1.9,-3.3,2.8,-6.2,2.8h-8.3V94.4c0,-3.4,.8,-5.8,2.2,-7.3c1.3,-1.5,3.3,-2.3,6.1,-2.3c2.9,0,4.8,.9,6.2,2.8c1.4,1.9,2.2,5,2.2,9.3c0,4.3,-.8,7.4,-2.2,9.3m9.9,-9.3c0,-5.6,-1.3,-9.9,-4,-12.9c-2.8,-3,-6.9,-4.4,-12.1,-4.4c-3.3,0,-6.1,.7,-8.3,2v-.9c0,-.3,-.2,-.6,-.4,-.8c-.2,-.2,-.5,-.3,-.8,-.3h-5.4c-.3,0,-.6,.1,-.8,.3c-.3,.2,-.4,.5,-.4,.8v48.8c0,.3,.1,.6,.4,.8c.2,.2,.5,.3,.8,.3h5.4c.3,0,.6,-.1,.8,-.3c.2,-.2,.4,-.5,.4,-.8V114.2h8.3c2.9,0,4.8,.9,6.2,2.8c1.4,2,2.2,5.1,2.2,9.4v3.1c0,.3,.1,.6,.3,.8c.2,.2,.5,.3,.8,.3h5.5c.3,0,.5,-.1,.8,-.3c.2,-.2,.3,-.5,.3,-.8v-3.1c0,-6.9,-2,-12,-6.2,-14.8c4.2,-2.8,6.2,-7.9,6.2,-14.7m-45.5,18.4c0,3.6,-.7,6.2,-2.1,7.8c-1.3,1.5,-3.2,2.4,-6.2,2.4c-2.9,0,-4.9,-.9,-6.3,-2.4c-1.3,-1.6,-2.1,-4.2,-2.1,-7.8V94.9c0,-3.6,.8,-6.1,2.1,-7.7c1.4,-1.6,3.4,-2.4,6.3,-2.4c3,0,4.9,.8,6.2,2.4c1.4,1.6,2.1,4.1,2.1,7.7ZM254.4,79.6c-5.1,0,-9.2,1.2,-12,3.9c-2.8,2.6,-4.1,6.5,-4.1,11.4v20.4c0,4.9,1.3,8.8,4.1,11.5c2.8,2.6,6.9,3.8,12,3.8c5.2,0,9.2,-1.2,12,-3.8c2.8,-2.7,4.1,-6.6,4.1,-11.5V94.9c0,-4.9,-1.3,-8.8,-4.1,-11.4c-2.8,-2.7,-6.8,-3.9,-12,-3.9m124.2,5.2c.3,0,.6,-.2,.8,-.4c.2,-.2,.3,-.5,.3,-.8V80.7c0,-.3,-.1,-.6,-.3,-.8c-.2,-.2,-.5,-.3,-.8,-.3h-26c-.3,0,-.6,.1,-.8,.3c-.2,.2,-.3,.5,-.3,.8v48.8c0,.3,.1,.6,.3,.8c.2,.2,.5,.3,.8,.3h26c.3,0,.6,-.1,.8,-.3c.2,-.2,.3,-.5,.3,-.8v-2.9c0,-.3,-.1,-.6,-.3,-.8c-.2,-.2,-.5,-.3,-.8,-.3H359.2v-18h17c.3,0,.6,-.1,.8,-.3c.2,-.2,.4,-.5,.4,-.8v-2.9c0,-.3,-.2,-.6,-.4,-.8c-.2,-.2,-.5,-.4,-.8,-.4h-17V84.8Zm-48.7,0c3,0,5,.6,6.3,1.7c1.3,1.1,2,2.8,2,5.3c0,.3,.1,.6,.3,.8c.2,.2,.5,.3,.8,.3h5.5c.3,0,.6,-.1,.8,-.3c.2,-.2,.3,-.5,.3,-.8c0,-3.9,-1.4,-7.2,-4.2,-9.2c-2.8,-2.1,-6.7,-3,-11.8,-3c-5.2,0,-9.2,1,-12,3.1c-2.8,2.1,-4.2,5.4,-4.1,9.5c0,6.1,4.9,11.1,13.9,15c7.3,3.3,10.5,7,10.5,10.9c0,2.6,-.7,4.4,-2,5.5c-1.3,1.2,-3.3,1.9,-6.3,1.9c-3,0,-5.1,-.7,-6.4,-1.8c-1.3,-1.1,-2,-2.7,-2,-5.2c0,-.3,-.1,-.6,-.3,-.8c-.3,-.2,-.5,-.4,-.8,-.4h-5.5c-.3,0,-.6,.2,-.8,.4c-.2,.2,-.3,.5,-.3,.8c-.1,3.9,1.3,7.1,4.2,9.1c2.8,2.1,6.7,3,11.9,3c5.1,0,9.1,-.9,11.8,-3.1c2.8,-2.1,4.2,-5.4,4.2,-9.4c0,-6.2,-4.9,-11.2,-13.9,-15.2C324.7,99.6,321.5,96,321.5,92.2c0,-2.7,.7,-4.4,2,-5.6c1.3,-1.2,3.4,-1.8,6.4,-1.8m-107,38.5c-1.3,1.4,-3.2,2.2,-6.2,2.2h-8.4v-18h8.4c3,0,4.9,.8,6.2,2.2c1.4,1.3,2.1,3.5,2.1,6.7c0,3.3,-.7,5.5,-2.1,6.9M208.3,94.4c.1,-3.4,.9,-5.9,2.1,-7.4c1.3,-1.4,3.1,-2.2,5.9,-2.2c2.2,0,3.6,.7,4.7,2c1,1.3,1.6,3.6,1.6,6.8c0,3.1,-.8,5.2,-2.1,6.6c-1.3,1.4,-3.3,2.1,-6.2,2.1h-6Zm17.7,9.8c2.9,-2.4,4.4,-6.1,4.4,-10.6c0,-4.5,-1.1,-8,-3.6,-10.5c-2.4,-2.4,-6,-3.5,-10.5,-3.5c-3.1,0,-5.8,.6,-8,2v-.9c0,-.3,-.1,-.6,-.3,-.8c-.2,-.2,-.5,-.3,-.8,-.3h-5.5c-.3,0,-.6,.1,-.8,.3c-.2,.2,-.3,.5,-.3,.8v48.8c0,.3,.1,.6,.3,.8c.2,.2,.5,.3,.8,.3h15c5.1,0,9.1,-1.1,11.9,-3.5c2.8,-2.4,4.1,-6.1,4.1,-10.7c.1,-5.7,-2.2,-10,-6.7,-12.2Z" class="g2_2" />
<path d="M183.8,74.1C183.3,66.5,181.5,59.3,172,56.3C159.8,53.1,139.1,50,123.6,49.9h-1.3C106.8,50,86.2,53.1,74,56.3c-9.6,3,-11.3,10.2,-11.8,17.8c0,0,-2.4,46.5,0,93.5c0,0,-.3,6.2,4.6,10.7c0,0,8,8.4,54,17.1c0,0,.9,.1,2.2,.2c1.3,-.1,2.2,-.2,2.2,-.2c46,-8.7,54,-17.1,54,-17.1h-.1c5,-4.5,4.7,-10.7,4.7,-10.7c2.4,-47,0,-93.5,0,-93.5Z" class="g3_2" />
<path d="M111.5,91.2c-.2,.2,-.6,.4,-1.1,.5c-1.8,.4,-3.7,.5,-5.4,.5c-2.5,0,-4.5,-.2,-5.3,-.4l-1.1,-.3l13.7,-4.8l.1,.4c0,0,0,.1,0,.2l.2,-.1c0,0,.6,3,-1.1,4m56.2,83.4c-2,-1.6,-3.5,-3.7,-4.5,-6.1c2.9,1.4,4.8,.2,4.8,.2c-6.2,-1.6,-7.1,-10.4,-7.1,-10.4v.2c-.7,-7.5,.4,-14.4,.4,-14.4c3.2,1.4,5.5,5.2,5.5,5.2c-.4,-13.7,-6.6,-18.2,-6.6,-18.2c5.1,1.7,7.9,6.6,7.9,6.6c-1.3,-23.3,-8.7,-36.4,-14.6,-43.2c-.3,-.5,-.6,-1,-.9,-1.5c2,-.7,4.4,.6,4.4,.6c-2.4,-4.5,-6.1,-5.6,-8.6,-5.7c.6,-2,.2,-6.6,-1.4,-8.1c-1.1,-1.2,-2.4,-1.6,-3.7,-1.6c-5.2,.3,-4.9,8.3,-4.9,8.3c-2,-4.5,-.1,-8.6,-.1,-8.6L140,78l6.4,-14.2l-13,3.3l-.6,1.9l2.5,.8l-.4,1.8l-6.6,-.3L127.9,69l2.6,-.5l.2,-1.4l-9.6,-6.2l-10,5.4l.1,1.5l2.6,.6l-.7,2.3l-6.5,-.3l-.3,-1.8l2.5,-.6l-.3,-1.9L96.1,61.8l4.2,15c2.2,-.3,6,-.7,9.4,-.5c0,0,-6.3,.9,-9.9,2.8c-.4,.4,-.9,.9,-1.4,1.6c-.9,1.6,-1.6,4,-1.6,4c0,0,-8.1,5.4,-17.4,17.2c-.3,.6,-.6,1.5,-.7,2c.9,1.3,2.3,2.8,3.3,3.8c.5,-1.1,1.5,-2.4,3.7,-3.3c0,0,-1.9,1.5,-2.2,4.9v.1c0,0,-.3,7.1,6.3,7.4c1.7,.1,2.3,.1,3.3,-.3c0,0,2.6,3.6,6.2,2c0,0,-2.6,-1.6,-2.6,-4.2c1.2,-1,1.5,-2.1,2.4,-3c2.1,-2.1,8.4,-9.4,15.9,-4.7c0,0,1.3,1,2.4,2.9c-2.8,-.9,-8.5,-1.5,-13.5,5.6c-6.8,9.8,-10.5,10.4,-13.6,10.3c-4.8,-.2,-6.7,-5.2,-6.3,-8.1c0,0,-5.6,5.9,-.9,11.5c4.9,5.9,16,2.1,21.3,-7.5c5.1,-9.1,10.1,-10.6,14.1,-8.8c0,.1,.1,.2,.1,.2c0,0,1.5,5.2,-2.1,9.4c-3,3.1,-5.6,2.9,-7.7,4.1c-2.1,-1.1,-2.4,-4.5,-2.4,-4.5c-2.1,2.9,-1.2,5.7,-.8,6.6c-.7,.9,-1.1,2,-1,3.7c.2,1.1,.7,2,1.3,2.6c0,0,3.4,3.1,1.7,7.1c0,0,3.2,-1.3,4.2,-5.6c0,0,.7,1,-.2,3c0,0,2.6,-.8,3.2,-4.3c2.2,-1.2,5.3,-3.3,7.1,-7c0,0,-.1,2,-1.1,4.6c-1.6,3,-4.1,7,-9.3,9.3c-10.8,4.7,-18.5,.2,-18.5,.2c.9,5.2,6.9,8.6,7.7,9c-2,.7,-9.8,3.2,-17.1,.7c0,0,1.4,2.8,5.8,3.8C78.6,157,67.1,153.9,67.1,153.9c7.6,22.8,30.5,17,30.5,17C93.2,177.2,86.8,179,86.8,179c22.8,5.7,37.5,-12.5,37.5,-12.5c-3.3,11.3,-10.8,17.7,-10.8,17.7c22.4,3.4,33.5,-17.7,33.5,-17.7c5.7,18,23.8,9.8,23.8,9.8c-1.2,-.6,-2.2,-1.1,-3.1,-1.7Z" class="g4_2" />
<path d="M156.7,62.2c0,0,-4.6,9,2.4,18.9c6.9,9.9,9.1,16.3,7.5,22.3c0,0,11.6,-11.5,3.8,-27c0,0,5.3,3.1,8,9.2c0,0,4.2,-21.6,-15.7,-23.5c0,0,-5.4,-3.5,-8.2,-9.4c-1.5,-.2,-3.1,-.5,-4.7,-.7c2.1,6.5,6.9,10.2,6.9,10.2Z" class="g4_2" />
<path d="M192.9,56.9h.5c.7,0,1.1,0,1.3,-.1c.2,-.1,.3,-.1,.4,-.3c.1,-.1,.1,-.3,.1,-.4c0,-.2,0,-.4,-.1,-.5c-.1,-.1,-.2,-.2,-.4,-.3c-.2,0,-.6,-.1,-1.3,-.1h-.5Zm-1.2,3.4v-6h1.2c1.1,0,1.8,0,1.9,0c.4,0,.7,.1,1,.2c.2,.2,.4,.4,.5,.6c.2,.3,.2,.6,.2,.9c0,.4,-.1,.8,-.4,1.1c-.3,.3,-.7,.5,-1.2,.6c.2,0,.3,.1,.4,.2c.1,.1,.3,.2,.5,.5c0,0,.1,.3,.4,.7l.7,1.2h-1.5l-.5,-1c-.3,-.6,-.6,-1,-.9,-1.2c-.2,-.2,-.4,-.3,-.8,-.3h-.3v2.5Z" class="g5_2" />
<path d="M194,52.3c-2.6,0,-4.8,2.2,-4.8,5c0,2.7,2.2,5,4.8,5c2.7,0,4.9,-2.3,4.9,-5c0,-2.8,-2.2,-5,-4.9,-5m5.7,5c0,3.2,-2.5,5.8,-5.7,5.8c-3.1,0,-5.6,-2.6,-5.6,-5.8c0,-3.2,2.5,-5.8,5.6,-5.8c3.2,0,5.7,2.6,5.7,5.8Z" class="g5_2" />
<path d="M390.4,78.1h.5c.7,0,1.1,-.1,1.3,-.1c.1,-.1,.3,-.2,.4,-.3c.1,-.1,.1,-.3,.1,-.5c0,-.1,0,-.3,-.1,-.4c-.1,-.2,-.2,-.2,-.4,-.3c-.2,-.1,-.6,-.1,-1.3,-.1h-.5Zm-1.2,3.4v-6h1.2c1.1,0,1.8,0,1.9,0c.4,0,.7,.1,.9,.2c.3,.1,.4,.3,.6,.6c.2,.3,.2,.5,.2,.8c0,.5,-.1,.9,-.4,1.2c-.3,.3,-.7,.5,-1.2,.5c.2,.1,.3,.2,.4,.3c.1,0,.3,.2,.4,.4c.1,.1,.2,.3,.5,.8l.7,1.2h-1.5l-.5,-1c-.4,-.7,-.6,-1.1,-.9,-1.2c-.2,-.2,-.5,-.3,-.8,-.3h-.3v2.5Z" class="g5_2" />
<path d="M391.5,73.5c-2.7,0,-4.9,2.2,-4.9,5c0,2.7,2.2,4.9,4.9,4.9c2.7,0,4.9,-2.2,4.9,-4.9c0,-2.8,-2.2,-5,-4.9,-5m5.7,5c0,3.2,-2.5,5.8,-5.7,5.8c-3.1,0,-5.7,-2.6,-5.7,-5.8c0,-3.2,2.6,-5.8,5.7,-5.8c3.2,0,5.7,2.6,5.7,5.8Z" class="g5_2" />
<path d="M61.1,1016.7H1069.4" class="g0_2" />
<g clip-path="url(#c0_2)">
<path d="M1130.6,61.1H586.7c-3.4,0,-6.1,-2.7,-6.1,-6.1V0h550Z" class="g3_2" />
</g>
</svg>