<svg xmlns="http://www.w3.org/2000/svg" viewBox="0 0 325 210"><defs><style type="text/css">@import url('https://fonts.googleapis.com/css?family=Sintony:400,700');.cls-1{fill:#ce0e2d;}.cls-2{fill:none;stroke:#fff;stroke-miterlimit:10;stroke-width:3px;}.cls-3,.cls-4{fill:#fff;}.cls-4{font-size:25.64px;font-family:Sintony-Bold, Sintony;font-weight:700;}</style></defs><title>Asset 18</title><g id="Layer_2" data-name="Layer 2"><g id="Layer_1-2" data-name="Layer 1"><rect class="cls-1" width="325" height="210"/><path class="cls-2" d="M189.45,60.82a4.43,4.43,0,0,0-2.29-2.67c-1.56-.78-3.35-.64-5-.64h-40.4a11.53,11.53,0,0,0-2,.12,5.2,5.2,0,0,0-3.18,1.57,6.12,6.12,0,0,0-1.35,4v43.74a5.57,5.57,0,0,0,1.55,4,6,6,0,0,0,4,1.34h43.76a6,6,0,0,0,3.89-1.32,5.47,5.47,0,0,0,1.53-4v-43A8.4,8.4,0,0,0,189.45,60.82Z"/><path class="cls-3" d="M147.05,70.71V91.86a6.65,6.65,0,0,0,6.65,6.65c3.3,0,6.27-1.08,9.14-2.13a28,28,0,0,1,7.44-2v10.19a1,1,0,0,0,1,1A6.66,6.66,0,0,0,178,99V77.83a6.65,6.65,0,0,0-6.65-6.64c-3.31,0-6.28,1.08-9.16,2.13-1,.35-1.91.69-2.86,1a6.65,6.65,0,1,0-12.23-3.6ZM175.91,99a4.62,4.62,0,0,1-3.59,4.49V84.41a6.76,6.76,0,0,0,3.59-1.78ZM171.3,73.23a4.61,4.61,0,1,1,0,9.21,1,1,0,0,0-1,1v8.91a29.28,29.28,0,0,0-8.14,2.1c-2.82,1-5.49,2-8.44,2a4.6,4.6,0,0,1-4.61-4.61V75.5a6.64,6.64,0,0,0,4.61,1.86c3.3,0,6.27-1.08,9.14-2.13S168.35,73.23,171.3,73.23Zm-13-2.52a4.61,4.61,0,1,1-4.6-4.6A4.61,4.61,0,0,1,158.3,70.71Zm-6.79,0a2.19,2.19,0,1,0,2.19-2.18A2.19,2.19,0,0,0,151.51,70.71Z"/><text class="cls-4" transform="translate(104.82 151.6)">PLÁSTICO</text></g></g></svg>