<svg xmlns="http://www.w3.org/2000/svg" viewBox="0 0 325 210"><defs><style type="text/css">@import url('https://fonts.googleapis.com/css?family=Sintony:400,700');.cls-1{fill:#ce0e2d;}.cls-2{font-size:25.64px;fill:#fff;font-family:Sintony-Bold, Sintony;font-weight:700;}.cls-3,.cls-4{fill:none;stroke:#fff;stroke-miterlimit:10;stroke-width:3px;}.cls-4{fill-rule:evenodd;}</style></defs><title>Asset 20</title><g id="Layer_2" data-name="Layer 2"><g id="Layer_1-2" data-name="Layer 1"><rect class="cls-1" width="325" height="210"/><text class="cls-2" transform="translate(51.91 151.6)">TELA (non-woven)</text><g id="ico-tela"><path class="cls-3" d="M189.45,60.82a4.49,4.49,0,0,0-2.29-2.67c-1.56-.78-3.35-.64-5-.64H141.71a11.59,11.59,0,0,0-2,.12,5.22,5.22,0,0,0-3.17,1.57,6.14,6.14,0,0,0-1.35,4v43.74a5.55,5.55,0,0,0,1.55,4,6,6,0,0,0,4,1.33h43.76a6,6,0,0,0,3.88-1.32,5.49,5.49,0,0,0,1.53-4q0-21.48,0-43A8.4,8.4,0,0,0,189.45,60.82Z"/></g><path class="cls-4" d="M143.24,93.65V90.94c.07-.37.13-.74.21-1.11a7.39,7.39,0,0,1,1.55-3c1-1.24,9.54-11.31,12.9-15.07a5.23,5.23,0,0,1,.95-.82,6.66,6.66,0,0,1,3.76-1c4.34,0,13.3,0,13.42,0a2.75,2.75,0,0,1,2.65,2.5,21.35,21.35,0,0,1,0,3.75,5.08,5.08,0,0,1-1.5,3q-6.45,7.26-12.91,14.5a3.33,3.33,0,0,1-2.45,1.23c-3.7,0-7.41,0-11.13,0a1.65,1.65,0,0,1,0-3.28c.25,0,7.47,0,10.83,0a.9.9,0,0,0,1-.82,5.09,5.09,0,0,0,0-1.17,1.49,1.49,0,0,0-1-1.32c-.32-.1-12.38,0-12.68,0a3.21,3.21,0,0,0-2.58,2.93c-.05.57-.05,1.77,0,2.35.1,2.71,1.27,3.67,3.24,3.66,5,0,10,0,15,0a.79.79,0,0,0,.65-.31c4.62-5.2,14.14-16.53,14.3-16.66a1.29,1.29,0,0,1,1.39-.19,1.79,1.79,0,0,1,.94,1.38v.34c-.15.62-10.3,12-15,17.33a2.09,2.09,0,0,1-1.66.78c-4.93,0-15.86,0-16.4,0-2.66-.14-4.65-2-5.24-5C143.39,94.44,143.32,94,143.24,93.65Z"/></g></g></svg>