<svg xmlns="http://www.w3.org/2000/svg" viewBox="0 0 170 73.95"><defs><style>.cls-1{fill:#fff;}.cls-2{fill:#ce0e2d;}</style></defs><title>Asset 1</title><g id="Layer_2" data-name="Layer 2"><g id="Layer_1-2" data-name="Layer 1"><path class="cls-1" d="M94.8,53.28h1.77a2.56,2.56,0,0,1,2.23,1A3.12,3.12,0,0,1,99.36,56a2.57,2.57,0,0,1-2.82,2.72H94.8ZM95.6,58h1a1.84,1.84,0,0,0,2-2,1.93,1.93,0,0,0-2-2h-1Z"/><polygon class="cls-1" points="73.65 58.75 73.65 56.37 71.4 56.37 71.4 58.75 70.61 58.75 70.61 53.27 71.4 53.27 71.4 55.63 73.65 55.63 73.65 53.27 74.44 53.27 74.44 58.75 73.65 58.75"/><path class="cls-1" d="M82.05,58.75l-.61-1.61h-2l-.6,1.61H78l2.07-5.47h.71l2.07,5.47Zm-.88-2.35-.69-2.09h0l-.7,2.09Z"/><polygon class="cls-1" points="89.99 58.75 87.3 54.52 87.28 54.52 87.28 58.75 86.49 58.75 86.49 53.27 87.36 53.27 90.01 57.44 90.03 57.44 90.03 53.27 90.82 53.27 90.82 58.75 89.99 58.75"/><path class="cls-1" d="M103.22,53.28h1.42a1.48,1.48,0,0,1,1.7,1.51,1.25,1.25,0,0,1-.49,1,1.45,1.45,0,0,1,.81,1.33,1.59,1.59,0,0,1-1.81,1.59h-1.63Zm.8,2.27h.64c.75,0,.88-.45.88-.76,0-.78-.74-.78-.92-.78H104ZM104,58h.86a.89.89,0,0,0,1-.86.88.88,0,0,0-.2-.54,1,1,0,0,0-.89-.33H104Z"/><path class="cls-1" d="M113,58.75l-1.8-2.54h0v2.54h-.8V53.28h1.69a1.93,1.93,0,0,1,1.45.45A1.82,1.82,0,0,1,114,55a1.57,1.57,0,0,1-1.56,1.68l1.52,2Zm-1.81-2.65h.54c.33,0,1.51,0,1.51-1.07,0-.46-.32-1-1.21-1h-.84Z"/><path class="cls-1" d="M121.33,58.75l-.61-1.61h-2l-.61,1.61h-.84l2.08-5.47h.71l2.07,5.47Zm-.88-2.35-.69-2.09h0L119,56.4Z"/><polygon class="cls-1" points="129.27 58.75 126.57 54.52 126.56 54.52 126.56 58.75 125.76 58.75 125.76 53.27 126.64 53.27 129.29 57.44 129.3 57.44 129.3 53.27 130.1 53.27 130.1 58.75 129.27 58.75"/><path class="cls-1" d="M134.08,53.28h1.77a2.54,2.54,0,0,1,2.22,1,3.06,3.06,0,0,1,.57,1.75A2.88,2.88,0,0,1,138,58a2.83,2.83,0,0,1-2.13.8h-1.74Zm.8,4.74h1a1.85,1.85,0,0,0,2-2,1.93,1.93,0,0,0-2-2h-1Z"/><rect class="cls-1" x="142.5" y="53.28" width="0.79" height="5.47"/><polygon class="cls-1" points="150.85 58.75 148.15 54.52 148.14 54.52 148.14 58.75 147.34 58.75 147.34 53.27 148.21 53.27 150.87 57.44 150.88 57.44 150.88 53.27 151.67 53.27 151.67 58.75 150.85 58.75"/><path class="cls-1" d="M159.76,54.65a2,2,0,0,0-1.49-.75,2.11,2.11,0,0,0,0,4.22,2,2,0,0,0,1.88-1.36h-2.54V56h3.45a2.92,2.92,0,1,1-.38-1.38Z"/><path class="cls-1" d="M83.41,27.55a6.59,6.59,0,0,0,2.21-5.4,7.15,7.15,0,0,0-1.81-5.28,7.27,7.27,0,0,0-5.32-1.79,7.61,7.61,0,0,0-4,1v-.42a.58.58,0,0,0-.16-.4.58.58,0,0,0-.41-.17H71.11a.58.58,0,0,0-.57.57V40.4a.58.58,0,0,0,.57.57h7.58c2.59,0,4.63-.57,6-1.8a6.85,6.85,0,0,0,2.09-5.4c0-2.92-1.16-5.11-3.4-6.22m-9-5a5.9,5.9,0,0,1,1.08-3.72,3.61,3.61,0,0,1,3-1.15,2.69,2.69,0,0,1,2.36,1,5.82,5.82,0,0,1,.82,3.43,4.76,4.76,0,0,1-1,3.39,4.16,4.16,0,0,1-3.16,1.08h-3Zm7.4,14.68a4.06,4.06,0,0,1-3.16,1.1H74.45V29.23h4.24a4,4,0,0,1,3.16,1.1,4.87,4.87,0,0,1,1,3.44,5,5,0,0,1-1,3.48M135.94,17.7a4.8,4.8,0,0,1,3.2.89,3.3,3.3,0,0,1,1,2.67.56.56,0,0,0,.17.4.59.59,0,0,0,.4.17h2.77a.54.54,0,0,0,.4-.17.56.56,0,0,0,.17-.4,5.48,5.48,0,0,0-2.12-4.67,10,10,0,0,0-6-1.51,9.82,9.82,0,0,0-6,1.57,5.72,5.72,0,0,0-2.12,4.81c0,3.12,2.52,5.63,7.07,7.64,3.69,1.67,5.3,3.53,5.29,5.49a3.62,3.62,0,0,1-1,2.83,4.6,4.6,0,0,1-3.19.93,4.79,4.79,0,0,1-3.24-.89,3.3,3.3,0,0,1-1-2.67.55.55,0,0,0-.16-.4.6.6,0,0,0-.4-.17h-2.78a.6.6,0,0,0-.4.17.56.56,0,0,0-.17.4,5.48,5.48,0,0,0,2.13,4.67,10.08,10.08,0,0,0,6,1.51,9.71,9.71,0,0,0,6-1.57,5.72,5.72,0,0,0,2.11-4.81c0-3.11-2.5-5.64-7-7.68-3.73-1.67-5.35-3.52-5.34-5.45a3.62,3.62,0,0,1,1-2.83,4.7,4.7,0,0,1,3.23-.93m24.62,0a.61.61,0,0,0,.41-.17.6.6,0,0,0,.16-.41V15.65a.58.58,0,0,0-.16-.4.58.58,0,0,0-.41-.17H147.44a.57.57,0,0,0-.41.17.58.58,0,0,0-.16.4V40.4a.58.58,0,0,0,.16.4.58.58,0,0,0,.41.17h13.12a.57.57,0,0,0,.41-.17.58.58,0,0,0,.16-.4V38.93a.6.6,0,0,0-.16-.41.58.58,0,0,0-.41-.17h-9.78V29.23h8.6a.54.54,0,0,0,.4-.17.56.56,0,0,0,.17-.4V27.19a.55.55,0,0,0-.57-.57h-8.6V17.7ZM97.78,15.08c-2.62,0-4.68.62-6.08,2a7.63,7.63,0,0,0-2.08,5.81V33.2A7.63,7.63,0,0,0,91.7,39c1.4,1.34,3.46,2,6.08,2h0c2.6,0,4.64-.62,6-2a7.7,7.7,0,0,0,2.07-5.81V22.85A7.72,7.72,0,0,0,103.82,17c-1.4-1.34-3.45-2-6-2M102,33.2a6.08,6.08,0,0,1-1.06,3.93,3.81,3.81,0,0,1-3.14,1.22,3.86,3.86,0,0,1-3.18-1.22,6,6,0,0,1-1.07-3.93V22.85a6,6,0,0,1,1.07-3.93,3.86,3.86,0,0,1,3.18-1.22,3.81,3.81,0,0,1,3.14,1.22A6.1,6.1,0,0,1,102,22.85Zm23-9.37c0-2.81-.65-5-2-6.52a9.34,9.34,0,0,0-10.32-1.2v-.46a.58.58,0,0,0-.16-.4.56.56,0,0,0-.4-.17h-2.78a.58.58,0,0,0-.57.57V40.4a.58.58,0,0,0,.57.57h2.78a.56.56,0,0,0,.4-.17.58.58,0,0,0,.16-.4V32.63h4.25A3.51,3.51,0,0,1,120,34.07a8.32,8.32,0,0,1,1.09,4.73v1.6a.58.58,0,0,0,.16.4.57.57,0,0,0,.41.17h2.77a.56.56,0,0,0,.4-.17.54.54,0,0,0,.17-.4V38.8c0-3.47-1-6.06-3.15-7.48,2.12-1.43,3.16-4,3.15-7.49m-5,4.73A3.5,3.5,0,0,1,116.86,30h-4.25V22.57a5.74,5.74,0,0,1,1.12-3.71,3.91,3.91,0,0,1,3.13-1.16A3.53,3.53,0,0,1,120,19.13a8.21,8.21,0,0,1,1.09,4.7A8.27,8.27,0,0,1,120,28.56M99.62,13.17h2.77a.58.58,0,0,0,.57-.57v-2a.6.6,0,0,0-.17-.4.56.56,0,0,0-.4-.17H99.62a.57.57,0,0,0-.41.17.6.6,0,0,0-.17.4v2a.59.59,0,0,0,.17.4.57.57,0,0,0,.41.17m-6.73,0h2.77a.54.54,0,0,0,.4-.17.56.56,0,0,0,.17-.4v-2a.56.56,0,0,0-.17-.4.54.54,0,0,0-.4-.17H92.89a.58.58,0,0,0-.41.17.59.59,0,0,0-.16.4v2a.58.58,0,0,0,.16.4.58.58,0,0,0,.41.17"/><path class="cls-2" d="M62.05,12.3c-.25-3.86-1.14-7.54-6-9.06A113.86,113.86,0,0,0,31.62,0H31A113.86,113.86,0,0,0,6.5,3.24C1.68,4.76.79,8.44.54,12.3c0,0-1.21,23.59,0,47.43A7.36,7.36,0,0,0,2.9,65.14h0s4.05,4.27,27.32,8.67a7.38,7.38,0,0,0,1.11.13h0a7.11,7.11,0,0,0,1.1-.13c23.28-4.4,27.33-8.67,27.33-8.67h0a7.31,7.31,0,0,0,2.36-5.41c1.21-23.84,0-47.43,0-47.43"/><path class="cls-1" d="M53.91,63.27a7.59,7.59,0,0,1-2.27-3.08,2.63,2.63,0,0,0,2.43.12C50.91,59.5,50.48,55,50.48,55l0,.06a33.28,33.28,0,0,1,.21-7.26,7.07,7.07,0,0,1,2.78,2.59c-.19-6.92-3.35-9.22-3.35-9.22a8.23,8.23,0,0,1,4,3.36c-.67-11.81-4.4-18.45-7.37-21.93l-.47-.74a3.29,3.29,0,0,1,2.24.3,5.07,5.07,0,0,0-4.38-2.91c.33-1,.1-3.37-.72-4.11a2.33,2.33,0,0,0-1.83-.81c-2.63.15-2.5,4.22-2.5,4.22A5.84,5.84,0,0,1,39,14.2l.86,0L43.13,7,36.55,8.72l-.26,1,1.23.38-.21.92L34,10.86l-.23-1.17,1.34-.23.07-.71L30.36,5.59,25.31,8.35l0,.71,1.3.33-.31,1.16L23,10.42l-.13-.93,1.26-.28L24,8.2,17.69,6.07l2.13,7.6a22.14,22.14,0,0,1,4.77-.25,20.13,20.13,0,0,0-5,1.4c-.21.22-.45.48-.72.79a15.14,15.14,0,0,0-.8,2.06,42.26,42.26,0,0,0-8.8,8.7,4.83,4.83,0,0,0-.34,1,12.77,12.77,0,0,0,1.67,1.95,3.27,3.27,0,0,1,1.85-1.69,3.77,3.77,0,0,0-1.11,2.49,0,0,0,0,0,0,0h0s-.15,3.64,3.17,3.79a3.8,3.8,0,0,0,1.69-.16s1.33,1.83,3.14,1A2.72,2.72,0,0,1,18,32.71a17.54,17.54,0,0,0,1.23-1.53c1.08-1.08,4.25-4.8,8-2.4a5.34,5.34,0,0,1,1.23,1.44c-1.41-.44-4.31-.75-6.81,2.85-3.46,5-5.35,5.32-6.9,5.26-2.4-.09-3.37-2.66-3.16-4.14,0,0-2.85,3-.5,5.85,2.5,3,8.12,1.05,10.8-3.8,2.56-4.64,5.09-5.4,7.15-4.45v.1a5.41,5.41,0,0,1-1,4.75c-1.51,1.58-2.85,1.49-3.87,2.11a3.14,3.14,0,0,1-1.21-2.29,3.39,3.39,0,0,0-.43,3.34A2.59,2.59,0,0,0,22,41.65,2.55,2.55,0,0,0,22.67,43h0a3.33,3.33,0,0,1,.88,3.58,3.91,3.91,0,0,0,2.09-2.84s.35.5-.07,1.54a2.66,2.66,0,0,0,1.62-2.21h0a8.32,8.32,0,0,0,3.59-3.53,7.52,7.52,0,0,1-.59,2.31,9.56,9.56,0,0,1-4.7,4.73c-5.46,2.4-9.33.1-9.33.1.42,2.64,3.49,4.38,3.86,4.58-1,.36-4.95,1.63-8.63.35a4.2,4.2,0,0,0,3,1.91A31.28,31.28,0,0,1,3,52.78c3.87,11.59,15.43,8.61,15.43,8.61A10.91,10.91,0,0,1,13,65.51c11.56,2.9,19-6.33,19-6.33a20.33,20.33,0,0,1-5.47,9c11.32,1.68,17-9,17-9,2.88,9.15,12,5,12,5a16.07,16.07,0,0,1-1.56-.87M25.51,21a1.1,1.1,0,0,1-.57.28,13,13,0,0,1-2.75.26,12.66,12.66,0,0,1-2.68-.24l-.57-.15,7-2.41,0,.19s0,0,0,.1L26,19s.34,1.5-.51,2"/><path class="cls-1" d="M48.35,6.27a9.65,9.65,0,0,0,1.19,9.55c3.49,5,4.6,8.29,3.81,11.31a12,12,0,0,0,1.9-13.7,11.12,11.12,0,0,1,4,4.7s2.14-11-7.94-11.94a12.79,12.79,0,0,1-4.14-4.75c-.77-.13-1.55-.24-2.34-.36a11.66,11.66,0,0,0,3.47,5.19"/><path class="cls-1" d="M66,5.28V2.23h1.59a1.1,1.1,0,0,1,.47.13.71.71,0,0,1,.28.29.83.83,0,0,1,.12.44.76.76,0,0,1-.22.56.9.9,0,0,1-.6.29,1,1,0,0,1,.21.12,1.77,1.77,0,0,1,.21.23s.1.16.22.38l.36.61h-.76l-.26-.49a1.92,1.92,0,0,0-.42-.63A.65.65,0,0,0,66.81,4h-.16V5.28Zm.61-1.74h.25a3,3,0,0,0,.67,0,.35.35,0,0,0,.2-.14.39.39,0,0,0,.07-.23.35.35,0,0,0-.07-.23.34.34,0,0,0-.21-.14,2.65,2.65,0,0,0-.66,0h-.25Z"/><path class="cls-1" d="M70.12,3.75a2.88,2.88,0,1,1-5.76,0,2.88,2.88,0,1,1,5.76,0M67.24,1.22a2.5,2.5,0,0,0-2.47,2.53,2.47,2.47,0,1,0,4.94,0,2.5,2.5,0,0,0-2.47-2.53"/><path class="cls-1" d="M165.92,16V13h1.59a1.28,1.28,0,0,1,.47.12.81.81,0,0,1,.29.29,1,1,0,0,1,.11.44.84.84,0,0,1-.21.57,1,1,0,0,1-.61.29.64.64,0,0,1,.22.11,1.45,1.45,0,0,1,.2.24s.1.15.23.37l.35.62h-.75l-.26-.5a2.19,2.19,0,0,0-.42-.63.69.69,0,0,0-.43-.13h-.16V16Zm.62-1.74h.25a2.87,2.87,0,0,0,.66,0,.38.38,0,0,0,.2-.15.36.36,0,0,0,.08-.23.39.39,0,0,0-.07-.23.46.46,0,0,0-.21-.14,2.93,2.93,0,0,0-.66,0h-.25Z"/><path class="cls-1" d="M170,14.49a2.88,2.88,0,1,1-2.87-2.94A2.91,2.91,0,0,1,170,14.49M167.13,12a2.53,2.53,0,1,0,2.47,2.53A2.51,2.51,0,0,0,167.13,12"/></g></g></svg>