<svg xmlns="http://www.w3.org/2000/svg" viewBox="0 0 240 248"><defs><style>.cls-1,.cls-2{fill:#CCCCCC;}.cls-1{fill-rule:evenodd;}</style></defs><title>logotipo-iso-9001-2008</title><g id="Layer_2" data-name="Layer 2"><g id="Layer_1-2" data-name="Layer 1"><g id="logo-iso"><path class="cls-1" d="M145.86,99.58A83.18,83.18,0,0,1,148.27,82a34.44,34.44,0,0,1,20.29-23.49,60,60,0,0,1,27.33-4.81,58.46,58.46,0,0,1,23.32,5.83c10.5,5.19,16.95,13.44,19.3,25a67.22,67.22,0,0,1,1,22c-1,8-3.28,15.69-8.48,22.07-5,6.11-11.55,9.9-19.05,12.16a68.32,68.32,0,0,1-22.79,2.55c-11.55-.52-22-4.19-30.92-11.67-6.22-5.26-9.54-12.37-11.05-20.29C146.48,107.46,146.29,103.5,145.86,99.58Zm61.39-1.42-.34,0c0-3.73.13-7.46,0-11.18-.25-5.72-2-9-8.4-11a18.92,18.92,0,0,0-8.82-.35c-5.53,1-8.76,3.24-9.94,8.71-1.59,7.35-1.12,14.76-.77,22.14a38.64,38.64,0,0,0,1.41,7.85,8.15,8.15,0,0,0,4.64,5.57c4.55,2,9.22,2.72,14.09,1.07,4.6-1.56,7.19-4.62,7.54-9.49C206.94,107,207.05,102.57,207.25,98.16Z"/><path class="cls-1" d="M122,61.13c.1-1.13.19-2.11.26-3.12.14-1.87.35-2.1,2.18-2.11h14.94c.37,0,.77.05,1.23.06,0,.24.11.44.13.64.08,9,.19,17.92.25,26.89,0,2.25-.07,2.26-2.26,2.26q-7.39,0-14.8,0a2.06,2.06,0,0,1-1.42-.63c-4.5-6.13-10.78-9.29-18-10.93A44.06,44.06,0,0,0,93,73.15a6.57,6.57,0,0,0-4.31,1.61c-1.33,1.2-1.51,2.62-.32,3.94a6,6,0,0,0,2.57,1.69c10.24,3,20.51,5.94,30.75,9s17.9,9.42,21.2,19.87a25.36,25.36,0,0,1-14.46,30.55c-7.31,3.19-15,3.87-22.82,3.36a57.16,57.16,0,0,1-17.17-3.86c-2.1-.81-4.09-2-6.14-2.93-.34-.18-.71-.3-1.38-.57-.17,1.66-.4,3.17-.46,4.67,0,.94-.34,1.21-1.23,1.19q-8.25,0-16.52,0c-.79,0-1.21-.24-1.25-1.09,0-1.23-.23-2.45-.23-3.68,0-8.43,0-16.86,0-25.31,0-1.2.25-1.68,1.58-1.68,4.93,0,9.86-.13,14.79-.25a1.8,1.8,0,0,1,1.71.92C84.45,118.43,92,122,101.07,122.86A40.29,40.29,0,0,0,113.7,122a4.89,4.89,0,0,0,2-.87c1.53-1.25,1.48-2.77-.23-3.77a19.82,19.82,0,0,0-4.06-1.77c-9.49-2.93-19-5.77-28.52-8.72a38.28,38.28,0,0,1-10.85-5.13C65.57,97.24,61.18,91.5,60.74,83.21,60.27,74.44,62.22,66.7,69.4,61A30.6,30.6,0,0,1,81,55.4c14-3.55,27.42-1.95,40.06,5.27C121.3,60.82,121.59,60.93,122,61.13Z"/><path class="cls-1" d="M55.78,54.36a19.13,19.13,0,0,1,.28,2.1c0,6.07,0,12.12,0,18.19,0,1.22-.42,1.67-1.7,1.64-3.3-.09-6.62,0-9.94,0-.94,0-1.18.34-1.18,1.23q0,20.88-.06,41.79c0,.88.23,1.24,1.17,1.24,3.18,0,6.35.11,9.54.18h2a10.15,10.15,0,0,1,.12,1.23c0,6.11,0,12.22,0,18.32,0,1-.35,1.34-1.36,1.35-17.24,0-34.49,0-51.74,0-2.68,0-2.94-.06-3-2.77-.12-5.65,0-11.31.13-17,0-.88.45-1.23,1.41-1.23,3.36,0,6.72-.12,10.08-.18.87,0,1.34-.2,1.34-1.25q-.06-21,0-42.06c0-.21,0-.43-.07-1-2.05-.15-4.11-.35-6.18-.42s-4.09,0-6.2,0a4.85,4.85,0,0,1-.13-.7c0-6.32,0-12.65,0-19,0-1.77.06-1.77,1.77-1.77H55.78Z"/><path class="cls-1" d="M166.05,29.59c3.74,5.26,8.11,9.64,11,15.14-2.46.84-3.59.46-5.08-1.47-2.72-3.49-5.5-6.92-8.24-10.41a2.21,2.21,0,0,0-2.76-.81l-2.6.91L148,36.61c-.86.3-1.68.64-2.64,1l3.08,7.2c-2.44.82-3.35.5-4.46-1.46-.68-1.22-1.4-2.43-2.05-3.67a1.43,1.43,0,0,0-1.75-.89c-4.48.73-9,1.42-13.45,2-2.21.3-4.45.33-6.66.47-1.82.11-1.82.13-1.85,1.89V45h-3.56c0-.8-.05-1.5,0-2.18.09-1.11-.28-1.52-1.47-1.57a115.65,115.65,0,0,1-18.72-2,4.43,4.43,0,0,0-.51-.06c-2.81-.58-2.81-.58-4,2-.31.67-.61,1.36-.94,2-1,2.16-1.86,2.5-4.6,1.78l1.55-3.74c1.64-4,1.64-3.53-2.23-4.87s-7.91-2.73-11.84-4.17a1.61,1.61,0,0,0-2.14.48c-2.89,3.69-5.87,7.3-8.67,11.06-.83,1.11-1.61,1.72-3,1.51a15.5,15.5,0,0,0-1.86,0c2.7-5.71,7-10.07,10.64-15.07-1.18-.73-2.24-1.41-3.32-2-1.7-1-3.46-1.86-5.11-2.93a2.38,2.38,0,0,0-3.21.18c-2.34,2.06-4.81,4-6.94,6.2C45,35,42,38.69,38.84,42.3c-.39.47-.74,1-1.12,1.46-1.47,1.86-2.52,2.07-4.74,1C51.74,15.35,86.74-2.8,125.32.35A98.16,98.16,0,0,1,182,24.05,89.31,89.31,0,0,1,200.23,44.7c-2.54.77-3.83.37-5.1-1.39a96.51,96.51,0,0,0-18-18.68,1.52,1.52,0,0,0-2-.24C172.19,26.13,169.19,27.81,166.05,29.59ZM93.32,35.07a3.56,3.56,0,0,0,.6.23c2.5.41,5,.9,7.47,1.2,3.7.45,7.43.85,11.17,1.14,2,.14,2,0,2.06-2q0-8,0-16.07a15.09,15.09,0,0,0-.27-2.6c-.05-.27-.35-.69-.57-.72-2.16-.31-4.31-.62-6.47-.78a2.28,2.28,0,0,0-1.67.75A95.54,95.54,0,0,0,94,33.52C93.78,34,93.57,34.53,93.32,35.07Zm46-.11c-.48-1.08-.74-1.74-1.05-2.35-2.94-5.83-7-10.86-10.86-16.09a2.53,2.53,0,0,0-2.88-1c-.88.2-1.79.28-2.71.41s-2.1,0-2.62.46-.37,1.75-.48,2.68a76.75,76.75,0,0,0-.2,16.25c.18,2.34.23,2.34,2.59,2.28.26,0,.51,0,.79,0,3.66-.43,7.35-.78,11-1.31C134.92,36,137,35.44,139.27,35Zm-8.61-20.82a6.3,6.3,0,0,0,.38.8c4,6.14,8,12.3,12.1,18.42a1.31,1.31,0,0,0,1.13.4c3.08-.91,6.15-1.85,9.2-2.88,1.84-.61,3.62-1.38,5.63-2.16a11.44,11.44,0,0,0-1.27-1.84,95,95,0,0,0-20.19-14.66,2.74,2.74,0,0,0-2-.3C134,12.53,132.37,13.37,130.66,14.14Zm-28.62,0-3.19-1.61a4.31,4.31,0,0,0-4.44.24A112.56,112.56,0,0,0,75.86,26.43a26,26,0,0,0-2.11,2.35,5.43,5.43,0,0,0,.88.52c4.49,1.51,9,3,13.47,4.52.92.31,1.38,0,1.88-.83,3.34-5.27,6.76-10.51,10.14-15.77C100.75,16.24,101.36,15.26,102,14.16ZM95.13,5.88a9.25,9.25,0,0,0,1.49,1.48c8.13,5.06,17,6.23,26.28,4.79a34.78,34.78,0,0,0,13-4.8,17.19,17.19,0,0,0,1.7-1.41C123.44,2.52,109.55,2.83,95.13,5.88ZM60.34,21.72a13.62,13.62,0,0,0,1.43,1c2.36,1.33,4.73,2.62,7.09,3.95a1.19,1.19,0,0,0,1.68-.27A122.32,122.32,0,0,1,90.08,11c.77-.52,1.51-1.1,2.39-1.74a25.92,25.92,0,0,0-2.31-1.71A1.6,1.6,0,0,0,89,7.43,96.45,96.45,0,0,0,62.91,19.7C62.05,20.28,61.28,21,60.34,21.72Zm112.18-.11a26.12,26.12,0,0,0-2.42-2c-2.3-1.46-4.59-2.91-6.95-4.19a80.33,80.33,0,0,0-18-7.45c-2.36-.63-3.66-.29-4.68,1.22a7.58,7.58,0,0,0,.9.71,128,128,0,0,1,21.27,16.4,1.54,1.54,0,0,0,1.42,0c2.37-1.22,4.67-2.55,7-3.85C171.51,22.24,171.91,22,172.52,21.61Z"/><path class="cls-1" d="M33.3,151.07c2.65-.67,3.48-.39,4.92,1.59a93,93,0,0,0,17.86,18.62,1.64,1.64,0,0,0,2.1.23c2.92-1.72,5.9-3.38,9-5.11-3.38-5.37-8-9.56-10.51-15.26,2.26-.81,3.31-.41,4.6,1.25,3,3.81,6,7.54,9,11.31.66.82,1.28.79,2.25.4,4.69-1.78,9.42-3.42,14.14-5.11l1.6-.6c-1.06-2.47-2.09-4.84-3.13-7.25,2.27-.84,3.52-.41,4.59,1.58.68,1.27,1.32,2.56,1.94,3.87a1.16,1.16,0,0,0,1.56.73,116.68,116.68,0,0,1,20-2.61c.64,0,1.28-.12,2.1-.21,0-.9,0-1.72,0-2.55s.19-1.14,1-1.14c2,0,2.78-.06,2.58,2.42-.07.94.25,1.29,1.21,1.4q10.26,1.17,20.51,2.49c1.36.17,2.23-.13,2.7-1.51a15.42,15.42,0,0,1,1.38-2.83c1.15-2.11,1.65-2.3,4.34-1.73-.45,1.24-.87,2.47-1.34,3.66s-1,2.33-1.52,3.62l2.58.9,11,3.86c3.86,1.37,3.34,1.53,5.87-1.38,2-2.31,3.72-4.86,5.56-7.31.4-.53.72-1.1,1.11-1.62,1.57-2.14,2.35-2.41,5.21-1.67-2.75,5.41-6.79,9.84-10.51,14.72.77.55,1.42,1.12,2.16,1.55,2.5,1.44,5,2.86,7.54,4.22a1.47,1.47,0,0,0,1.32-.22c6.4-5.43,12.46-11.21,17.19-18.19,1.45-2.14,3.07-2.74,5.64-2.18-.57,1-1.06,1.92-1.65,2.78a100.17,100.17,0,0,1-14.55,16.55,97.92,97.92,0,0,1-50.05,24.41,103.35,103.35,0,0,1-19.13,1.51,100.64,100.64,0,0,1-80.81-42.77,20.46,20.46,0,0,1-1-1.82C33.4,151.48,33.38,151.27,33.3,151.07ZM119,158.32v21.47c2.6.36,5,.78,7.41,1a2.75,2.75,0,0,0,2-1.09,126.42,126.42,0,0,0,11.41-17.33c.23-.4.4-.82.66-1.39A108.11,108.11,0,0,0,119,158.32Zm-25,2.52a3.33,3.33,0,0,0,.1.57,109.72,109.72,0,0,0,12.21,18.51,1.9,1.9,0,0,0,1.34.64c2.49-.16,5-.44,7.56-.69V178c0-5.94,0-11.86,0-17.79,0-1.88,0-2-1.81-1.85-4.67.41-9.35.88-14,1.44C97.6,160,95.83,160.47,94,160.84Zm8.73,20.93c-.32-.49-.62-.9-.91-1.33-3.35-5.14-6.75-10.24-10-15.41-2-3.08-1.88-3.13-5.36-2.22a65.48,65.48,0,0,0-12.26,4.68c.85,1,1.54,1.87,2.33,2.64A84,84,0,0,0,96.3,184.19c.27.13.61.33.84.26C99.05,183.78,101.09,183.34,102.71,181.77Zm28.78.27c1.35.67,2.56,1.34,3.85,1.87a3.67,3.67,0,0,0,3.37-.3,91.24,91.24,0,0,0,14.59-10c1.87-1.58,3.64-3.28,5.39-5,.9-.88.78-1.46-.2-1.94a47.93,47.93,0,0,0-12.31-4.21c-2.07-.35-2-.33-3.18,1.48q-5.33,8.37-10.65,16.71C132.09,181.1,131.83,181.5,131.49,182ZM95.65,190.1a15.19,15.19,0,0,0,1.66.49c4.35.65,8.68,1.48,13,1.86a86.71,86.71,0,0,0,26.77-1.86c.3-.06.78-.33.78-.49a1.32,1.32,0,0,0-.47-1,13,13,0,0,0-2.12-1.28A39.15,39.15,0,0,0,110.69,184a36.06,36.06,0,0,0-12.54,4.33C97.36,188.76,96.64,189.38,95.65,190.1Zm45.63-3.33c1.88,2.25,2.05,2.31,4.57,1.5,9.29-3,18.22-6.8,26.13-12.7.37-.29.73-.6,1.14-.94a27.19,27.19,0,0,0-8.08-5,1.76,1.76,0,0,0-2.29.39,119.85,119.85,0,0,1-19.61,15.36C142.49,185.8,141.9,186.31,141.28,186.77ZM60.69,174.6c.91.68,1.42,1.08,2,1.46a91.71,91.71,0,0,0,25.83,12.39c2.2.71,2.8.48,4.31-1.64-.42-.28-.84-.57-1.28-.85a131.61,131.61,0,0,1-19-14.46c-2.48-2.34-2.5-2.41-5.48-.76C65,171.9,63,173.21,60.69,174.6Z"/><path class="cls-2" d="M30.2,241.09a6,6,0,0,0,4.11,1.9,5.19,5.19,0,0,0,2.1-.43,5.79,5.79,0,0,0,2.88-4,17.24,17.24,0,0,0,.51-3.93,6,6,0,0,1-1.17,1.19,8.29,8.29,0,0,1-1.38.89,6.42,6.42,0,0,1-1.43.54,5.05,5.05,0,0,1-1.33.2,9.51,9.51,0,0,1-3.18-.51,6.77,6.77,0,0,1-2.49-1.51,7.18,7.18,0,0,1-1.66-2.58,10,10,0,0,1-.61-3.68,9.5,9.5,0,0,1,.71-3.73,8.81,8.81,0,0,1,1.91-2.84A8.18,8.18,0,0,1,32,220.8a9.91,9.91,0,0,1,3.42-.59,9.58,9.58,0,0,1,3.75.75,8.86,8.86,0,0,1,3.23,2.37,12.42,12.42,0,0,1,2.27,4.1,18.94,18.94,0,0,1,.85,6,21.3,21.3,0,0,1-.89,6.51,13.75,13.75,0,0,1-2.4,4.51,9.36,9.36,0,0,1-3.45,2.63,9.57,9.57,0,0,1-4,.87,10.31,10.31,0,0,1-4.59-1,12.1,12.1,0,0,1-3.21-2.24Zm5.5-8a4.11,4.11,0,0,0,2-.6,5.31,5.31,0,0,0,1.93-2.06,8,8,0,0,0-1.56-4.36,3.52,3.52,0,0,0-2.59-1.21,3.12,3.12,0,0,0-2.34,1,4.54,4.54,0,0,0-1,3.3,3.77,3.77,0,0,0,1,3A3.69,3.69,0,0,0,35.7,233.07Z"/><path class="cls-2" d="M58.35,248a8.34,8.34,0,0,1-3.91-.91,8.2,8.2,0,0,1-3-2.68A13.89,13.89,0,0,1,49.52,240a23.62,23.62,0,0,1-.69-6,23.35,23.35,0,0,1,.69-6,13.88,13.88,0,0,1,1.93-4.32,8,8,0,0,1,3-2.62,9.4,9.4,0,0,1,7.81,0,8,8,0,0,1,3,2.62A13.66,13.66,0,0,1,67.18,228a23.35,23.35,0,0,1,.69,6,23.62,23.62,0,0,1-.69,6,13.68,13.68,0,0,1-1.94,4.39,8.2,8.2,0,0,1-3,2.68A8.36,8.36,0,0,1,58.35,248Zm0-4.82a2.79,2.79,0,0,0,1.47-.39A3.13,3.13,0,0,0,61,241.33a9.82,9.82,0,0,0,.79-2.82A32.3,32.3,0,0,0,62,234a31.89,31.89,0,0,0-.27-4.49,9.28,9.28,0,0,0-.79-2.75,3.11,3.11,0,0,0-1.16-1.37,3,3,0,0,0-1.47-.38,2.86,2.86,0,0,0-1.43.38,3.2,3.2,0,0,0-1.18,1.37,10.25,10.25,0,0,0-.8,2.75,30.25,30.25,0,0,0-.28,4.49,30.64,30.64,0,0,0,.28,4.51,10.86,10.86,0,0,0,.8,2.82,3.22,3.22,0,0,0,1.18,1.46A2.68,2.68,0,0,0,58.35,243.18Z"/><path class="cls-2" d="M80.49,248a8.08,8.08,0,0,1-6.9-3.59A13.89,13.89,0,0,1,71.66,240a23.62,23.62,0,0,1-.69-6,23.35,23.35,0,0,1,.69-6,13.88,13.88,0,0,1,1.93-4.32,8.18,8.18,0,0,1,3-2.62,9.4,9.4,0,0,1,7.81,0,8,8,0,0,1,3,2.62A13.23,13.23,0,0,1,89.32,228a23.37,23.37,0,0,1,.68,6,23.64,23.64,0,0,1-.68,6,13.26,13.26,0,0,1-1.94,4.39,8.12,8.12,0,0,1-3,2.68A8.33,8.33,0,0,1,80.49,248Zm0-4.82a2.82,2.82,0,0,0,1.47-.39,3.28,3.28,0,0,0,1.18-1.46,10.59,10.59,0,0,0,.77-2.82,30.83,30.83,0,0,0,.27-4.51,30.44,30.44,0,0,0-.27-4.49,10,10,0,0,0-.77-2.75A3.27,3.27,0,0,0,82,225.39a3,3,0,0,0-1.47-.38,2.94,2.94,0,0,0-1.43.38,3.19,3.19,0,0,0-1.17,1.37,9.93,9.93,0,0,0-.79,2.75,27.44,27.44,0,0,0-.3,4.49,27.79,27.79,0,0,0,.3,4.51,10.52,10.52,0,0,0,.79,2.82,3.21,3.21,0,0,0,1.17,1.46A2.75,2.75,0,0,0,80.49,243.18Z"/><path class="cls-2" d="M94.49,242.47h5.8V227h-5v-3.84a21.6,21.6,0,0,0,3.69-1,18.5,18.5,0,0,0,2.93-1.44h4.53v21.77h5v5h-17Z"/><path class="cls-2" d="M116.26,230.45a3.94,3.94,0,0,1,1.07-2.81,3.75,3.75,0,0,1,5.33,0,3.94,3.94,0,0,1,1.07,2.81,3.83,3.83,0,0,1-1.07,2.76,3.71,3.71,0,0,1-5.33,0A3.83,3.83,0,0,1,116.26,230.45Zm0,13.68a3.9,3.9,0,0,1,1.07-2.81,3.71,3.71,0,0,1,5.33,0,3.9,3.9,0,0,1,1.07,2.81,3.85,3.85,0,0,1-1.07,2.76,3.75,3.75,0,0,1-5.33,0A3.85,3.85,0,0,1,116.26,244.13Z"/><path class="cls-2" d="M127.84,244q2.55-2.4,4.68-4.5c1.41-1.38,2.62-2.69,3.64-3.91a21.24,21.24,0,0,0,2.4-3.42,6.36,6.36,0,0,0,.85-3,4.14,4.14,0,0,0-1-3,3.66,3.66,0,0,0-2.77-1,4.27,4.27,0,0,0-2.6.83,13.59,13.59,0,0,0-2.13,1.92l-3.37-3.33a14.92,14.92,0,0,1,4-3.19,10.37,10.37,0,0,1,4.9-1.07,10.56,10.56,0,0,1,3.59.59,8.77,8.77,0,0,1,2.79,1.74,7.52,7.52,0,0,1,1.79,2.68,9.09,9.09,0,0,1,.63,3.5,9,9,0,0,1-.71,3.44,18.33,18.33,0,0,1-1.91,3.5,39.61,39.61,0,0,1-2.72,3.51q-1.55,1.76-3.16,3.43c.66-.08,1.41-.15,2.23-.23s1.57-.11,2.21-.11h5.37v5.24H127.84Z"/><path class="cls-2" d="M159.5,248a8.11,8.11,0,0,1-6.9-3.59,13.89,13.89,0,0,1-1.93-4.39,23.62,23.62,0,0,1-.69-6,23.35,23.35,0,0,1,.69-6,13.88,13.88,0,0,1,1.93-4.32,8.13,8.13,0,0,1,3-2.62,9.37,9.37,0,0,1,7.8,0,8,8,0,0,1,3,2.62,13.23,13.23,0,0,1,1.94,4.32,23.37,23.37,0,0,1,.68,6,23.64,23.64,0,0,1-.68,6,13.26,13.26,0,0,1-1.94,4.39,8.12,8.12,0,0,1-3,2.68A8.33,8.33,0,0,1,159.5,248Zm0-4.82a2.83,2.83,0,0,0,1.48-.39,3.27,3.27,0,0,0,1.17-1.46,9.57,9.57,0,0,0,.77-2.82,30.83,30.83,0,0,0,.27-4.51,30.44,30.44,0,0,0-.27-4.49,9,9,0,0,0-.77-2.75,3.25,3.25,0,0,0-1.17-1.37,3,3,0,0,0-1.48-.38,2.94,2.94,0,0,0-1.43.38,3.11,3.11,0,0,0-1.16,1.37,9.57,9.57,0,0,0-.8,2.75,27.44,27.44,0,0,0-.3,4.49,27.79,27.79,0,0,0,.3,4.51,10.13,10.13,0,0,0,.8,2.82,3.13,3.13,0,0,0,1.16,1.46A2.75,2.75,0,0,0,159.5,243.18Z"/><path class="cls-2" d="M181.64,248a8.15,8.15,0,0,1-6.9-3.59,13.67,13.67,0,0,1-1.92-4.39,23.59,23.59,0,0,1-.7-6,23.32,23.32,0,0,1,.7-6,13.65,13.65,0,0,1,1.92-4.32,8.08,8.08,0,0,1,3-2.62,9.35,9.35,0,0,1,7.79,0,8.08,8.08,0,0,1,3,2.62,13.65,13.65,0,0,1,1.92,4.32,22.89,22.89,0,0,1,.7,6,23.15,23.15,0,0,1-.7,6,13.67,13.67,0,0,1-1.92,4.39,8.15,8.15,0,0,1-6.91,3.59Zm0-4.82a2.83,2.83,0,0,0,1.48-.39,3.21,3.21,0,0,0,1.17-1.46,9.57,9.57,0,0,0,.77-2.82,30.64,30.64,0,0,0,.28-4.51,30.25,30.25,0,0,0-.28-4.49,9,9,0,0,0-.77-2.75,3.19,3.19,0,0,0-1.17-1.37,3,3,0,0,0-1.48-.38,2.81,2.81,0,0,0-1.41.38,3.22,3.22,0,0,0-1.19,1.37,10.67,10.67,0,0,0-.79,2.75A27.59,27.59,0,0,0,178,234a28,28,0,0,0,.29,4.51,11.31,11.31,0,0,0,.79,2.82,3.23,3.23,0,0,0,1.19,1.46A2.63,2.63,0,0,0,181.64,243.18Z"/><path class="cls-2" d="M194.47,240.66a6,6,0,0,1,1.33-4,10.92,10.92,0,0,1,3.2-2.58v-.17a11.33,11.33,0,0,1-2.55-2.68,6.34,6.34,0,0,1-1-3.64,7.42,7.42,0,0,1,.63-3.07,6.91,6.91,0,0,1,1.77-2.34,7.83,7.83,0,0,1,2.7-1.48,11.68,11.68,0,0,1,3.42-.49,10,10,0,0,1,3.31.52,7.23,7.23,0,0,1,2.56,1.47,6.79,6.79,0,0,1,1.64,2.32,7.81,7.81,0,0,1,.58,3A5.84,5.84,0,0,1,211,231a9.55,9.55,0,0,1-2.44,2.43v.17a10.56,10.56,0,0,1,3.28,2.7,6.53,6.53,0,0,1,1.34,4.3,6.36,6.36,0,0,1-.67,2.95,6.75,6.75,0,0,1-1.91,2.33,8.8,8.8,0,0,1-3,1.57,12.06,12.06,0,0,1-3.87.57,12.19,12.19,0,0,1-3.71-.53A9,9,0,0,1,197.1,246a7,7,0,0,1-1.93-2.32A6.63,6.63,0,0,1,194.47,240.66Zm5.29-.72A3.35,3.35,0,0,0,201,242.7a4.41,4.41,0,0,0,2.9,1,3.82,3.82,0,0,0,2.55-.83,3,3,0,0,0,1-2.51,2.75,2.75,0,0,0-.4-1.51,4.36,4.36,0,0,0-1.15-1.16,9.66,9.66,0,0,0-1.79-1c-.68-.31-1.43-.65-2.27-1a7,7,0,0,0-1.47,1.94A4.71,4.71,0,0,0,199.76,239.94Zm5.67-8.05a6.06,6.06,0,0,0,1.64-3.93,3.63,3.63,0,0,0-.87-2.51,3.38,3.38,0,0,0-4.46-.19,2.92,2.92,0,0,0-.88,2.33,3,3,0,0,0,1.25,2.57A14.74,14.74,0,0,0,205.43,231.89Z"/></g></g></g></svg>