<svg xmlns="http://www.w3.org/2000/svg" viewBox="0 0 164 72.01"><defs><style>.cls-1{fill:#f1f2f2;}.cls-2{fill:#0066b2;}.cls-3{fill:#f9a533;}.cls-4{fill:#fbb231;}.cls-12,.cls-4,.cls-5,.cls-6{fill-rule:evenodd;}.cls-5{fill:#ec1c2e;}.cls-6,.cls-8{fill:#fff;}.cls-11,.cls-7{fill:none;}.cls-7{stroke:#fff;stroke-miterlimit:2.61;stroke-width:0.22px;}.cls-9{fill:#0078a9;}.cls-10{fill:#009de2;}.cls-12{fill:#113984;}.cls-13{fill:#ce0e2d;}</style></defs><title>Asset 2</title><g id="Layer_2" data-name="Layer 2"><g id="Layer_1-2" data-name="Layer 1"><path class="cls-1" d="M56.08,70.76A1.27,1.27,0,0,1,54.78,72H18.3A1.27,1.27,0,0,1,17,70.76v-21a1.27,1.27,0,0,1,1.3-1.25H54.78a1.27,1.27,0,0,1,1.3,1.25Z"/><polygon class="cls-2" points="34.8 64.39 32.66 64.39 33.99 56.18 36.13 56.18 34.8 64.39"/><path class="cls-2" d="M30.86,56.18l-2,5.65-.24-1.22h0l-.72-3.69a.92.92,0,0,0-1-.74H23.47l0,.14a7.88,7.88,0,0,1,2.23.94l1.86,7.13h2.23l3.4-8.21Z"/><path class="cls-2" d="M47.68,64.39h2l-1.71-8.21H46.21a1,1,0,0,0-1,.61L42,64.39h2.22l.45-1.22h2.72Zm-2.35-2.9,1.12-3.08.63,3.08Z"/><path class="cls-2" d="M42.2,58.15l.31-1.76A6.14,6.14,0,0,0,40.58,56c-1.06,0-3.58.46-3.58,2.72S40,60.9,40,62s-2.65.92-3.53.22l-.32,1.84a6.08,6.08,0,0,0,2.42.46c1.46,0,3.66-.75,3.66-2.81s-3-2.33-3-3.26S41.29,57.65,42.2,58.15Z"/><path class="cls-3" d="M28.58,60.61l-.72-3.69a.92.92,0,0,0-1-.74H23.47l0,.14a8.25,8.25,0,0,1,3.17,1.59A6.34,6.34,0,0,1,28.58,60.61Z"/><path class="cls-1" d="M104.52,70.76A1.28,1.28,0,0,1,103.21,72H66.73a1.27,1.27,0,0,1-1.3-1.25v-21a1.27,1.27,0,0,1,1.3-1.25h36.48a1.28,1.28,0,0,1,1.31,1.25Z"/><polygon class="cls-4" points="90.23 68.14 90.64 68.13 91.03 68.1 91.43 68.05 91.81 67.98 92.19 67.89 92.57 67.78 92.93 67.66 93.29 67.52 93.64 67.36 93.98 67.19 94.31 67 94.63 66.8 94.94 66.57 95.23 66.34 95.52 66.1 95.79 65.83 96.06 65.56 96.3 65.27 96.53 64.98 96.75 64.67 96.96 64.35 97.15 64.02 97.32 63.68 97.48 63.33 97.62 62.98 97.74 62.61 97.85 62.23 97.94 61.85 98.01 61.47 98.06 61.07 98.09 60.67 98.1 60.27 98.09 59.87 98.06 59.47 98.01 59.08 97.94 58.69 97.85 58.31 97.74 57.94 97.62 57.58 97.48 57.22 97.32 56.88 97.15 56.53 96.96 56.21 96.75 55.89 96.53 55.58 96.3 55.29 96.06 55 95.79 54.73 95.52 54.47 95.23 54.22 94.94 53.99 94.63 53.77 94.31 53.56 93.98 53.38 93.64 53.2 93.29 53.05 92.93 52.91 92.57 52.78 92.19 52.68 91.81 52.59 91.43 52.52 91.03 52.47 90.64 52.44 90.23 52.43 89.83 52.44 89.43 52.47 89.03 52.52 88.65 52.59 88.27 52.68 87.89 52.78 87.53 52.91 87.17 53.05 86.83 53.2 86.49 53.38 86.16 53.56 85.84 53.77 85.54 53.99 85.24 54.22 84.96 54.47 84.68 54.73 84.42 55 84.18 55.29 83.94 55.58 83.72 55.89 83.52 56.21 83.33 56.53 83.16 56.88 83 57.22 82.86 57.58 82.74 57.94 82.64 58.31 82.55 58.69 82.48 59.08 82.43 59.47 82.4 59.87 82.39 60.27 82.4 60.67 82.43 61.07 82.48 61.47 82.55 61.85 82.64 62.23 82.74 62.61 82.86 62.98 83 63.33 83.16 63.68 83.33 64.02 83.52 64.35 83.72 64.67 83.94 64.98 84.18 65.27 84.42 65.56 84.68 65.83 84.96 66.1 85.24 66.34 85.54 66.57 85.84 66.8 86.16 67 86.49 67.19 86.83 67.36 87.17 67.52 87.53 67.66 87.89 67.78 88.27 67.89 88.65 67.98 89.03 68.05 89.43 68.1 89.83 68.13 90.23 68.14 90.23 68.14 90.23 68.14"/><polygon class="cls-5" points="79.72 68.14 80.12 68.13 80.52 68.1 80.92 68.05 81.3 67.98 81.68 67.89 82.06 67.78 82.42 67.66 82.78 67.52 83.12 67.36 83.46 67.19 83.79 67 84.11 66.8 84.41 66.57 84.71 66.34 84.99 66.1 85.27 65.83 85.53 65.56 85.77 65.27 86.01 64.98 86.22 64.67 86.43 64.35 86.61 64.02 86.79 63.68 86.95 63.33 87.09 62.98 87.21 62.61 87.31 62.23 87.4 61.85 87.47 61.47 87.52 61.07 87.55 60.67 87.56 60.27 87.55 59.87 87.52 59.47 87.47 59.08 87.4 58.69 87.31 58.31 87.21 57.94 87.09 57.58 86.95 57.22 86.79 56.88 86.61 56.53 86.43 56.21 86.22 55.89 86.01 55.58 85.77 55.29 85.53 55 85.27 54.73 84.99 54.47 84.71 54.22 84.41 53.99 84.11 53.77 83.79 53.56 83.46 53.38 83.12 53.2 82.78 53.05 82.42 52.91 82.06 52.78 81.68 52.68 81.3 52.59 80.92 52.52 80.52 52.47 80.12 52.44 79.72 52.43 79.31 52.44 78.91 52.47 78.52 52.52 78.14 52.59 77.75 52.68 77.38 52.78 77.02 52.91 76.66 53.05 76.31 53.2 75.97 53.38 75.64 53.56 75.32 53.77 75.01 53.99 74.72 54.22 74.43 54.47 74.16 54.73 73.89 55 73.65 55.29 73.42 55.58 73.19 55.89 72.99 56.21 72.8 56.53 72.63 56.88 72.47 57.22 72.33 57.58 72.2 57.94 72.1 58.31 72.01 58.69 71.94 59.08 71.89 59.47 71.86 59.87 71.85 60.27 71.86 60.67 71.89 61.07 71.94 61.47 72.01 61.85 72.1 62.23 72.2 62.61 72.33 62.98 72.47 63.33 72.63 63.68 72.8 64.02 72.99 64.35 73.19 64.67 73.42 64.98 73.65 65.27 73.89 65.56 74.16 65.83 74.43 66.1 74.72 66.34 75.01 66.57 75.32 66.8 75.64 67 75.97 67.19 76.31 67.36 76.66 67.52 77.02 67.66 77.38 67.78 77.75 67.89 78.14 67.98 78.52 68.05 78.91 68.1 79.31 68.13 79.72 68.14 79.72 68.14 79.72 68.14"/><polygon class="cls-4" points="84.06 55.44 88.23 55.44 88.23 55.02 84.42 55.02 84.06 55.44 84.06 55.44 84.06 55.44"/><polygon class="cls-4" points="83.43 56.39 88.23 56.39 88.23 55.96 83.68 55.96 83.43 56.39 83.43 56.39 83.43 56.39"/><polygon class="cls-4" points="82.97 57.34 88.23 57.34 88.23 56.91 83.15 56.91 82.97 57.34 82.97 57.34 82.97 57.34"/><polygon class="cls-4" points="82.64 58.28 88.23 58.28 88.23 57.85 82.78 57.85 82.64 58.28 82.64 58.28 82.64 58.28"/><polygon class="cls-4" points="82.83 62.87 88.24 62.87 88.24 62.44 82.69 62.44 82.83 62.87 82.83 62.87 82.83 62.87"/><polygon class="cls-4" points="83.23 63.82 88.24 63.82 88.24 63.39 83.03 63.39 83.23 63.82 83.23 63.82 83.23 63.82"/><polygon class="cls-4" points="83.79 64.76 88.24 64.76 88.24 64.34 83.52 64.34 83.79 64.76 83.79 64.76 83.79 64.76"/><polygon class="cls-4" points="84.56 65.71 88.24 65.71 88.24 65.28 84.19 65.28 84.56 65.71 84.56 65.71 84.56 65.71"/><polygon class="cls-4" points="82.45 59.23 88.23 59.23 88.23 58.8 82.54 58.8 82.45 59.23 82.45 59.23 82.45 59.23"/><polygon class="cls-4" points="85.97 61.92 88.18 61.92 88.18 61.5 86.05 61.5 85.97 61.92 85.97 61.92 85.97 61.92"/><polygon class="cls-4" points="86.15 60.98 88.18 60.98 88.18 60.55 86.23 60.55 86.15 60.98 86.15 60.98 86.15 60.98"/><polygon class="cls-4" points="82.31 60.55 82.88 60.55 82.88 60.98 82.34 60.98 82.31 60.55 82.31 60.55 82.31 60.55"/><polygon class="cls-6" points="81.24 60.03 81.2 60.03 81.17 60.02 81.13 60.02 81.1 60.01 81.07 60.01 81.03 60 81 60 80.96 59.99 80.92 59.99 80.88 59.98 80.83 59.98 80.78 59.98 80.73 59.98 80.67 59.98 80.6 59.99 80.52 59.99 80.47 60 80.42 60.01 80.38 60.02 80.33 60.04 80.3 60.06 80.26 60.08 80.23 60.1 80.21 60.13 80.19 60.16 80.18 60.19 80.18 60.22 80.18 60.25 80.19 60.28 80.19 60.32 80.22 60.35 80.24 60.39 80.3 60.44 80.36 60.48 80.43 60.51 80.51 60.54 80.6 60.57 80.68 60.6 80.77 60.63 80.86 60.66 80.94 60.71 81.01 60.77 81.08 60.83 81.13 60.91 81.18 61.01 81.2 61.13 81.21 61.27 81.2 61.44 81.18 61.57 81.15 61.68 81.11 61.77 81.06 61.86 81 61.94 80.92 62.01 80.85 62.07 80.77 62.12 80.68 62.16 80.6 62.19 80.51 62.22 80.42 62.24 80.32 62.25 80.24 62.26 80.15 62.26 80.07 62.27 79.95 62.27 79.85 62.26 79.75 62.26 79.67 62.26 79.59 62.26 79.52 62.25 79.45 62.25 79.39 62.24 79.34 62.24 79.29 62.23 79.23 62.22 79.19 62.2 79.14 62.2 79.11 62.18 79.06 62.16 79.02 62.15 79.14 61.56 79.16 61.57 79.19 61.57 79.22 61.59 79.27 61.6 79.32 61.6 79.37 61.62 79.43 61.63 79.49 61.64 79.56 61.65 79.63 61.66 79.7 61.67 79.77 61.68 79.85 61.68 79.93 61.68 80 61.68 80.08 61.68 80.16 61.67 80.22 61.65 80.27 61.61 80.3 61.58 80.33 61.54 80.35 61.5 80.36 61.45 80.38 61.42 80.38 61.34 80.36 61.27 80.31 61.22 80.25 61.17 80.17 61.13 80.07 61.09 79.97 61.06 79.87 61.02 79.76 60.97 79.66 60.91 79.57 60.85 79.48 60.76 79.42 60.66 79.37 60.54 79.35 60.4 79.35 60.23 79.36 60.13 79.38 60.03 79.4 59.94 79.44 59.85 79.48 59.77 79.53 59.7 79.58 59.64 79.65 59.58 79.72 59.53 79.81 59.49 79.91 59.45 80.01 59.42 80.13 59.4 80.26 59.38 80.4 59.37 80.56 59.36 80.66 59.36 80.75 59.37 80.83 59.37 80.91 59.37 80.97 59.38 81.03 59.38 81.08 59.39 81.13 59.39 81.18 59.4 81.22 59.41 81.25 59.41 81.28 59.41 81.31 59.42 81.33 59.42 81.36 59.43 81.38 59.43 81.24 60.03 81.24 60.03 81.24 60.03"/><polyline class="cls-7" points="81.24 60.03 81.24 60.03 81.2 60.03 81.17 60.02 81.13 60.02 81.1 60.01 81.07 60.01 81.03 60 81 60 80.96 59.99 80.92 59.99 80.88 59.98 80.83 59.98 80.78 59.98 80.73 59.98 80.67 59.98 80.6 59.99 80.52 59.99 80.52 59.99 80.47 60 80.42 60.01 80.38 60.02 80.33 60.04 80.3 60.06 80.26 60.08 80.23 60.1 80.21 60.13 80.19 60.16 80.18 60.19 80.18 60.22 80.18 60.25 80.19 60.28 80.19 60.32 80.22 60.35 80.24 60.39 80.24 60.39 80.3 60.44 80.36 60.48 80.43 60.51 80.51 60.54 80.6 60.57 80.68 60.6 80.77 60.63 80.86 60.66 80.94 60.71 81.01 60.77 81.08 60.83 81.13 60.91 81.18 61.01 81.2 61.13 81.21 61.27 81.2 61.44 81.2 61.44 81.18 61.57 81.15 61.68 81.11 61.77 81.06 61.86 81 61.94 80.92 62.01 80.85 62.07 80.77 62.12 80.68 62.16 80.6 62.19 80.51 62.22 80.42 62.24 80.32 62.25 80.24 62.26 80.15 62.26 80.07 62.27 80.07 62.27 79.95 62.27 79.85 62.26 79.75 62.26 79.67 62.26 79.59 62.26 79.52 62.25 79.45 62.25 79.39 62.24 79.34 62.24 79.29 62.23 79.23 62.22 79.19 62.2 79.14 62.2 79.11 62.18 79.06 62.16 79.02 62.15 79.14 61.56 79.14 61.56 79.16 61.57 79.19 61.57 79.22 61.59 79.27 61.6 79.32 61.6 79.37 61.62 79.43 61.63 79.49 61.64 79.56 61.65 79.63 61.66 79.7 61.67 79.77 61.68 79.85 61.68 79.93 61.68 80 61.68 80.08 61.68 80.08 61.68 80.16 61.67 80.22 61.65 80.27 61.61 80.3 61.58 80.33 61.54 80.35 61.5 80.36 61.45 80.38 61.42 80.38 61.42 80.38 61.34 80.36 61.27 80.31 61.22 80.25 61.17 80.17 61.13 80.07 61.09 79.97 61.06 79.87 61.02 79.76 60.97 79.66 60.91 79.57 60.85 79.48 60.76 79.42 60.66 79.37 60.54 79.35 60.4 79.35 60.23 79.35 60.23 79.36 60.13 79.38 60.03 79.4 59.94 79.44 59.85 79.48 59.77 79.53 59.7 79.58 59.64 79.65 59.58 79.72 59.53 79.81 59.49 79.91 59.45 80.01 59.42 80.13 59.4 80.26 59.38 80.4 59.37 80.56 59.36 80.56 59.36 80.66 59.36 80.75 59.37 80.83 59.37 80.91 59.37 80.97 59.38 81.03 59.38 81.08 59.39 81.13 59.39 81.18 59.4 81.22 59.41 81.25 59.41 81.28 59.41 81.31 59.42 81.33 59.42 81.36 59.43 81.38 59.43 81.24 60.03"/><polygon class="cls-6" points="81.87 58.78 82.6 58.78 82.49 59.42 82.94 59.42 82.84 60.02 82.38 60 82.12 61.48 82.12 61.53 82.13 61.58 82.16 61.61 82.19 61.65 82.24 61.66 82.29 61.68 82.35 61.69 82.42 61.69 82.47 61.69 82.53 61.69 82.57 61.68 82.62 61.67 82.65 61.66 82.67 61.65 82.69 61.65 82.69 61.64 82.6 62.13 82.58 62.15 82.57 62.16 82.55 62.17 82.53 62.18 82.51 62.18 82.49 62.2 82.47 62.2 82.44 62.21 82.42 62.22 82.39 62.23 82.36 62.23 82.33 62.23 82.29 62.24 82.25 62.25 82.21 62.25 82.16 62.25 81.96 62.25 81.86 62.25 81.76 62.24 81.68 62.22 81.61 62.2 81.55 62.18 81.5 62.15 81.45 62.12 81.42 62.09 81.39 62.05 81.37 62 81.36 61.96 81.35 61.91 81.35 61.85 81.35 61.8 81.36 61.73 81.36 61.67 81.87 58.78 81.87 58.78 81.87 58.78"/><polyline class="cls-7" points="81.87 58.78 82.6 58.78 82.49 59.42 82.94 59.42 82.84 60.02 82.38 60 82.12 61.48 82.12 61.48 82.12 61.53 82.13 61.58 82.16 61.61 82.19 61.65 82.24 61.66 82.29 61.68 82.35 61.69 82.42 61.69 82.42 61.69 82.47 61.69 82.53 61.69 82.57 61.68 82.62 61.67 82.65 61.66 82.67 61.65 82.69 61.65 82.69 61.64 82.6 62.13 82.6 62.13 82.58 62.15 82.57 62.16 82.55 62.17 82.53 62.18 82.51 62.18 82.49 62.2 82.47 62.2 82.44 62.21 82.42 62.22 82.39 62.23 82.36 62.23 82.33 62.23 82.29 62.24 82.25 62.25 82.21 62.25 82.16 62.25 81.96 62.25 81.96 62.25 81.86 62.25 81.76 62.24 81.68 62.22 81.61 62.2 81.55 62.18 81.5 62.15 81.45 62.12 81.42 62.09 81.39 62.05 81.37 62 81.36 61.96 81.35 61.91 81.35 61.85 81.35 61.8 81.36 61.73 81.36 61.67 81.87 58.78"/><polyline class="cls-7" points="83.52 61.02 83.52 61.02 83.51 61.06 83.51 61.11 83.52 61.16 83.53 61.21 83.55 61.26 83.57 61.31 83.6 61.36 83.63 61.4 83.67 61.45 83.71 61.49 83.75 61.53 83.8 61.56 83.84 61.59 83.9 61.61 83.95 61.63 84 61.64 84 61.64 84.07 61.65 84.14 61.66 84.2 61.67 84.27 61.67 84.34 61.68 84.42 61.68 84.49 61.67 84.56 61.67 84.63 61.66 84.7 61.65 84.77 61.63 84.84 61.6 84.92 61.57 85 61.54 85.07 61.5 85.15 61.45 85.04 62.1 85.04 62.1 85 62.13 84.96 62.15 84.91 62.16 84.88 62.18 84.84 62.2 84.79 62.21 84.75 62.22 84.7 62.23 84.66 62.23 84.6 62.24 84.55 62.25 84.49 62.25 84.42 62.25 84.35 62.25 84.26 62.25 84.18 62.25 84.18 62.25 84.05 62.25 83.92 62.24 83.78 62.22 83.65 62.19 83.52 62.15 83.39 62.1 83.28 62.03 83.16 61.95 83.06 61.87 82.97 61.76 82.89 61.63 82.83 61.5 82.79 61.34 82.76 61.16 82.75 60.97 82.76 60.75 82.76 60.75 82.77 60.66 82.79 60.56 82.81 60.46 82.84 60.35 82.88 60.24 82.92 60.12 82.99 60.01 83.06 59.9 83.15 59.79 83.25 59.69 83.37 59.6 83.5 59.52 83.65 59.45 83.82 59.41 84.02 59.37 84.23 59.36 84.23 59.36 84.33 59.37 84.44 59.38 84.55 59.4 84.66 59.42 84.77 59.46 84.87 59.51 84.97 59.57 85.05 59.65 85.13 59.74 85.2 59.84 85.25 59.97 85.29 60.1 85.31 60.26 85.31 60.45 85.3 60.65 85.25 60.87 85.24 61.03 83.31 61.03 83.43 60.51 84.59 60.51 84.59 60.51 84.6 60.44 84.59 60.38 84.59 60.32 84.58 60.27 84.56 60.22 84.54 60.17 84.52 60.13 84.49 60.09 84.45 60.06 84.42 60.03 84.38 60.01 84.34 59.99 84.3 59.98 84.26 59.97 84.21 59.95 84.16 59.95 84.16 59.95 84.11 59.95 84.07 59.96 84.02 59.97 83.98 59.99 83.93 60.01 83.89 60.03 83.85 60.06 83.81 60.09 83.78 60.13 83.75 60.17 83.72 60.21 83.7 60.26 83.67 60.31 83.66 60.36 83.64 60.41 83.63 60.47 83.52 61.02"/><polygon class="cls-6" points="89.84 59.58 89.81 59.56 89.77 59.54 89.73 59.52 89.69 59.5 89.65 59.49 89.61 59.47 89.57 59.46 89.52 59.44 89.47 59.43 89.42 59.42 89.36 59.41 89.31 59.4 89.25 59.4 89.19 59.39 89.12 59.39 89.06 59.39 88.99 59.39 88.92 59.4 88.85 59.4 88.77 59.41 88.7 59.44 88.63 59.47 88.55 59.5 88.48 59.55 88.4 59.61 88.34 59.68 88.27 59.76 88.21 59.86 88.15 59.98 88.09 60.11 88.04 60.26 88 60.43 87.99 60.52 87.97 60.62 87.97 60.71 87.97 60.8 87.98 60.89 88 60.97 88.02 61.05 88.05 61.13 88.09 61.2 88.14 61.27 88.19 61.33 88.26 61.39 88.33 61.44 88.41 61.48 88.5 61.51 88.6 61.53 88.64 61.54 88.68 61.55 88.72 61.55 88.78 61.56 88.83 61.57 88.9 61.57 88.96 61.57 89.03 61.56 89.1 61.55 89.16 61.54 89.23 61.52 89.3 61.5 89.36 61.47 89.43 61.44 89.48 61.4 89.53 61.35 89.41 62.05 89.4 62.07 89.39 62.08 89.36 62.1 89.34 62.12 89.31 62.14 89.27 62.16 89.23 62.18 89.18 62.19 89.12 62.21 89.05 62.23 88.97 62.23 88.88 62.25 88.78 62.25 88.66 62.25 88.52 62.25 88.37 62.24 88.25 62.23 88.13 62.2 88.01 62.16 87.89 62.11 87.77 62.05 87.66 61.97 87.55 61.88 87.45 61.77 87.37 61.65 87.29 61.52 87.23 61.37 87.18 61.21 87.15 61.03 87.14 60.84 87.14 60.63 87.17 60.41 87.19 60.31 87.22 60.2 87.24 60.1 87.27 60 87.3 59.9 87.33 59.81 87.37 59.73 87.41 59.65 87.45 59.56 87.49 59.48 87.53 59.41 87.58 59.34 87.63 59.27 87.68 59.21 87.73 59.15 87.79 59.1 87.85 59.05 87.91 58.99 87.97 58.95 88.04 58.91 88.11 58.87 88.18 58.83 88.26 58.8 88.33 58.77 88.42 58.74 88.5 58.73 88.58 58.7 88.67 58.69 88.76 58.68 88.86 58.67 88.95 58.66 89.06 58.66 89.14 58.66 89.22 58.67 89.3 58.67 89.38 58.68 89.45 58.7 89.53 58.71 89.6 58.73 89.66 58.74 89.72 58.76 89.77 58.77 89.82 58.79 89.86 58.8 89.9 58.82 89.93 58.83 89.96 58.84 89.97 58.84 89.84 59.58 89.84 59.58 89.84 59.58"/><polyline class="cls-7" points="89.84 59.58 89.84 59.58 89.81 59.56 89.77 59.54 89.73 59.52 89.69 59.5 89.65 59.49 89.61 59.47 89.57 59.46 89.52 59.44 89.47 59.43 89.42 59.42 89.36 59.41 89.31 59.4 89.25 59.4 89.19 59.39 89.12 59.39 89.06 59.39 89.06 59.39 88.99 59.39 88.92 59.4 88.85 59.4 88.77 59.41 88.7 59.44 88.63 59.47 88.55 59.5 88.48 59.55 88.4 59.61 88.34 59.68 88.27 59.76 88.21 59.86 88.15 59.98 88.09 60.11 88.04 60.26 88 60.43 88 60.43 87.99 60.52 87.97 60.62 87.97 60.71 87.97 60.8 87.98 60.89 88 60.97 88.02 61.05 88.05 61.13 88.09 61.2 88.14 61.27 88.19 61.33 88.26 61.39 88.33 61.44 88.41 61.48 88.5 61.51 88.6 61.53 88.6 61.53 88.64 61.54 88.68 61.55 88.72 61.55 88.78 61.56 88.83 61.57 88.9 61.57 88.96 61.57 89.03 61.56 89.1 61.55 89.16 61.54 89.23 61.52 89.3 61.5 89.36 61.47 89.43 61.44 89.48 61.4 89.53 61.35 89.41 62.05 89.41 62.05 89.4 62.07 89.39 62.08 89.36 62.1 89.34 62.12 89.31 62.14 89.27 62.16 89.23 62.18 89.18 62.19 89.12 62.21 89.05 62.23 88.97 62.23 88.88 62.25 88.78 62.25 88.66 62.25 88.52 62.25 88.37 62.24 88.37 62.24 88.25 62.23 88.13 62.2 88.01 62.16 87.89 62.11 87.77 62.05 87.66 61.97 87.55 61.88 87.45 61.77 87.37 61.65 87.29 61.52 87.23 61.37 87.18 61.21 87.15 61.03 87.14 60.84 87.14 60.63 87.17 60.41 87.17 60.41 87.19 60.31 87.22 60.2 87.24 60.1 87.27 60 87.3 59.9 87.33 59.81 87.37 59.73 87.41 59.65 87.45 59.56 87.49 59.48 87.53 59.41 87.58 59.34 87.63 59.27 87.68 59.21 87.73 59.15 87.79 59.1 87.85 59.05 87.91 58.99 87.97 58.95 88.04 58.91 88.11 58.87 88.18 58.83 88.26 58.8 88.33 58.77 88.42 58.74 88.5 58.73 88.58 58.7 88.67 58.69 88.76 58.68 88.86 58.67 88.95 58.66 89.06 58.66 89.06 58.66 89.14 58.66 89.22 58.67 89.3 58.67 89.38 58.68 89.45 58.7 89.53 58.71 89.6 58.73 89.66 58.74 89.72 58.76 89.77 58.77 89.82 58.79 89.86 58.8 89.9 58.82 89.93 58.83 89.96 58.84 89.97 58.84 89.84 59.58"/><polygon class="cls-6" points="96.36 62.25 95.63 62.25 95.68 61.96 95.68 61.93 95.64 61.99 95.6 62.03 95.55 62.08 95.5 62.12 95.46 62.15 95.41 62.18 95.36 62.2 95.31 62.23 95.26 62.25 95.21 62.26 95.16 62.27 95.1 62.28 95.05 62.29 95 62.29 94.95 62.3 94.9 62.3 94.76 62.28 94.63 62.25 94.52 62.21 94.41 62.15 94.31 62.07 94.23 61.98 94.16 61.88 94.09 61.77 94.04 61.65 94 61.53 93.97 61.4 93.94 61.27 93.94 61.13 93.94 60.99 93.95 60.86 93.98 60.72 94.02 60.56 94.06 60.42 94.12 60.28 94.19 60.16 94.26 60.03 94.34 59.93 94.42 59.83 94.5 59.75 94.6 59.67 94.69 59.6 94.8 59.55 94.9 59.5 95 59.46 95.11 59.44 95.22 59.42 95.32 59.42 95.4 59.42 95.47 59.43 95.54 59.44 95.61 59.46 95.66 59.48 95.72 59.5 95.77 59.53 95.82 59.56 95.86 59.6 95.9 59.63 95.94 59.66 95.97 59.7 96 59.73 96.02 59.77 96.04 59.8 96.06 59.83 96.06 59.83 96.24 58.79 96.96 58.79 96.36 62.25 96.36 62.25 96.36 62.25"/><polyline class="cls-7" points="96.36 62.25 95.63 62.25 95.68 61.96 95.68 61.93 95.68 61.93 95.64 61.99 95.6 62.03 95.55 62.08 95.5 62.12 95.46 62.15 95.41 62.18 95.36 62.2 95.31 62.23 95.26 62.25 95.21 62.26 95.16 62.27 95.1 62.28 95.05 62.29 95 62.29 94.95 62.3 94.9 62.3 94.9 62.3 94.76 62.28 94.63 62.25 94.52 62.21 94.41 62.15 94.31 62.07 94.23 61.98 94.16 61.88 94.09 61.77 94.04 61.65 94 61.53 93.97 61.4 93.94 61.27 93.94 61.13 93.94 60.99 93.95 60.86 93.98 60.72 93.98 60.72 94.02 60.56 94.06 60.42 94.12 60.28 94.19 60.16 94.26 60.03 94.34 59.93 94.42 59.83 94.5 59.75 94.6 59.67 94.69 59.6 94.8 59.55 94.9 59.5 95 59.46 95.11 59.44 95.22 59.42 95.32 59.42 95.32 59.42 95.4 59.42 95.47 59.43 95.54 59.44 95.61 59.46 95.66 59.48 95.72 59.5 95.77 59.53 95.82 59.56 95.86 59.6 95.9 59.63 95.94 59.66 95.97 59.7 96 59.73 96.02 59.77 96.04 59.8 96.06 59.83 96.06 59.83 96.24 58.79 96.96 58.79 96.36 62.25"/><polygon class="cls-4" points="95.16 61.61 95.24 61.61 95.31 61.59 95.37 61.57 95.43 61.55 95.49 61.51 95.54 61.48 95.59 61.43 95.64 61.38 95.68 61.33 95.71 61.27 95.75 61.21 95.78 61.15 95.8 61.08 95.82 61.01 95.84 60.94 95.86 60.87 95.87 60.79 95.88 60.72 95.88 60.65 95.88 60.57 95.87 60.5 95.86 60.44 95.84 60.37 95.81 60.31 95.79 60.26 95.76 60.21 95.72 60.16 95.68 60.13 95.64 60.1 95.59 60.08 95.54 60.06 95.48 60.06 95.41 60.06 95.34 60.07 95.29 60.09 95.23 60.12 95.17 60.16 95.12 60.2 95.07 60.24 95.03 60.29 94.99 60.35 94.95 60.41 94.92 60.48 94.89 60.54 94.86 60.62 94.84 60.69 94.82 60.77 94.81 60.84 94.79 60.96 94.8 61.09 94.81 61.21 94.85 61.34 94.9 61.45 94.97 61.53 95.06 61.59 95.16 61.61 95.16 61.61 95.16 61.61"/><polygon class="cls-6" points="78.89 61.67 78.79 62.25 78.12 62.25 78.14 62.15 78.15 62.05 78.16 61.98 78.17 61.93 78.14 61.98 78.1 62.02 78.04 62.06 77.99 62.1 77.93 62.13 77.86 62.16 77.79 62.2 77.72 62.23 77.64 62.25 77.56 62.26 77.49 62.28 77.4 62.29 77.33 62.3 77.26 62.3 77.18 62.29 77.11 62.28 77.02 62.26 76.93 62.23 76.86 62.2 76.79 62.16 76.73 62.12 76.68 62.07 76.64 62.02 76.6 61.97 76.57 61.91 76.54 61.85 76.52 61.79 76.51 61.73 76.49 61.67 76.49 61.61 76.48 61.55 76.48 61.5 76.49 61.39 76.51 61.29 76.53 61.2 76.57 61.11 76.61 61.02 76.65 60.95 76.71 60.88 76.78 60.81 76.84 60.75 76.92 60.69 76.99 60.64 77.07 60.6 77.16 60.56 77.24 60.53 77.34 60.51 77.43 60.49 77.43 60.49 77.44 60.49 77.47 60.49 77.49 60.48 77.52 60.48 77.56 60.48 77.6 60.47 77.64 60.47 77.69 60.46 77.74 60.46 77.78 60.45 77.83 60.45 77.87 60.45 77.91 60.45 77.94 60.44 77.98 60.44 78.04 60.44 78.1 60.45 78.16 60.45 78.22 60.45 78.26 60.45 78.3 60.45 78.33 60.45 78.34 60.45 78.34 60.44 78.36 60.39 78.37 60.33 78.38 60.28 78.36 60.23 78.34 60.17 78.31 60.12 78.27 60.08 78.22 60.05 78.16 60.02 78.1 60.01 78.03 60 77.95 60 77.88 60 77.79 60 77.71 60 77.62 60.01 77.53 60.01 77.45 60.02 77.37 60.03 77.29 60.04 77.21 60.06 77.14 60.07 77.08 60.08 77.02 60.1 76.97 60.12 76.94 60.13 76.91 60.15 77.1 59.51 77.15 59.49 77.21 59.47 77.28 59.45 77.34 59.43 77.4 59.42 77.47 59.41 77.54 59.4 77.61 59.4 77.69 59.39 77.76 59.39 77.84 59.38 77.93 59.38 78.01 59.38 78.1 59.38 78.19 59.39 78.28 59.39 78.36 59.4 78.44 59.41 78.52 59.43 78.6 59.45 78.68 59.48 78.76 59.52 78.84 59.56 78.92 59.61 78.98 59.67 79.05 59.74 79.1 59.81 79.14 59.89 79.16 59.97 79.18 60.06 79.18 60.16 79.16 60.27 78.89 61.67 78.89 61.67 78.89 61.67"/><polyline class="cls-7" points="78.89 61.67 78.79 62.25 78.12 62.25 78.12 62.25 78.14 62.15 78.15 62.05 78.16 61.98 78.17 61.93 78.17 61.93 78.14 61.98 78.1 62.02 78.04 62.06 77.99 62.1 77.93 62.13 77.86 62.16 77.79 62.2 77.72 62.23 77.64 62.25 77.56 62.26 77.49 62.28 77.4 62.29 77.33 62.3 77.26 62.3 77.18 62.29 77.11 62.28 77.11 62.28 77.02 62.26 76.93 62.23 76.86 62.2 76.79 62.16 76.73 62.12 76.68 62.07 76.64 62.02 76.6 61.97 76.57 61.91 76.54 61.85 76.52 61.79 76.51 61.73 76.49 61.67 76.49 61.61 76.48 61.55 76.48 61.5 76.48 61.5 76.49 61.39 76.51 61.29 76.53 61.2 76.57 61.11 76.61 61.02 76.65 60.95 76.71 60.88 76.78 60.81 76.84 60.75 76.92 60.69 76.99 60.64 77.07 60.6 77.16 60.56 77.24 60.53 77.34 60.51 77.43 60.49 77.43 60.49 77.43 60.49 77.44 60.49 77.47 60.49 77.49 60.48 77.52 60.48 77.56 60.48 77.6 60.47 77.64 60.47 77.69 60.46 77.74 60.46 77.78 60.45 77.83 60.45 77.87 60.45 77.91 60.45 77.94 60.44 77.98 60.44 77.98 60.44 78.04 60.44 78.1 60.45 78.16 60.45 78.22 60.45 78.26 60.45 78.3 60.45 78.33 60.45 78.34 60.45 78.34 60.45 78.34 60.44 78.36 60.39 78.37 60.33 78.38 60.28 78.38 60.28 78.36 60.23 78.34 60.17 78.31 60.12 78.27 60.08 78.22 60.05 78.16 60.02 78.1 60.01 78.03 60 78.03 60 77.95 60 77.88 60 77.79 60 77.71 60 77.62 60.01 77.53 60.01 77.45 60.02 77.37 60.03 77.29 60.04 77.21 60.06 77.14 60.07 77.08 60.08 77.02 60.1 76.97 60.12 76.94 60.13 76.91 60.15 77.1 59.51 77.1 59.51 77.15 59.49 77.21 59.47 77.28 59.45 77.34 59.43 77.4 59.42 77.47 59.41 77.54 59.4 77.61 59.4 77.69 59.39 77.76 59.39 77.84 59.38 77.93 59.38 78.01 59.38 78.1 59.38 78.19 59.39 78.28 59.39 78.28 59.39 78.36 59.4 78.44 59.41 78.52 59.43 78.6 59.45 78.68 59.48 78.76 59.52 78.84 59.56 78.92 59.61 78.98 59.67 79.05 59.74 79.1 59.81 79.14 59.89 79.16 59.97 79.18 60.06 79.18 60.16 79.16 60.27 78.89 61.67"/><polygon class="cls-5" points="78.26 60.98 78.25 60.96 78.24 60.95 78.23 60.94 78.2 60.94 78.17 60.93 78.14 60.93 78.1 60.93 78.06 60.93 78.02 60.93 77.97 60.94 77.93 60.94 77.88 60.95 77.85 60.95 77.81 60.96 77.78 60.97 77.75 60.98 77.73 60.98 77.71 60.99 77.68 61 77.65 61.01 77.61 61.03 77.58 61.05 77.54 61.06 77.51 61.09 77.47 61.11 77.44 61.14 77.4 61.17 77.38 61.2 77.35 61.24 77.33 61.27 77.31 61.32 77.31 61.36 77.31 61.45 77.32 61.52 77.34 61.57 77.38 61.61 77.42 61.64 77.47 61.66 77.51 61.67 77.55 61.67 77.63 61.67 77.7 61.66 77.77 61.65 77.83 61.63 77.88 61.61 77.93 61.59 77.98 61.56 78.02 61.53 78.05 61.51 78.08 61.48 78.11 61.45 78.13 61.42 78.15 61.38 78.17 61.35 78.18 61.32 78.19 61.29 78.21 61.22 78.23 61.13 78.24 61.05 78.26 60.98 78.26 60.98 78.26 60.98"/><polygon class="cls-6" points="73.32 62.25 72.6 62.25 73.2 58.78 74.45 58.78 74.57 60.84 75.44 58.78 76.75 58.78 76.14 62.25 75.41 62.25 75.87 59.66 75.84 59.66 74.76 62.25 73.95 62.25 73.94 62.15 73.92 61.86 73.9 61.45 73.88 60.98 73.85 60.5 73.82 60.09 73.81 59.78 73.8 59.66 73.79 59.66 73.78 59.66 73.76 59.66 73.76 59.66 73.32 62.25 73.32 62.25 73.32 62.25"/><polyline class="cls-7" points="73.32 62.25 72.6 62.25 73.2 58.78 74.45 58.78 74.57 60.84 75.44 58.78 76.75 58.78 76.14 62.25 75.41 62.25 75.87 59.66 75.84 59.66 74.76 62.25 73.95 62.25 73.95 62.25 73.94 62.15 73.92 61.86 73.9 61.45 73.88 60.98 73.85 60.5 73.82 60.09 73.81 59.78 73.8 59.66 73.8 59.66 73.79 59.66 73.78 59.66 73.76 59.66 73.76 59.66 73.32 62.25"/><polygon class="cls-6" points="92.04 61.67 91.94 62.25 91.27 62.25 91.28 62.15 91.28 62.05 91.28 61.98 91.28 61.95 91.25 61.99 91.21 62.03 91.16 62.07 91.11 62.1 91.05 62.14 90.99 62.17 90.92 62.2 90.86 62.23 90.78 62.25 90.71 62.27 90.64 62.28 90.56 62.29 90.48 62.3 90.41 62.3 90.34 62.29 90.27 62.28 90.17 62.26 90.09 62.23 90.01 62.2 89.94 62.16 89.89 62.12 89.84 62.07 89.8 62.02 89.76 61.97 89.73 61.91 89.7 61.85 89.68 61.79 89.67 61.73 89.65 61.67 89.65 61.61 89.64 61.55 89.64 61.5 89.65 61.39 89.67 61.29 89.69 61.2 89.72 61.11 89.76 61.02 89.81 60.95 89.87 60.88 89.93 60.81 90 60.75 90.07 60.69 90.15 60.64 90.23 60.6 90.31 60.56 90.4 60.53 90.48 60.51 90.57 60.49 90.58 60.49 90.59 60.49 90.61 60.49 90.64 60.48 90.67 60.48 90.71 60.48 90.75 60.47 90.79 60.47 90.84 60.46 90.89 60.46 90.93 60.45 90.98 60.45 91.02 60.45 91.06 60.45 91.09 60.44 91.12 60.44 91.18 60.44 91.25 60.45 91.31 60.45 91.37 60.45 91.42 60.45 91.46 60.45 91.48 60.45 91.49 60.45 91.5 60.44 91.51 60.39 91.52 60.33 91.52 60.28 91.51 60.23 91.49 60.17 91.45 60.12 91.41 60.08 91.37 60.05 91.31 60.02 91.25 60.01 91.19 60 91.12 60 91.04 60 90.95 60 90.87 60 90.78 60.01 90.69 60.01 90.61 60.02 90.53 60.03 90.45 60.04 90.37 60.06 90.31 60.07 90.24 60.08 90.18 60.1 90.14 60.12 90.1 60.13 90.07 60.15 90.26 59.51 90.31 59.49 90.37 59.47 90.44 59.45 90.5 59.43 90.56 59.42 90.63 59.41 90.7 59.4 90.77 59.4 90.84 59.39 90.92 59.39 91 59.38 91.08 59.38 91.16 59.38 91.25 59.38 91.34 59.39 91.43 59.39 91.5 59.4 91.58 59.41 91.66 59.43 91.75 59.45 91.83 59.48 91.91 59.52 91.99 59.56 92.07 59.61 92.13 59.67 92.19 59.74 92.25 59.81 92.28 59.89 92.32 59.97 92.34 60.06 92.34 60.16 92.32 60.27 92.04 61.67 92.04 61.67 92.04 61.67"/><polygon class="cls-6" points="91.94 62.27 91.95 62.26 92.06 61.67 92.03 61.67 91.92 62.25 91.94 62.24 91.94 62.27 91.95 62.27 91.95 62.26 91.94 62.27 91.94 62.27 91.94 62.27"/><polygon class="cls-6" points="91.25 62.25 91.27 62.27 91.94 62.27 91.94 62.24 91.27 62.24 91.28 62.25 91.25 62.25 91.25 62.27 91.27 62.27 91.25 62.25 91.25 62.25 91.25 62.25"/><polygon class="cls-6" points="91.3 61.96 91.27 61.94 91.26 61.98 91.26 62.05 91.26 62.15 91.25 62.25 91.28 62.25 91.29 62.15 91.3 62.05 91.29 61.98 91.29 61.96 91.27 61.94 91.3 61.96 91.3 61.96 91.3 61.96"/><polygon class="cls-6" points="90.27 62.3 90.27 62.3 90.34 62.31 90.41 62.32 90.48 62.31 90.56 62.31 90.64 62.3 90.72 62.28 90.79 62.26 90.86 62.24 90.93 62.22 91 62.18 91.06 62.15 91.12 62.12 91.17 62.08 91.22 62.04 91.26 62 91.3 61.96 91.27 61.94 91.23 61.98 91.2 62.01 91.15 62.05 91.1 62.09 91.04 62.12 90.98 62.15 90.92 62.18 90.85 62.21 90.78 62.23 90.71 62.25 90.64 62.26 90.56 62.27 90.48 62.28 90.41 62.28 90.34 62.27 90.27 62.26 90.27 62.26 90.27 62.3 90.27 62.3 90.27 62.3"/><polygon class="cls-6" points="89.63 61.5 89.63 61.5 89.63 61.55 89.63 61.61 89.64 61.68 89.65 61.74 89.67 61.8 89.68 61.85 89.71 61.92 89.74 61.97 89.78 62.03 89.82 62.08 89.88 62.13 89.94 62.17 90 62.21 90.08 62.25 90.17 62.27 90.27 62.3 90.27 62.26 90.18 62.24 90.09 62.22 90.02 62.18 89.95 62.15 89.89 62.1 89.85 62.06 89.81 62.01 89.77 61.95 89.74 61.9 89.72 61.84 89.69 61.79 89.68 61.73 89.67 61.67 89.67 61.61 89.66 61.55 89.66 61.5 89.66 61.5 89.63 61.5 89.63 61.5 89.63 61.5"/><polygon class="cls-6" points="90.57 60.48 90.57 60.48 90.48 60.49 90.39 60.52 90.31 60.55 90.22 60.58 90.14 60.63 90.06 60.68 89.99 60.73 89.92 60.8 89.86 60.87 89.8 60.94 89.75 61.02 89.71 61.1 89.67 61.2 89.65 61.29 89.63 61.39 89.63 61.5 89.66 61.5 89.67 61.39 89.68 61.3 89.7 61.21 89.74 61.12 89.78 61.03 89.83 60.96 89.88 60.88 89.94 60.82 90.01 60.76 90.08 60.7 90.15 60.66 90.24 60.62 90.32 60.58 90.4 60.55 90.49 60.52 90.57 60.51 90.57 60.51 90.57 60.48 90.57 60.48 90.57 60.48"/><polygon class="cls-6" points="91.12 60.42 91.12 60.42 91.09 60.42 91.06 60.43 91.02 60.43 90.98 60.43 90.93 60.44 90.89 60.44 90.84 60.45 90.79 60.45 90.75 60.46 90.71 60.46 90.67 60.47 90.64 60.47 90.61 60.47 90.59 60.48 90.58 60.48 90.57 60.48 90.57 60.51 90.58 60.51 90.6 60.51 90.61 60.5 90.64 60.5 90.67 60.5 90.71 60.49 90.75 60.49 90.79 60.48 90.84 60.48 90.89 60.47 90.93 60.47 90.98 60.47 91.02 60.46 91.06 60.46 91.09 60.46 91.12 60.46 91.12 60.46 91.12 60.42 91.12 60.42 91.12 60.42"/><polygon class="cls-6" points="91.48 60.45 91.49 60.44 91.48 60.44 91.46 60.44 91.42 60.43 91.37 60.43 91.31 60.43 91.25 60.43 91.18 60.42 91.12 60.42 91.12 60.46 91.18 60.46 91.25 60.46 91.31 60.47 91.37 60.47 91.42 60.47 91.46 60.47 91.48 60.47 91.49 60.47 91.51 60.46 91.49 60.47 91.51 60.47 91.51 60.46 91.48 60.45 91.48 60.45 91.48 60.45"/><polygon class="cls-6" points="91.5 60.28 91.5 60.28 91.5 60.33 91.49 60.38 91.48 60.43 91.48 60.45 91.51 60.46 91.52 60.44 91.52 60.39 91.53 60.33 91.54 60.28 91.54 60.28 91.5 60.28 91.5 60.28 91.5 60.28"/><polygon class="cls-6" points="91.19 60.02 91.19 60.02 91.25 60.02 91.31 60.04 91.36 60.06 91.4 60.1 91.44 60.13 91.47 60.18 91.49 60.23 91.5 60.28 91.54 60.28 91.53 60.22 91.5 60.16 91.47 60.11 91.43 60.07 91.38 60.03 91.32 60.01 91.25 59.99 91.19 59.99 91.19 59.99 91.19 60.02 91.19 60.02 91.19 60.02"/><polygon class="cls-6" points="90.05 60.15 90.08 60.16 90.11 60.15 90.14 60.13 90.19 60.12 90.24 60.1 90.31 60.09 90.38 60.07 90.45 60.06 90.53 60.05 90.61 60.04 90.69 60.03 90.78 60.02 90.87 60.02 90.95 60.02 91.04 60.02 91.12 60.02 91.19 60.02 91.19 59.99 91.12 59.99 91.04 59.98 90.95 59.98 90.87 59.99 90.78 59.99 90.69 60 90.61 60.01 90.53 60.02 90.45 60.03 90.37 60.04 90.3 60.05 90.24 60.07 90.18 60.08 90.13 60.1 90.09 60.12 90.06 60.14 90.09 60.15 90.05 60.15 90.05 60.15 90.05 60.15"/><polygon class="cls-6" points="90.25 59.49 90.24 59.51 90.05 60.15 90.09 60.15 90.27 59.51 90.26 59.53 90.25 59.49 90.24 59.5 90.24 59.51 90.25 59.49 90.25 59.49 90.25 59.49"/><polygon class="cls-6" points="91.43 59.37 91.43 59.37 91.34 59.37 91.25 59.37 91.16 59.37 91.08 59.37 91 59.37 90.92 59.37 90.84 59.37 90.77 59.38 90.7 59.38 90.63 59.4 90.56 59.41 90.5 59.42 90.43 59.43 90.37 59.45 90.31 59.47 90.25 59.49 90.26 59.53 90.32 59.5 90.38 59.48 90.44 59.46 90.5 59.45 90.57 59.44 90.64 59.43 90.7 59.41 90.77 59.41 90.84 59.41 90.92 59.4 91 59.4 91.08 59.4 91.16 59.4 91.25 59.4 91.34 59.41 91.43 59.41 91.43 59.41 91.43 59.37 91.43 59.37 91.43 59.37"/><polygon class="cls-6" points="92.34 60.27 92.34 60.27 92.35 60.16 92.35 60.06 92.33 59.97 92.3 59.88 92.26 59.8 92.21 59.73 92.14 59.66 92.08 59.6 92 59.55 91.92 59.5 91.84 59.47 91.75 59.43 91.67 59.41 91.59 59.39 91.5 59.38 91.43 59.37 91.43 59.41 91.5 59.41 91.58 59.42 91.66 59.44 91.74 59.47 91.83 59.5 91.91 59.53 91.98 59.58 92.06 59.63 92.12 59.69 92.18 59.75 92.23 59.81 92.27 59.89 92.3 59.98 92.32 60.06 92.32 60.16 92.31 60.27 92.31 60.27 92.34 60.27 92.34 60.27 92.34 60.27"/><polygon class="cls-6" points="92.06 61.67 92.06 61.67 92.34 60.27 92.31 60.27 92.03 61.67 92.03 61.67 92.06 61.67 92.06 61.67 92.06 61.67"/><polygon class="cls-4" points="91.4 60.98 91.4 60.96 91.39 60.95 91.37 60.94 91.34 60.93 91.31 60.93 91.28 60.93 91.24 60.93 91.2 60.93 91.16 60.93 91.11 60.94 91.07 60.94 91.03 60.95 90.99 60.96 90.96 60.96 90.92 60.97 90.89 60.98 90.88 60.98 90.86 60.98 90.83 61 90.8 61.01 90.76 61.02 90.74 61.04 90.69 61.05 90.66 61.08 90.63 61.1 90.59 61.13 90.56 61.16 90.53 61.2 90.51 61.23 90.49 61.27 90.48 61.32 90.47 61.36 90.47 61.45 90.48 61.52 90.5 61.57 90.53 61.61 90.57 61.64 90.62 61.66 90.66 61.67 90.71 61.67 90.79 61.67 90.86 61.66 90.93 61.65 90.99 61.62 91.05 61.6 91.1 61.58 91.15 61.55 91.19 61.52 91.23 61.49 91.26 61.46 91.29 61.43 91.31 61.39 91.33 61.36 91.34 61.33 91.36 61.3 91.36 61.27 91.38 61.19 91.39 61.12 91.4 61.04 91.4 60.98 91.4 60.98 91.4 60.98"/><polygon class="cls-6" points="96.86 61.89 96.86 61.83 96.89 61.76 96.92 61.7 96.97 61.64 97.02 61.6 97.09 61.56 97.16 61.54 97.23 61.53 97.31 61.54 97.38 61.56 97.44 61.6 97.49 61.64 97.54 61.7 97.57 61.76 97.6 61.83 97.6 61.89 97.52 61.89 97.52 61.84 97.5 61.78 97.48 61.73 97.44 61.69 97.4 61.65 97.35 61.62 97.29 61.6 97.23 61.6 97.17 61.6 97.11 61.62 97.06 61.65 97.02 61.69 96.99 61.73 96.96 61.78 96.94 61.84 96.94 61.89 96.86 61.89 96.86 61.89 96.86 61.89"/><polygon class="cls-6" points="97.1 61.89 97.1 61.73 97.24 61.73 97.28 61.74 97.31 61.74 97.33 61.75 97.34 61.76 97.36 61.77 97.37 61.79 97.38 61.81 97.38 61.83 97.38 61.85 97.37 61.87 97.36 61.89 97.36 61.89 97.24 61.89 97.25 61.89 97.27 61.89 97.29 61.88 97.31 61.88 97.31 61.87 97.32 61.86 97.32 61.85 97.32 61.83 97.32 61.82 97.31 61.8 97.31 61.8 97.3 61.8 97.29 61.79 97.27 61.79 97.26 61.79 97.24 61.79 97.16 61.79 97.16 61.89 97.1 61.89 97.1 61.89 97.1 61.89"/><polygon class="cls-6" points="96.86 61.89 96.86 61.91 96.86 61.99 96.89 62.06 96.92 62.12 96.97 62.17 97.02 62.22 97.09 62.25 97.16 62.27 97.23 62.28 97.31 62.27 97.38 62.25 97.44 62.22 97.49 62.17 97.54 62.12 97.57 62.06 97.6 61.99 97.61 61.91 97.6 61.89 97.52 61.89 97.52 61.91 97.52 61.97 97.5 62.03 97.48 62.08 97.44 62.13 97.4 62.16 97.35 62.19 97.29 62.21 97.23 62.22 97.17 62.21 97.11 62.19 97.06 62.16 97.02 62.13 96.99 62.08 96.96 62.03 96.94 61.97 96.94 61.91 96.94 61.89 96.86 61.89 96.86 61.89 96.86 61.89"/><polygon class="cls-6" points="97.1 61.89 97.1 62.05 97.16 62.05 97.16 61.92 97.23 61.92 97.31 62.05 97.36 62.05 97.28 61.92 97.31 61.92 97.32 61.92 97.34 61.91 97.35 61.9 97.36 61.89 97.24 61.89 97.23 61.9 97.16 61.9 97.16 61.89 97.1 61.89 97.1 61.89 97.1 61.89"/><path class="cls-7" d="M96.86,61.91h0v-.08l0-.07,0-.06,0-.06,0,0,.07,0,.07,0h.15l.07,0,.06,0,0,0,.05.06,0,.06,0,.07v.08h0V62l0,.07,0,.06-.05.05,0,0-.06,0-.07,0h-.15l-.07,0-.07,0,0,0,0-.05,0-.06,0-.07v-.08m.3.14H97.1v-.32h.24l0,0h0v0h0v.06h-.07l.07.13h0l-.08-.13h-.07v.13m.07-.15h.09v0h0v0h-.15v.11h.07m0,.32h.06l.06,0,.05,0,0,0,0-.05,0,0,0-.06v-.06h0v-.07l0-.06,0-.05,0,0,0,0-.05,0h-.24l0,0,0,0,0,0,0,.05,0,.06v.07h0V62L97,62l0,0,0,.05,0,0,0,0,.06,0h.06"/><polygon class="cls-6" points="92.24 62.25 92.99 62.25 92.99 62.25 93.26 60.75 93.27 60.69 93.28 60.63 93.3 60.57 93.32 60.52 93.35 60.46 93.38 60.4 93.41 60.35 93.46 60.3 93.5 60.25 93.56 60.21 93.62 60.17 93.69 60.14 93.76 60.11 93.85 60.09 93.94 60.08 94.04 60.07 94.08 60.07 94.1 60.07 94.11 60.07 94.11 60.07 94.23 59.39 94.16 59.4 94.08 59.4 94.02 59.41 93.95 59.43 93.89 59.45 93.84 59.48 93.79 59.51 93.73 59.54 93.69 59.58 93.64 59.62 93.6 59.66 93.56 59.7 93.52 59.75 93.48 59.8 93.44 59.84 93.4 59.9 93.48 59.42 92.74 59.42 92.24 62.25 92.24 62.25 92.24 62.25 92.24 62.25"/><polyline class="cls-7" points="92.24 62.25 92.99 62.25 92.99 62.25 93.26 60.75 93.26 60.75 93.27 60.69 93.28 60.63 93.3 60.57 93.32 60.52 93.35 60.46 93.38 60.4 93.41 60.35 93.46 60.3 93.5 60.25 93.56 60.21 93.62 60.17 93.69 60.14 93.76 60.11 93.85 60.09 93.94 60.08 94.04 60.07 94.04 60.07 94.08 60.07 94.1 60.07 94.11 60.07 94.11 60.07 94.23 59.39 94.23 59.39 94.16 59.4 94.08 59.4 94.02 59.41 93.95 59.43 93.89 59.45 93.84 59.48 93.79 59.51 93.73 59.54 93.69 59.58 93.64 59.62 93.6 59.66 93.56 59.7 93.52 59.75 93.48 59.8 93.44 59.84 93.4 59.9 93.48 59.42 92.74 59.42 92.24 62.25 92.24 62.25"/><polygon class="cls-6" points="85.23 62.25 85.97 62.25 85.99 62.25 86.24 60.75 86.25 60.69 86.26 60.63 86.28 60.58 86.3 60.52 86.32 60.47 86.35 60.42 86.37 60.38 86.41 60.33 86.45 60.29 86.5 60.25 86.56 60.22 86.63 60.19 86.7 60.16 86.78 60.15 86.88 60.13 86.97 60.12 86.98 60.12 86.99 60.13 87.01 60.13 87.02 60.13 87.03 60.13 87.04 60.13 87.05 60.14 87.06 60.14 87.06 60.13 87.06 60.09 87.08 60.05 87.09 59.99 87.11 59.92 87.13 59.84 87.15 59.77 87.17 59.7 87.19 59.65 87.22 59.6 87.25 59.55 87.28 59.5 87.3 59.46 87.31 59.43 87.33 59.41 87.33 59.4 87.33 59.4 87.32 59.4 87.31 59.4 87.29 59.4 87.27 59.4 87.25 59.39 87.23 59.39 87.22 59.39 87.13 59.4 87.06 59.4 86.99 59.41 86.92 59.43 86.86 59.45 86.81 59.48 86.76 59.5 86.71 59.54 86.67 59.57 86.62 59.61 86.58 59.65 86.54 59.7 86.5 59.74 86.47 59.79 86.43 59.84 86.39 59.9 86.48 59.42 85.72 59.42 85.23 62.25 85.23 62.25 85.23 62.25 85.23 62.25"/><polyline class="cls-7" points="85.23 62.25 85.97 62.25 85.99 62.25 86.24 60.75 86.24 60.75 86.25 60.69 86.26 60.63 86.28 60.58 86.3 60.52 86.32 60.47 86.35 60.42 86.37 60.38 86.41 60.33 86.45 60.29 86.5 60.25 86.56 60.22 86.63 60.19 86.7 60.16 86.78 60.15 86.88 60.13 86.97 60.12 86.97 60.12 86.98 60.12 86.99 60.13 87.01 60.13 87.02 60.13 87.03 60.13 87.04 60.13 87.05 60.14 87.06 60.14 87.06 60.14 87.06 60.13 87.06 60.09 87.08 60.05 87.09 59.99 87.11 59.92 87.13 59.84 87.15 59.77 87.17 59.7 87.17 59.7 87.19 59.65 87.22 59.6 87.25 59.55 87.28 59.5 87.3 59.46 87.31 59.43 87.33 59.41 87.33 59.4 87.33 59.4 87.33 59.4 87.32 59.4 87.31 59.4 87.29 59.4 87.27 59.4 87.25 59.39 87.23 59.39 87.22 59.39 87.22 59.39 87.13 59.4 87.06 59.4 86.99 59.41 86.92 59.43 86.86 59.45 86.81 59.48 86.76 59.5 86.71 59.54 86.67 59.57 86.62 59.61 86.58 59.65 86.54 59.7 86.5 59.74 86.47 59.79 86.43 59.84 86.39 59.9 86.48 59.42 85.72 59.42 85.23 62.25 85.23 62.25"/><polygon class="cls-4" points="96.86 65.04 96.86 65.03 96.89 64.96 96.92 64.9 96.97 64.85 97.02 64.81 97.09 64.78 97.16 64.76 97.23 64.75 97.31 64.76 97.38 64.78 97.44 64.81 97.49 64.85 97.54 64.9 97.57 64.96 97.6 65.03 97.6 65.04 97.52 65.04 97.5 64.99 97.48 64.94 97.44 64.89 97.4 64.85 97.35 64.82 97.29 64.81 97.23 64.8 97.17 64.81 97.11 64.82 97.06 64.85 97.02 64.89 96.99 64.94 96.96 64.99 96.94 65.04 96.86 65.04 96.86 65.04 96.86 65.04"/><polygon class="cls-4" points="97.1 65.04 97.1 64.95 97.24 64.95 97.28 64.95 97.31 64.95 97.33 64.96 97.34 64.97 97.36 64.98 97.37 65 97.38 65.02 97.38 65.04 97.32 65.04 97.32 65.03 97.32 65.02 97.31 65.01 97.31 65 97.3 65 97.29 64.99 97.27 64.99 97.26 64.99 97.24 64.99 97.16 64.99 97.16 65.04 97.1 65.04 97.1 65.04 97.1 65.04"/><polygon class="cls-4" points="96.86 65.1 96.86 65.04 96.94 65.04 96.94 65.05 96.94 65.1 96.86 65.1 96.86 65.1 96.86 65.1"/><polygon class="cls-4" points="97.1 65.1 97.1 65.04 97.16 65.04 97.16 65.09 97.23 65.09 97.25 65.09 97.27 65.09 97.29 65.08 97.31 65.08 97.31 65.07 97.32 65.06 97.32 65.05 97.32 65.04 97.38 65.04 97.38 65.04 97.38 65.06 97.37 65.08 97.36 65.09 97.35 65.1 97.1 65.1 97.1 65.1 97.1 65.1"/><polygon class="cls-4" points="97.52 65.1 97.52 65.05 97.52 65.04 97.6 65.04 97.61 65.1 97.52 65.1 97.52 65.1 97.52 65.1"/><polygon class="cls-4" points="96.86 65.1 96.86 65.11 96.86 65.19 96.89 65.26 96.92 65.32 96.97 65.38 97.02 65.42 97.09 65.45 97.16 65.48 97.23 65.48 97.31 65.48 97.38 65.45 97.44 65.42 97.49 65.38 97.54 65.32 97.57 65.26 97.6 65.19 97.61 65.11 97.61 65.1 97.52 65.1 97.52 65.11 97.52 65.17 97.5 65.23 97.48 65.28 97.44 65.33 97.4 65.36 97.35 65.39 97.29 65.41 97.23 65.42 97.17 65.41 97.11 65.39 97.06 65.36 97.02 65.33 96.99 65.28 96.96 65.23 96.94 65.17 96.94 65.11 96.94 65.1 96.86 65.1 96.86 65.1 96.86 65.1"/><polygon class="cls-4" points="97.1 65.1 97.1 65.25 97.16 65.25 97.16 65.12 97.23 65.12 97.31 65.25 97.36 65.25 97.28 65.12 97.31 65.12 97.32 65.12 97.34 65.11 97.35 65.1 97.35 65.1 97.1 65.1 97.1 65.1 97.1 65.1"/><path class="cls-6" d="M85.31,60.26l0-.16,0-.14,0-.12-.07-.1-.08-.09L85,59.57l-.09-.06-.1,0-.11,0-.11,0H84l-.2,0-.17,0-.15.07-.13.08-.12.09-.1.1-.09.1L83,60l-.07.11,0,.12,0,.11,0,.11,0,.1,0,.1v.5l0,.18,0,.16.06.13.08.13.09.11.1.08.12.08.11.07.13,0,.13,0,.13,0,.14,0h.92l0,0,0,0h0l0,0,0,0,.11-.66-.08,0-.07,0-.08,0-.08,0-.07,0H84.7l-.07,0H84l0,0-.06,0,0,0,0,0,0,0,0,0,0-.05,0,0,0,0,0-.05,0,0V61h1.72v-.16l0-.23,0-.19Zm-.72.25h-1v-.09l0,0v0l0-.05,0,0,0,0,0,0,0,0,0,0,0,0,0,0,0,0,0,0h.28l0,0,0,0,0,0,0,0,0,0,0,0,0,0,0,0,0,.05v.24Z"/><path class="cls-1" d="M153,70.76A1.28,1.28,0,0,1,151.65,72H115.17a1.27,1.27,0,0,1-1.3-1.25v-21a1.27,1.27,0,0,1,1.3-1.25h36.48A1.28,1.28,0,0,1,153,49.81Z"/><path class="cls-8" d="M125.11,59.65v-.44l-.22.44h-1.81l-.23-.47v.47h-3.38l-.4-.95h-.69l-.42.95h-1.75V56.79l1.28-2.92H120l.34.83v-.82h3l.66,1.39.65-1.4h9.52a1.74,1.74,0,0,1,.83.22v-.22h2.4v.32a1.93,1.93,0,0,1,1.07-.32h4.23l.37.84v-.84h2.71l.49.84v-.84h2.59v5.78h-2.66l-.63-1v1h-3.31l-.46-1h-.65l-.44,1h-2a2.61,2.61,0,0,1-1.31-.41v.41h-4V58.3c0-.2-.15-.18-.15-.18h-.14v1.53Z"/><path class="cls-8" d="M123.11,60.9h5.25l.75.85.77-.85h4a1.88,1.88,0,0,1,.74.2v-.2h3.59a1.81,1.81,0,0,1,.84.23V60.9h4.61v.21a1.57,1.57,0,0,1,.77-.21h3v.21a1.85,1.85,0,0,1,.78-.21h2.36v5.44a1.3,1.3,0,0,1-.95.35h-3.11v-.17a1.65,1.65,0,0,1-.75.17h-8.26v-1.4c0-.14-.06-.17-.18-.17h-.12v1.57h-2.58V65.13a1.64,1.64,0,0,1-.76.16H133v1.4h-3.19l-.72-.88-.77.88h-5.17Z"/><polygon class="cls-9" points="139.63 61.77 142.92 61.77 142.92 62.65 140.64 62.65 140.64 63.42 142.85 63.42 142.85 64.19 140.64 64.19 140.64 65.01 142.92 65.01 142.92 65.86 139.63 65.86 139.63 61.77"/><path class="cls-9" d="M149.28,63.36c1.23.07,1.34.68,1.34,1.34a1.2,1.2,0,0,1-1.3,1.18h-2.11V65h1.65c.27,0,.69,0,.69-.4,0-.19-.07-.31-.37-.34-.13,0-.62,0-.69,0-1.12,0-1.38-.58-1.38-1.26a1.13,1.13,0,0,1,1.2-1.18h2.11v.87h-1.54c-.36,0-.74,0-.74.36s.19.3.43.32Z"/><path class="cls-9" d="M145.49,63.36c1.23.07,1.34.68,1.34,1.34a1.2,1.2,0,0,1-1.29,1.18h-2.11V65h1.64c.28,0,.7,0,.7-.4,0-.19-.08-.31-.38-.34-.13,0-.62,0-.69,0-1.12,0-1.38-.58-1.38-1.26a1.13,1.13,0,0,1,1.2-1.18h2.11v.87h-1.54c-.35,0-.73,0-.73.36s.19.3.42.32Z"/><path class="cls-9" d="M133.56,61.78H130l-1.15,1.27-1.12-1.28h-4v4.09h3.84l1.21-1.35L130,65.88H132v-1.4h1.35c.52,0,1.48,0,1.48-1.45A1.13,1.13,0,0,0,133.56,61.78ZM127.1,65h-2.31V64.2H127v-.78h-2.22v-.77h2.44l1,1.12Zm3.85.47-1.44-1.71,1.44-1.6Zm2.27-1.84H132v-1h1.25a.5.5,0,0,1,.56.48A.49.49,0,0,1,133.22,63.64Z"/><path class="cls-9" d="M138.42,64a1.12,1.12,0,0,0,.69-1.14,1.07,1.07,0,0,0-1.2-1.09h-2.62v4.1h1V64.43h1.31c.35,0,.49.35.5.69l0,.76h1l0-.85C139.08,64.37,138.89,64.06,138.42,64Zm-.87-.43H136.3v-.93h1.25a.5.5,0,0,1,.56.48C138.11,63.4,138,63.58,137.55,63.58Z"/><rect class="cls-9" x="135.69" y="54.69" width="1.01" height="4.1"/><polygon class="cls-9" points="127.45 54.7 130.75 54.7 130.75 55.58 128.47 55.58 128.47 56.35 130.68 56.35 130.68 57.13 128.47 57.13 128.47 57.94 130.75 57.94 130.75 58.8 127.45 58.8 127.45 54.7"/><path class="cls-9" d="M134.47,56.93a1.13,1.13,0,0,0,.7-1.14A1.08,1.08,0,0,0,134,54.7h-2.62v4.09h1V57.35h1.31c.35,0,.49.35.5.69l0,.75h1l0-.84C135.13,57.29,135,57,134.47,56.93Zm-.87-.42h-1.25v-.93h1.25c.43,0,.56.27.56.47S134,56.51,133.6,56.51Z"/><path class="cls-9" d="M125.14,54.7l-1.24,2.75-1.23-2.75h-1.58v3.94l-1.75-3.94H118l-1.8,4.09h1.07l.39-.91h2l.39.91h2v-3l1.34,3h.92l1.37-3v3h1V54.7ZM118.05,57l.6-1.44.62,1.44Z"/><path class="cls-9" d="M147.08,54.7v2.83l-1.7-2.83H143.9v3.84l-1.72-3.84h-1.33l-1.39,3.17h-.64c-.24,0-.62-.22-.63-1v-.29c0-1,.53-1,1.19-1H140V54.7h-1.32c-.45,0-1.45.34-1.48,2,0,1.13.47,2.07,1.58,2.07h1.33l.39-.92h2l.4.92h2v-3l1.81,3h1.38V54.7ZM140.9,57l.6-1.44.63,1.44Z"/><path class="cls-10" d="M163.64,11.32h-2.91a.5.5,0,0,0-.48.4L157.7,27.89a.34.34,0,0,0,.35.4H161a.5.5,0,0,0,.48-.4L164,11.72A.35.35,0,0,0,163.64,11.32Z"/><path class="cls-10" d="M139.14,11.28h-6.78c-.51,0-.79.28-.91,1l-2.34,15c-.1.64.06.93.51.93h2.84c.42,0,.72-.28.8-.84l.59-3.75c.11-.73.32-1.09.77-1.09h3c3.48,0,5.7-2.3,6.09-6.41C144.07,12.67,141.7,11.28,139.14,11.28Zm-2.31,8h-2.31l.75-4.75h2.17a1.74,1.74,0,0,1,1.89,1.9C139.23,18.27,138.27,19.27,136.83,19.32Z"/><path class="cls-10" d="M156.67,17H153.9c-.25,0-.37.14-.44.52l-.1.6c-.05.32-.2.37-.32.06-.48-1.12-1.67-1.62-3.35-1.58-3.89.08-6.5,3-6.79,6.81a4.69,4.69,0,0,0,4.64,5.22,5,5,0,0,0,3.91-1.52c.26-.23.52-.36.49-.06l-.09.69c-.06.36.09.56.43.56h2.52c.42,0,.63-.18.73-.83l1.55-9.74C157.16,17.22,157,17,156.67,17Zm-3.85,5.65a3.62,3.62,0,0,1-3.48,3,2.53,2.53,0,0,1-2.59-3,3.61,3.61,0,0,1,3.48-3A2.53,2.53,0,0,1,152.82,22.63Z"/><path class="cls-11" d="M106.5,19.66a3.61,3.61,0,0,0-3.48,3,2.53,2.53,0,0,0,2.59,3,3.62,3.62,0,0,0,3.48-3A2.53,2.53,0,0,0,106.5,19.66Z"/><path class="cls-11" d="M93.71,14.56H91.54l-.75,4.75H93.1c1.44-.05,2.4-1.05,2.5-2.86A1.74,1.74,0,0,0,93.71,14.56Z"/><path class="cls-12" d="M128.66,17H126a1,1,0,0,0-.92.57L121,23.41l-1.81-5.91a.79.79,0,0,0-.87-.55h-2.54c-.53,0-.74.39-.58.88l3.17,9.28-3.12,4.41c-.26.37-.06.71.31.71h2.87a.87.87,0,0,0,.85-.42l9.75-14C129.29,17.4,129.15,17,128.66,17Z"/><path class="cls-12" d="M112.94,17h-2.77c-.25,0-.37.14-.44.52l-.1.6c0,.32-.19.37-.33.06-.47-1.12-1.66-1.62-3.34-1.58-3.89.08-6.51,3-6.79,6.81a4.69,4.69,0,0,0,4.64,5.22,5,5,0,0,0,3.91-1.52c.26-.23.52-.36.49-.06l-.1.69c0,.36.1.56.44.56h2.51c.43,0,.64-.18.74-.83l1.55-9.74C113.43,17.22,113.31,17,112.94,17Zm-3.85,5.65a3.62,3.62,0,0,1-3.48,3,2.53,2.53,0,0,1-2.59-3,3.61,3.61,0,0,1,3.48-3A2.53,2.53,0,0,1,109.09,22.63Z"/><path class="cls-12" d="M95.41,11.28H88.62c-.5,0-.78.28-.9,1l-2.34,15c-.1.64.06.93.51.93h2.83c.43,0,.72-.28.81-.84l.59-3.75c.12-.73.33-1.09.76-1.09h3.05c3.49,0,5.7-2.3,6.09-6.41C100.34,12.67,98,11.28,95.41,11.28Zm-2.31,8H90.79l.75-4.75h2.17a1.74,1.74,0,0,1,1.89,1.9C95.5,18.27,94.54,19.27,93.1,19.32Z"/><path class="cls-13" d="M0,0H81.38l-6,42.49H0Z"/><path class="cls-8" d="M25.87,17l-.61-1.69H22.94L22.35,17H21.3l2.27-6.09h1.08L26.92,17ZM25,14.46l-.57-1.65c0-.11-.1-.29-.17-.52s-.13-.42-.15-.53c-.08.34-.19.71-.33,1.12l-.55,1.58Z"/><path class="cls-8" d="M30.3,11.7a1.62,1.62,0,0,0-1.34.6A2.58,2.58,0,0,0,28.47,14a2.56,2.56,0,0,0,.47,1.69,1.67,1.67,0,0,0,1.36.58,3.67,3.67,0,0,0,.75-.08c.24-.05.49-.12.75-.2v.85a4.59,4.59,0,0,1-1.62.27,2.59,2.59,0,0,1-2.05-.81A3.4,3.4,0,0,1,27.42,14a3.71,3.71,0,0,1,.35-1.65,2.46,2.46,0,0,1,1-1.09,3.05,3.05,0,0,1,1.54-.37,4,4,0,0,1,1.72.38l-.36.83a4.18,4.18,0,0,0-.65-.25A2.17,2.17,0,0,0,30.3,11.7Z"/><path class="cls-8" d="M36.54,17H33.11V10.93h3.43v.84H34.1v1.65h2.28v.83H34.1v1.91h2.44Z"/><path class="cls-8" d="M41.87,12.77a1.75,1.75,0,0,1-.63,1.45,2.71,2.71,0,0,1-1.77.51h-.63V17h-1V10.93H39.6a2.65,2.65,0,0,1,1.7.47A1.66,1.66,0,0,1,41.87,12.77Zm-3,1.12h.53a1.87,1.87,0,0,0,1.12-.26,1,1,0,0,0,.36-.83,1,1,0,0,0-.32-.78,1.62,1.62,0,0,0-1-.26h-.69Z"/><path class="cls-8" d="M45.17,17h-1V11.78H42.39v-.85H47v.85H45.17Z"/><path class="cls-8" d="M51.65,17,51,15.31H48.72L48.13,17H47.08l2.28-6.09h1.07L52.7,17Zm-.87-2.54-.57-1.65c0-.11-.09-.29-.17-.52l-.15-.53a9.57,9.57,0,0,1-.33,1.12L49,14.46Z"/><path class="cls-8" d="M56.13,17l-1.76-5.07h0c.05.76.07,1.46.07,2.12V17h-.89V10.93H54.9l1.68,4.83h0l1.73-4.83h1.41V17h-1V14c0-.3,0-.7,0-1.18s0-.78,0-.88h0L57,17Z"/><path class="cls-8" d="M66.73,14a3.33,3.33,0,0,1-.74,2.3,2.66,2.66,0,0,1-2.1.82,2.71,2.71,0,0,1-2.11-.81A3.36,3.36,0,0,1,61.05,14a3.27,3.27,0,0,1,.74-2.31,2.73,2.73,0,0,1,2.11-.8,2.68,2.68,0,0,1,2.09.81A3.36,3.36,0,0,1,66.73,14ZM62.1,14a2.7,2.7,0,0,0,.45,1.69,1.83,1.83,0,0,0,2.68,0,2.72,2.72,0,0,0,.45-1.7,2.74,2.74,0,0,0-.45-1.7,1.59,1.59,0,0,0-1.33-.57,1.63,1.63,0,0,0-1.35.57A2.74,2.74,0,0,0,62.1,14Z"/><path class="cls-8" d="M71.53,15.35A1.53,1.53,0,0,1,71,16.62a2.54,2.54,0,0,1-1.62.46,3.87,3.87,0,0,1-1.68-.32v-.94a5.09,5.09,0,0,0,.88.31,4,4,0,0,0,.87.11,1.39,1.39,0,0,0,.87-.22.72.72,0,0,0,.28-.6.77.77,0,0,0-.26-.58,3.83,3.83,0,0,0-1.06-.56,2.73,2.73,0,0,1-1.17-.77,1.6,1.6,0,0,1-.34-1,1.46,1.46,0,0,1,.54-1.2,2.24,2.24,0,0,1,1.45-.43,4.16,4.16,0,0,1,1.73.38l-.31.81a3.81,3.81,0,0,0-1.45-.34,1.11,1.11,0,0,0-.73.21.66.66,0,0,0-.25.55.72.72,0,0,0,.1.4,1,1,0,0,0,.33.32,5,5,0,0,0,.82.39,4.68,4.68,0,0,1,1,.52,1.58,1.58,0,0,1,.46.55A1.73,1.73,0,0,1,71.53,15.35Z"/><path class="cls-8" d="M11.54,25.35a2.47,2.47,0,0,1-.87,2,3.83,3.83,0,0,1-2.47.71H7.31v3.17H5.92V22.78H8.37a3.71,3.71,0,0,1,2.38.65A2.35,2.35,0,0,1,11.54,25.35ZM7.31,26.93h.74a2.63,2.63,0,0,0,1.57-.37,1.37,1.37,0,0,0,.5-1.16,1.33,1.33,0,0,0-.45-1.1A2.21,2.21,0,0,0,8.28,24h-1Z"/><path class="cls-8" d="M18.51,31.27l-.85-2.35H14.41l-.82,2.35H12.12l3.18-8.52h1.51L20,31.27Zm-1.22-3.55-.79-2.31c-.06-.16-.14-.4-.24-.73s-.17-.58-.21-.73a14.33,14.33,0,0,1-.46,1.55l-.77,2.22Z"/><path class="cls-8" d="M24.58,26.67h3.13v4.26a9.07,9.07,0,0,1-1.48.36,10.39,10.39,0,0,1-1.52.1,3.84,3.84,0,0,1-3-1.14,4.62,4.62,0,0,1-1-3.22,4.27,4.27,0,0,1,1.18-3.21,4.44,4.44,0,0,1,3.25-1.16,6.38,6.38,0,0,1,2.52.51l-.49,1.16a4.88,4.88,0,0,0-2.07-.48,2.82,2.82,0,0,0-2.15.85A3.32,3.32,0,0,0,22.14,27a3.51,3.51,0,0,0,.71,2.37,2.59,2.59,0,0,0,2,.81,6.87,6.87,0,0,0,1.44-.17V27.86H24.58Z"/><path class="cls-8" d="M37.28,27a4.65,4.65,0,0,1-1,3.22,3.74,3.74,0,0,1-2.94,1.15,3.76,3.76,0,0,1-3-1.14,4.66,4.66,0,0,1-1-3.25,4.58,4.58,0,0,1,1-3.22,3.79,3.79,0,0,1,3-1.13,3.75,3.75,0,0,1,2.93,1.14A4.66,4.66,0,0,1,37.28,27ZM30.8,27a3.84,3.84,0,0,0,.63,2.38,2.25,2.25,0,0,0,1.88.8,2.21,2.21,0,0,0,1.87-.8A3.8,3.8,0,0,0,35.81,27a3.83,3.83,0,0,0-.62-2.37,2.58,2.58,0,0,0-3.75,0A3.7,3.7,0,0,0,30.8,27Z"/><path class="cls-8" d="M44,29a2.16,2.16,0,0,1-.81,1.78,3.57,3.57,0,0,1-2.26.64,5.37,5.37,0,0,1-2.36-.45V29.63a6.4,6.4,0,0,0,1.23.43,5.53,5.53,0,0,0,1.22.16,2,2,0,0,0,1.22-.32,1,1,0,0,0,.39-.84,1.06,1.06,0,0,0-.36-.81,5.46,5.46,0,0,0-1.49-.78,4,4,0,0,1-1.64-1.07,2.34,2.34,0,0,1-.47-1.46,2,2,0,0,1,.75-1.67,3.11,3.11,0,0,1,2-.61,5.94,5.94,0,0,1,2.43.54l-.44,1.13a5.3,5.3,0,0,0-2-.48,1.57,1.57,0,0,0-1,.29,1,1,0,0,0-.35.78,1.15,1.15,0,0,0,.14.57,1.63,1.63,0,0,0,.46.44,8.52,8.52,0,0,0,1.15.55,5.91,5.91,0,0,1,1.37.73,2.07,2.07,0,0,1,.64.76A2.2,2.2,0,0,1,44,29Z"/><path class="cls-8" d="M54.36,25.35a2.47,2.47,0,0,1-.87,2A3.86,3.86,0,0,1,51,28.1h-.88v3.17H48.74V22.78h2.45a3.71,3.71,0,0,1,2.38.65A2.35,2.35,0,0,1,54.36,25.35Zm-4.23,1.58h.74a2.6,2.6,0,0,0,1.56-.37,1.6,1.6,0,0,0,.06-2.26,2.24,2.24,0,0,0-1.4-.35h-1Z"/><path class="cls-8" d="M63.6,27a4.65,4.65,0,0,1-1,3.22,4.36,4.36,0,0,1-5.89,0,4.66,4.66,0,0,1-1-3.25,4.58,4.58,0,0,1,1-3.22,3.79,3.79,0,0,1,3-1.13,3.72,3.72,0,0,1,2.92,1.14A4.66,4.66,0,0,1,63.6,27Zm-6.48,0a3.84,3.84,0,0,0,.63,2.38,2.59,2.59,0,0,0,3.74,0A3.8,3.8,0,0,0,62.12,27a3.77,3.77,0,0,0-.62-2.37,2.21,2.21,0,0,0-1.86-.81,2.26,2.26,0,0,0-1.89.81A3.77,3.77,0,0,0,57.12,27Z"/><path class="cls-8" d="M66.81,27.88v3.39H65.42V22.78h2.4a4,4,0,0,1,2.44.62A2.22,2.22,0,0,1,71,25.26a2.32,2.32,0,0,1-1.65,2.26l2.4,3.75H70.22l-2-3.39Zm0-1.15h1a2.2,2.2,0,0,0,1.4-.36,1.3,1.3,0,0,0,.44-1.07,1.15,1.15,0,0,0-.47-1A2.59,2.59,0,0,0,67.73,24h-.92Z"/></g></g></svg>